<?xml version="1.0" encoding="UTF-8" standalone="no"?>
<!-- Created with Inkscape (http://www.inkscape.org/) -->

<svg
   xmlns:dc="http://purl.org/dc/elements/1.1/"
   xmlns:cc="http://creativecommons.org/ns#"
   xmlns:rdf="http://www.w3.org/1999/02/22-rdf-syntax-ns#"
   xmlns:svg="http://www.w3.org/2000/svg"
   xmlns="http://www.w3.org/2000/svg"
   xmlns:sodipodi="http://sodipodi.sourceforge.net/DTD/sodipodi-0.dtd"
   xmlns:inkscape="http://www.inkscape.org/namespaces/inkscape"
   width="210mm"
   height="297mm"
   viewBox="0 0 744.09448819 1052.3622047"
   id="svg4235"
   version="1.1"
   inkscape:version="0.91 r13725"
   sodipodi:docname="gopher-success-right.svg">
  <defs
     id="defs4237" />
  <sodipodi:namedview
     id="base"
     pagecolor="#ffffff"
     bordercolor="#666666"
     borderopacity="1.0"
     inkscape:pageopacity="0.0"
     inkscape:pageshadow="2"
     inkscape:zoom="0.49497475"
     inkscape:cx="-186.99536"
     inkscape:cy="565.25603"
     inkscape:document-units="px"
     inkscape:current-layer="layer1"
     showgrid="false"
     inkscape:window-width="1366"
     inkscape:window-height="705"
     inkscape:window-x="-8"
     inkscape:window-y="-8"
     inkscape:window-maximized="1" />
  <metadata
     id="metadata4240">
    <rdf:RDF>
      <cc:Work
         rdf:about="">
        <dc:format>image/svg+xml</dc:format>
        <dc:type
           rdf:resource="http://purl.org/dc/dcmitype/StillImage" />
        <dc:title></dc:title>
      </cc:Work>
    </rdf:RDF>
  </metadata>
  <g
     inkscape:label="Layer 1"
     inkscape:groupmode="layer"
     id="layer1">
    <g
       transform="matrix(1.0218798,0,0,1.0150573,129.63678,-249.30284)"
       id="g4218">
      <path
         d="m 132.5,278.5 c -2.2,0.7 -6.7,2.1 -9.9,3 -7.1,2 -12.6,7.1 -17.1,16.1 -2.5,4.9 -3,7 -3,13 0.1,8.4 3.3,15.8 11.5,26.7 6.5,8.6 12.9,13.3 18.9,14 5,0.6 6.6,2.1 8.2,8.1 0.6,2.1 1.4,4.6 1.8,5.5 3.3,6.6 7.5,16.9 9.7,24.1 1.5,4.7 3,9.2 3.5,10.1 0.4,0.9 2.1,7.4 3.9,14.5 1.7,7.1 3.7,15.4 4.5,18.4 2.6,10.3 4.4,20.5 6,34 l 1.5,13.4 -2.7,2.3 c -1.6,1.2 -6.3,4.3 -10.5,6.8 -4.3,2.5 -7.8,5 -7.8,5.5 0,0.6 -0.5,1 -1,1 -2.9,0 -10.3,12.3 -12.8,21.2 -1.4,4.9 0.3,11.1 3.9,15.1 1.6,1.7 2.9,3.5 2.9,3.9 0,1 6.7,3.8 9.1,3.8 1.1,0 1.9,0.4 1.9,0.8 0,1.4 -6.1,12.8 -11.1,20.7 -2.9,4.7 -8.9,17.6 -8.9,19.3 0,0.6 -1.7,4.6 -3.7,8.7 -3.2,6.5 -3.6,7.7 -2.3,8.6 1.3,0.9 1.3,1 -0.1,0.6 -1.2,-0.4 -2.1,1.1 -3.9,6.6 -1.3,3.9 -2.5,8 -2.6,9.2 -0.1,1.1 -0.3,2.1 -0.4,2.2 -0.2,0.2 -0.4,2 -0.6,4 -0.7,7 -1.1,9.3 -1.7,10 -0.4,0.3 -0.7,1.4 -0.7,2.3 0,0.9 -3.1,3.8 -7,6.5 -3.8,2.7 -7,5.1 -7,5.4 0,0.4 -1.6,1.5 -3.5,2.5 -1.9,1.1 -3.5,2.4 -3.5,3 0,0.6 -1.9,2.3 -4.3,3.8 -4.7,3 -11,9.5 -13.2,13.7 -1.6,3.2 -5.3,7.8 -11.1,13.8 -2.3,2.4 -3.7,4.3 -3.2,4.3 0.5,0 -0.6,2 -2.4,4.5 -1.8,2.5 -3.7,5.3 -4.3,6.3 -0.5,0.9 -2.6,3.9 -4.6,6.7 -3.2,4.4 -7.7,12.2 -14.4,25.3 -1.1,2.2 -2.5,4.6 -3,5.3 -0.6,0.8 -2.6,5 -4.4,9.4 -1.8,4.4 -3.8,9.3 -4.6,11 -0.7,1.6 -1.6,5.6 -1.9,8.8 l -0.6,5.8 6.2,2.9 c 3.5,1.7 7.1,3.6 8,4.3 1.8,1.4 5.8,11.4 8.3,20.4 1.5,5.6 6.5,19.4 9.2,25.3 0.8,1.9 2.6,6.3 3.8,9.7 l 2.4,6.2 -2.5,6.3 c -1.3,3.5 -3.3,10.1 -4.4,14.8 -1.1,4.7 -2.7,11 -3.5,14 -2.8,10.8 -4.6,18.6 -6.1,27.5 -0.9,4.9 -2,11 -2.5,13.5 -0.5,2.5 -1.3,7.1 -1.8,10.2 -0.5,3.2 -1.3,6.3 -1.7,7 -0.4,0.7 -1.1,5.1 -1.5,9.8 -0.4,4.7 -1.2,12.3 -1.9,17 -0.7,4.7 -1.3,18 -1.3,29.7 l -0.2,21.1 2.7,2.4 c 1.5,1.3 3.6,3 4.8,3.8 2.1,1.5 1.9,1.7 -6.8,7.3 -8.7,5.6 -9,6 -12.6,13.6 -3.2,6.8 -3.7,8.9 -3.7,15.2 -0.1,11.6 4.5,19.5 13.8,23.9 7.7,3.6 20.3,3.5 29.3,-0.4 1.1,-0.4 2.2,0.7 3.9,4.1 3.2,6.5 3.7,7.8 6.2,15.3 1.1,3.6 2.7,7.6 3.4,9 2.2,4.2 6.5,14.7 6.5,15.8 0,0.6 0.4,2.1 0.9,3.4 1.4,3.8 1.5,4 2.8,12.3 1.1,7.2 2.5,20.6 2.5,24.5 0,4 -0.5,11.9 -0.9,15.2 -0.4,3.2 -0.9,3.8 -4.1,4.8 -2,0.7 -5.6,2.1 -7.9,3.2 -2.3,1.1 -4.4,1.8 -4.7,1.6 -0.2,-0.2 -1.2,0.4 -2.2,1.3 -1.1,0.9 -3.9,2.6 -6.4,3.8 -2.5,1.2 -6.3,3.5 -8.5,5.1 -2.2,1.7 -5.4,3.9 -7,5 -3.7,2.4 -6.6,6.1 -9.8,12.7 -2.5,5.2 -2.2,8.8 0.8,9.9 1.5,0.6 13.4,-2.1 16.8,-3.8 3.9,-2 2.7,0.4 -3.6,7.2 -5.4,5.9 -6.7,7.9 -7.3,11.6 -0.4,2.9 -0.2,4.9 0.6,5.9 2.6,3.2 10.8,1.4 24,-5.1 3,-1.5 6.9,-3 8.5,-3.5 l 3,-0.8 -2.5,1.7 c -4.5,3.1 -11.2,10.6 -13.1,14.8 -1.8,4 -1.6,8.2 0.5,9.6 3.3,2.3 9.1,0.6 22.4,-6.3 7.6,-3.9 14.9,-8 16.4,-9 1.4,-1.1 2.9,-1.9 3.3,-1.9 0.4,0 2.9,-1.3 5.4,-2.8 2.5,-1.6 6.9,-3.7 9.6,-4.7 5.1,-1.9 21.6,-10.2 22.5,-11.4 0.3,-0.3 2.8,-2.1 5.5,-4 5.2,-3.5 11.7,-9.9 17.1,-16.7 5.6,-7.1 5.7,-7.5 3.4,-16.1 -1.2,-4.3 -2.8,-10.5 -3.6,-13.8 -0.8,-3.3 -2.8,-9.8 -4.3,-14.5 -1.6,-4.7 -3.4,-11.9 -4.1,-16 -0.6,-4.1 -1.4,-8.9 -1.7,-10.5 -0.8,-4.3 -0.8,-9.9 0.1,-18.1 l 0.8,-7 6.1,0.8 c 3.4,0.4 7.6,1.3 9.2,1.8 1.7,0.5 7.3,1.7 12.5,2.5 5.2,0.8 11.8,1.9 14.6,2.4 15.4,2.8 54.9,4.2 67.9,2.5 1.7,-0.2 8,-0.7 14.2,-1 l 11.2,-0.7 0.5,3.4 c 2.8,16.7 3.1,37.4 0.6,40.4 -0.7,0.8 -1,2.1 -0.7,2.9 0.9,2.4 -4.7,16.3 -9.3,23.1 -1.5,2.2 -3.5,5.8 -4.4,8 -1.9,4.4 -1.9,4.3 4.1,17.2 1.8,4 3.3,7.6 3.3,8.2 0,0.5 2.1,3 4.8,5.5 4.1,4 6.5,6.1 12.2,10.9 0.8,0.7 3.3,2.2 5.5,3.2 2.2,1.1 4.2,2.3 4.5,2.6 0.3,0.4 5.5,3.2 11.5,6.4 6.1,3.2 12.2,6.7 13.7,7.9 1.5,1.2 6,4.5 10.1,7.5 6.4,4.5 7.6,5.9 8.2,9 0.9,5 1,5 5.2,3.6 2.6,-0.9 3.9,-2.1 4.4,-3.9 1,-3.7 -1.5,-13.5 -5.7,-21.7 -4.5,-9 -4,-9.8 2.4,-3.8 9.5,8.8 20.1,15.3 22,13.4 0.2,-0.2 0.8,-2.5 1.3,-5.2 1.1,-5.5 -0.7,-13.9 -4.5,-21.6 -2.7,-5.3 -2.2,-5.7 3.2,-2.4 9,5.6 14.5,6.1 15,1.4 0.9,-7.7 -9.9,-23.4 -21.4,-31.2 -4.6,-3.1 -7.4,-5.6 -16.1,-14.2 l -7.3,-7.2 0,-9.5 c 0,-5.9 0.7,-12.7 1.9,-17.8 1.1,-4.6 2.5,-11 3.2,-14.3 0.7,-3.3 1.8,-8.5 2.6,-11.5 0.8,-3 1.8,-7.1 2.3,-9 0.4,-1.9 1.4,-6.2 2.3,-9.5 3,-11.2 6.9,-36 7,-44.7 0.1,-4.7 0.4,-8.8 0.7,-9.1 0.3,-0.2 2.8,-1.2 5.7,-2.1 2.8,-1 6.4,-2.7 7.9,-3.9 1.8,-1.4 2.9,-1.7 3.1,-1 1.1,3.3 4.6,6.3 7.4,6.3 3.2,0 4.8,-2.1 11.2,-14.4 3.9,-7.4 4.7,-6.8 4,3.2 -0.7,8.6 1.4,12.6 7.3,14.2 3.4,1 4.7,1 5.8,0 1.6,-1.3 9.6,-16.9 9.6,-18.7 0,-0.6 0.8,-3.7 1.9,-6.9 3.4,-10.9 5.4,-26.9 4.7,-38.4 -1,-15.5 -3.4,-24.7 -10.4,-39.8 l -2.4,-5.3 -0.3,-54.2 c -0.4,-59.6 -0.7,-64 -6.5,-89.7 -1.2,-5.2 -2.7,-11.9 -3.3,-14.8 -0.6,-2.8 -1.4,-5.2 -1.9,-5.2 -0.5,0 -0.6,-0.4 -0.3,-1 0.3,-0.5 0.1,-3.7 -0.6,-6.9 -1.4,-7.4 -0.9,-9.8 3.6,-15.1 1.9,-2.3 3.5,-4.9 3.5,-5.8 0,-1 -1.1,-3.9 -2.5,-6.6 -1.4,-2.7 -2.5,-5.5 -2.5,-6.3 0,-1.6 -7.2,-16.6 -10.5,-21.8 -1.4,-2.2 -3.5,-6 -4.7,-8.5 -1.1,-2.5 -2.6,-4.8 -3.2,-5.2 -0.6,-0.4 -0.7,-0.8 -0.3,-0.8 0.5,0 -0.5,-1.9 -2.1,-4.3 -1.6,-2.3 -3.6,-5.3 -4.5,-6.7 -0.9,-1.4 -3.7,-5.2 -6.2,-8.5 -2.4,-3.3 -6.4,-8.7 -8.7,-12 -6.5,-9.3 -10.4,-13.9 -22.5,-26.5 -6.7,-6.8 -11.3,-12.4 -11.3,-13.6 0,-1.1 -0.6,-2.8 -1.4,-3.9 -3.4,-5 -8.9,-16.3 -12.2,-25.2 -6.1,-16.6 -6.5,-18.5 -7.1,-30 l -0.6,-11.1 4.9,-5.4 c 3.9,-4.1 4.9,-5.9 4.6,-8.1 -0.2,-1.5 -1,-2.7 -1.8,-2.7 -0.8,0 -1.4,-0.4 -1.4,-0.9 0,-1.7 9.2,-9.6 10.8,-9.4 5.2,0.5 15,-9.1 19.6,-19.5 1,-2.3 2.3,-4.2 2.8,-4.2 0.4,0 0.8,-0.5 0.8,-1.1 0,-0.6 1.3,-3.8 3,-7 1.6,-3.3 2.8,-5.9 2.5,-5.9 -0.3,0 0.8,-2.4 2.4,-5.3 3.5,-6.4 6,-14 6.3,-19 0.1,-2 0.5,-3.7 0.9,-3.7 0.3,0 0.6,-1.2 0.7,-2.8 0,-1.5 0.4,-4.3 0.8,-6.2 1.9,-8.2 0,-29.4 -3.7,-41.3 -0.7,-2.3 -0.1,-4.1 3,-10 2.1,-4 4.2,-8.3 4.6,-9.7 0.4,-1.4 1.3,-3.9 2,-5.5 1.7,-3.9 3.5,-11.7 3.5,-15 0,-1.8 -0.8,-2.9 -2.5,-3.7 -4.1,-1.9 -11.3,0.5 -28.3,9.4 -15,7.7 -15.4,7.9 -22,7.7 -16,-0.5 -32.3,3.1 -46.4,10.2 -7.3,3.7 -9.4,3.7 -10.3,0.1 -0.3,-1.5 -1.6,-4.6 -2.7,-6.9 -2.7,-5.4 -6.2,-7 -14.1,-6.4 -4.7,0.3 -8.7,15.1 -6.7,24.8 0.7,3 0.9,5.7 0.6,6 -1,1.1 -11.2,-6.3 -21,-15.2 -5.4,-4.9 -11.7,-10.4 -14,-12.1 -2.2,-1.7 -5.9,-4.8 -8.1,-7 -14.3,-13.7 -33.2,-32 -39.7,-38.1 -4.1,-4 -8.9,-9.3 -10.4,-11.8 -1.6,-2.5 -3.5,-4.5 -4.2,-4.5 -0.8,0 -1,-0.8 -0.7,-2.3 2.4,-10.5 2.1,-17.5 -1.3,-28.2 -2.4,-7.3 -7.4,-15.5 -11,-18.2 -3.3,-2.4 -10.6,-5.3 -13,-5.2 -0.9,0 -3.5,0.7 -5.7,1.4 z m 13.9,11 c 1.4,0.9 3.5,3.2 4.6,5.1 4.5,7.2 7.5,23.4 5.1,28.2 -0.4,0.9 -1.6,3.4 -2.7,5.6 -3.3,6.8 -13.9,13.6 -21.2,13.6 -6.2,0 -22.2,-21.1 -22.2,-29.2 0,-4.9 3.1,-12.2 7.3,-17 3.3,-3.8 4.8,-4.6 12.5,-6.9 9.1,-2.7 11.7,-2.6 16.6,0.6 z m 7.7,56.9 c 0.5,-0.3 0.9,0 0.9,0.5 0,0.6 -0.4,1.1 -1,1.1 -0.5,0 -0.9,0.3 -0.9,0.7 0.4,2.4 -0.2,4.3 -1.2,3.7 -0.6,-0.3 -1.5,0 -2,0.7 -0.6,1 -0.9,0.8 -0.9,-0.9 0,-1.2 -0.4,-2.2 -1,-2.2 -0.5,0 -1,-0.4 -1,-1 0,-1.3 5.4,-4.1 5.8,-2.9 0.2,0.5 0.8,0.7 1.3,0.3 z m 14,1.3 c 1.6,1 2.9,2.2 2.9,2.8 0,4.8 -9.2,26.3 -12,28 -0.9,0.6 -5,-6.8 -5,-9 0,-0.6 2.3,-5.6 5,-11.2 2.8,-5.6 5,-10.6 5,-11.2 0,-1.5 0.7,-1.4 4.1,0.6 z m 12.1,11 c 3.8,3.1 8.8,8.3 8.8,9.3 0,1.3 -3.7,10.7 -6.5,16.5 -1.3,2.7 -3.5,7.5 -4.8,10.5 -1.4,3 -4.1,7.7 -6,10.4 l -3.5,4.8 -1.5,-3.3 c -0.9,-1.9 -2.5,-6.1 -3.6,-9.3 -2.1,-6.1 -2.1,-6.5 1.7,-10.4 0.6,-0.7 1.2,-1.9 1.2,-2.6 0,-0.6 1.5,-4.1 3.4,-7.6 1.8,-3.6 4.4,-9.5 5.7,-13.3 1.3,-3.7 2.5,-6.7 2.6,-6.7 0.2,0 1.3,0.8 2.5,1.7 z m 23.1,22.2 c 2,1.9 3.7,4.4 3.7,5.6 -0.1,7.5 -13.3,35.6 -23.6,50.1 -5.6,7.8 -7.2,9.3 -8.4,7.4 -1.4,-2.2 -4.4,-19.6 -3.6,-21.1 0.3,-0.8 1.6,-3 2.7,-4.9 2.9,-4.7 10.5,-20.1 16.4,-33.2 5.5,-12.1 4.3,-11.8 12.8,-3.9 z m 178.7,5 c 0,0.5 -2.4,3.2 -5.2,6.1 -8.8,8.6 -24.8,14.8 -24.8,9.6 0,-1.4 2.4,-3.8 5,-5 0.8,-0.4 2.4,-1.2 3.5,-1.9 6.8,-4.2 18,-9.6 20.3,-9.7 0.6,0 1.2,0.4 1.2,0.9 z m -163.9,8.6 c 8.9,6.6 9.9,7.7 9.9,10.8 0,1.6 -1.5,6.2 -3.4,10.1 -1.8,3.9 -4.6,9.8 -6.1,13 -4.4,9.3 -12.2,21.3 -17.5,26.9 -2.8,2.9 -5,5.8 -5,6.4 0,0.7 -0.4,1.3 -0.9,1.3 -0.4,0 -2.6,1.8 -4.7,4 -4.5,4.7 -10.1,8.3 -10.9,7 -0.3,-0.5 -0.9,-4.1 -1.4,-8 l -0.9,-7.2 4.5,-6.7 c 2.5,-3.6 5.8,-8.2 7.2,-10.1 6,-7.8 15.5,-26.1 21.3,-41.2 1.8,-4.8 3.6,-8.8 3.9,-8.8 0.3,0 2.1,1.1 4,2.5 z m 58.8,6.2 c 1.3,4.5 0.1,6.3 -4,6.3 -2.2,0 -3.2,-0.7 -4.1,-2.5 -1.5,-3.2 1.2,-7.5 4.7,-7.5 1.9,0 2.6,0.7 3.4,3.7 z m 57.5,2.2 c -0.8,1.5 -2.5,4 -3.9,5.5 -1.4,1.5 -2.5,3 -2.5,3.3 0,0.4 -0.8,1.5 -1.7,2.5 -1.3,1.4 -1.4,2.3 -0.7,3.5 2,3.2 8.4,4.3 28.6,5 l 20,0.6 1,2.6 c 0.5,1.4 1.6,6.8 2.4,12 0.8,5.1 1.6,9.6 1.8,10 0.5,0.8 -1.9,19.2 -3.4,25.6 -1.2,5.6 -2.5,8.5 -11.3,26.5 -9.2,18.6 -13.8,25 -18.2,25 -5.1,0 -18.8,-11 -28.9,-23.3 -2.2,-2.7 -4.7,-4.7 -5.8,-4.7 -1.9,0 -2,0.5 -1.3,7.2 0.4,4 1.4,9.8 2.2,12.8 2.4,8.5 8.8,22.6 12.7,28.1 l 3.6,4.9 -3.2,2.7 c -6,5.3 -6.9,6.4 -6.4,8.1 0.3,0.9 1,6 1.6,11.2 1.2,10.3 2.2,15 5,22 0.9,2.5 2.5,7 3.5,10 1,3 4.2,10.3 7.1,16.2 3,5.9 5.4,11 5.4,11.2 0,1 -5.4,3.3 -14.5,6.3 -21.8,7.2 -25.7,8.3 -38,10.8 -7.1,1.4 -15.9,3.2 -19.5,4 -8.2,1.8 -29.9,3.8 -36.5,3.3 l -5,-0.3 0,-11 c 0,-6.1 -0.4,-11.6 -0.8,-12.3 -0.5,-0.7 -0.3,-1.2 0.6,-1.2 0.9,0 2.9,-4.6 5.7,-13.3 2.3,-7.2 5.3,-15.2 6.6,-17.7 1.3,-2.5 2.4,-4.8 2.4,-5.2 0,-1.9 7.1,-16 11.5,-22.7 6.4,-9.8 6.4,-13.6 0.3,-19.5 -5.1,-4.9 -8.4,-11.1 -13.6,-26.1 -5,-14.1 -6.6,-25.8 -6,-42.3 0.5,-11.8 0.8,-13.6 4.2,-22 2.1,-5.1 3.6,-10 3.4,-11 -0.1,-0.9 0.4,-2.6 1.2,-3.7 1.4,-2 20.3,-15 22.6,-15.7 0.7,-0.2 3.6,2 6.5,4.8 6.7,6.3 8.7,7.4 12.3,6.7 2.2,-0.5 3.3,-1.6 4.8,-5.1 2.2,-4.9 2,-10.6 -0.7,-18.3 -2.1,-5.8 -2,-6.2 2.3,-8.4 2,-1 4.8,-2.7 6.2,-3.6 1.4,-0.9 6.6,-3 11.5,-4.7 7.2,-2.4 10.8,-3.1 17.7,-3.1 l 8.6,-0.1 -1.4,2.9 z m -92.9,11.6 c 2.8,2.5 7.4,6.2 10.3,8.3 l 5.4,3.7 -3,2.5 c -13.7,11.6 -29.4,23.1 -37,27.1 -5.1,2.6 -9.2,4.6 -9.2,4.3 0,-0.2 1.8,-3 4,-6.1 2.2,-3.2 4,-6.1 4,-6.5 0,-0.4 1.2,-2.4 2.6,-4.5 2.7,-4 13.4,-25.8 13.4,-27.3 0,-2.1 2.1,-6 3.2,-6 0.7,0 3.6,2.1 6.3,4.5 z M 228,469.7 c -2.4,16.4 0,42.6 4.8,53.5 1,2.4 2.2,5.6 2.6,7.3 0.9,3.7 9.3,21.2 10.5,21.9 0.5,0.4 2.1,2.6 3.6,5.1 l 2.6,4.6 -3.4,5.2 c -3.5,5.2 -7.9,14.2 -11.3,22.7 -1,2.5 -2.3,5.2 -2.9,6 -1.8,2.3 -4.4,10 -5.1,15 -0.4,2.5 -1.3,5.3 -2.2,6.2 -0.8,1 -1.2,2.4 -0.9,3.3 0.4,0.8 0.2,1.5 -0.4,1.5 -1.7,0 -3.1,5.2 -4.4,16.5 -0.7,6 -1.8,12.3 -2.4,13.9 l -1.1,2.8 -7.3,-0.6 c -15.3,-1.3 -27.4,-2.7 -31.7,-3.8 -11.5,-2.7 -23.8,-6.4 -38.3,-11.6 l -15.8,-5.7 0.4,-5 c 0.2,-2.8 1.6,-9.5 3.1,-15 1.5,-5.5 3,-10.9 3.2,-11.9 0.2,-1.1 0.8,-2.2 1.2,-2.5 0.5,-0.3 1.3,-1.7 1.7,-3.1 0.9,-2.8 5.1,-12.6 6.5,-15.2 0.6,-1 1,-2.2 1,-2.7 0,-0.6 2.5,-5.2 5.5,-10.3 3,-5.1 5.5,-9.7 5.5,-10.3 0,-0.5 1.6,-3 3.5,-5.4 1.9,-2.4 3.5,-4.8 3.5,-5.4 0,-0.6 0.6,-1.8 1.4,-2.6 0.8,-0.9 2.9,-4.3 4.6,-7.6 1.8,-3.3 4.2,-7.1 5.4,-8.5 2.9,-3.3 7.6,-10.7 7.6,-11.9 0,-0.5 1.7,-2.7 3.8,-4.9 2,-2.2 6.2,-7.3 9.2,-11.3 5.6,-7.5 16.4,-19.2 27.9,-30.2 3.5,-3.4 6.9,-6.7 7.5,-7.3 0.6,-0.7 1.2,-1.1 1.4,-0.9 0.2,0.2 -0.2,3.8 -0.8,8.2 z m -27.9,9 c -14.7,17 -27.1,33.5 -31.7,42.2 -1.6,2.9 -4.4,6.7 -6.3,8.3 -3,2.7 -4,3 -7.9,2.5 -3.5,-0.4 -5.2,-1.3 -7.8,-4.1 -4,-4.4 -4.2,-6.8 -1.2,-13.9 3.8,-9 6.6,-12.3 15.1,-17.8 11.1,-7.2 39.7,-21.7 43,-21.9 0.5,0 -1,2.1 -3.2,4.7 z M 330.6,524 c 2.7,2.4 4.9,5.1 4.9,6 0,1.8 -4.4,7 -5.9,7 -1.9,0 -10.6,-19 -10.6,-23.1 0,-0.6 1.5,0.4 3.4,2.3 1.9,1.8 5.6,5.3 8.2,7.8 z m 34.7,135.9 c 16.3,19.2 26.2,33.6 34.3,50 2,4.1 5.1,9.7 6.9,12.5 3.8,6.1 10.5,22.6 11.2,27.8 0.6,4 1.3,3 -14.3,19.4 -4.2,4.4 -19.5,16 -22.3,16.9 -1.3,0.4 -4.5,2.3 -7.1,4.1 -2.6,1.9 -5.2,3.4 -5.8,3.4 -0.7,0 -1.8,-1.2 -2.6,-2.8 -1.5,-3.1 -6.6,-16.8 -7.1,-19.5 -0.6,-2.8 1.7,-14.1 3.1,-15.2 0.7,-0.6 2.9,-4.3 4.9,-8.2 3.1,-6.1 3.5,-7.5 2.5,-8.8 -2.4,-2.9 -5.3,-1.2 -9.7,5.4 -2.4,3.5 -4.3,7.2 -4.3,8.2 0,2.9 -2,2.2 -3.1,-1 -2.2,-6.3 -9.5,-19.5 -11.5,-20.8 -1.7,-1.1 -2.3,-1.1 -3.8,0 -1.7,1.3 -1.7,1.6 -0.3,3.8 0.9,1.3 3.2,6.2 5.2,10.9 1.9,4.7 4.2,9.8 5,11.5 1.7,3.6 4.1,10.7 5,15.2 0.4,1.8 1,3.3 1.4,3.3 0.4,0 1.3,2.2 2,4.8 0.6,2.7 2.3,7 3.6,9.7 1.4,2.7 2.5,5.5 2.5,6.3 0,1.7 1.8,7.5 3.3,10.9 0.5,1.1 0.7,2.5 0.4,3 -0.3,0.5 0.6,4 2,7.9 1.4,3.8 2.7,9.4 3,12.4 0.4,5.4 4.9,25.5 6.1,27.5 0.4,0.5 0.8,1.7 1,2.5 0.8,3.6 5.2,45.5 7.2,68.5 0.6,6 1.4,15 1.9,20 1.5,14.9 1.6,17 1.4,45 -0.1,29.3 -1,44.8 -2.4,45.3 -0.5,0.2 -2.2,1.4 -3.7,2.6 -1.5,1.2 -4.3,2.8 -6.2,3.6 -1.9,0.7 -4.2,1.9 -5,2.6 -0.8,0.6 -3.5,1.2 -6,1.3 -2.5,0 -8.1,0.9 -12.5,2 -4.4,1.1 -11.6,2.6 -16,3.2 -4.4,0.6 -8.7,1.4 -9.5,1.6 -0.8,0.3 -3.7,0.7 -6.5,0.9 -4.8,0.3 -9.9,1.1 -23,3.5 -17.8,3.2 -72.1,3.3 -93.5,0.2 -5.8,-0.8 -11.8,-1.7 -13.5,-1.9 -8.5,-1.1 -23.2,-4.6 -32.5,-7.7 -5.8,-1.9 -16.6,-5.3 -24,-7.6 -7.4,-2.4 -14.9,-4.8 -16.5,-5.5 -1.7,-0.8 -4.6,-1.7 -6.5,-2.1 -1.9,-0.4 -5.5,-1.8 -8,-3 -2.5,-1.2 -7,-3 -10,-4 -5,-1.6 -10.2,-4.2 -23.1,-11.4 -23.2,-12.9 -23.8,-13.4 -24.9,-16.6 -2,-6 0.6,-46.7 4.1,-64 1.9,-9.2 5,-25.9 6.9,-36.8 1.1,-6 2.8,-13.9 3.9,-17.5 2.9,-9.8 6.1,-22.8 6.1,-25.4 0.1,-1.3 1.1,-4.3 2.4,-6.7 l 2.2,-4.3 4.1,6.8 c 2.3,3.8 5.4,9.2 7,12 6.8,12.2 12,15.4 18.5,11.2 1.2,-0.8 3.8,-1.8 5.6,-2.1 1.9,-0.4 4.8,-1.3 6.5,-2.1 1.8,-0.8 6.6,-2.8 10.7,-4.4 9.9,-4 20.1,-8.2 22,-9.2 8.2,-4.1 25.8,-13.6 36.1,-19.5 15.5,-8.9 21.5,-13.2 32.8,-23.1 3.5,-3 4,-3.2 15.1,-3.8 12.1,-0.6 14.3,-0.8 17.5,-2.1 12.2,-4.7 20.2,-7.9 21,-8.6 0.6,-0.4 3.3,-1.5 6,-2.4 2.8,-0.9 6,-2.3 7.2,-3.1 5,-3.2 12.9,-24.4 12,-32.2 -1.2,-10.5 -3.3,-16.9 -8.2,-25.2 -6.6,-11.2 -10.4,-13.5 -22,-13.5 -7.3,0 -8.7,0.4 -16.7,4.2 -4.8,2.4 -9.4,4 -10.2,3.7 -0.8,-0.3 -2.7,-2.7 -4.2,-5.2 -1.5,-2.6 -3.4,-5.5 -4.2,-6.5 -0.8,-0.9 -2,-2.5 -2.6,-3.5 -7,-11.8 -24.3,-25.7 -29.4,-23.7 -2,0.7 -1.1,5.4 2.5,14 3.8,8.9 5.8,18.3 7.8,37 0.9,8.2 1.9,15.3 2.1,15.6 0.2,0.3 0.4,4.2 0.5,8.6 0.1,5.7 -0.4,9 -1.5,11.5 -1.8,3.8 -9.9,10 -15.6,12 -1.9,0.6 -6.1,2.7 -9.4,4.6 -8.8,5.2 -31.5,15.2 -34.4,15.2 -0.7,0 -7.3,2 -14.6,4.5 -7.3,2.5 -15.1,4.7 -17.5,5 -4.7,0.4 -3.9,1.6 -9.1,-12.3 -4.9,-13.3 -5.3,-16.5 -2.2,-22 1.4,-2.6 2.9,-4.9 3.3,-5.2 1,-0.7 6.1,-12.1 10.7,-24.2 0.4,-0.9 4.4,-5.5 9,-10.3 8.8,-9 9.7,-11.3 5,-12.9 -2.1,-0.8 -3.2,-0.6 -4.6,0.8 -1.9,1.6 -2,1.5 -2.4,-3.4 -0.4,-3.4 -1.1,-5.5 -2.4,-6.5 -2.2,-1.6 -4.4,-0.3 -4.4,2.6 0,1.7 -0.5,3.8 -4.4,17.8 -1.6,5.9 -4.7,14.1 -7.7,20.7 -1.1,2.2 -1.9,4.4 -1.9,4.8 0,0.9 -5.9,8.7 -7.5,9.9 -1.7,1.3 -13.4,-0.2 -23,-3 -15.3,-4.4 -36.8,-14.9 -37.3,-18.2 -0.5,-3.2 2.3,-10.3 10.3,-26 6,-11.9 18,-31.9 20.5,-34.1 0.3,-0.3 2.7,-3.9 5.5,-8 2.7,-4.1 6,-8.6 7.3,-10 1.3,-1.4 4.3,-5.5 6.7,-9.1 2.4,-3.7 6.7,-8.6 9.5,-11 2.9,-2.4 8.8,-7.4 13.2,-11.2 4.4,-3.7 8.3,-6.7 8.7,-6.7 0.4,0 1.7,-0.9 2.8,-2 2.1,-1.9 2.2,-1.9 7.5,-0.1 2.9,1 9.1,3.2 13.8,4.9 16.4,5.7 42.7,11.9 54,12.7 4.7,0.3 11.4,0.9 15,1.3 7.7,0.8 32.8,0.7 42,-0.1 6.4,-0.6 16.7,-2.2 24.5,-3.7 2.2,-0.5 9.2,-1.7 15.6,-2.9 6.4,-1.1 13,-2.6 14.5,-3.2 1.6,-0.7 4.3,-1.8 6.1,-2.5 1.7,-0.8 3.7,-1.4 4.5,-1.4 1.6,0 11.8,-3 21.8,-6.5 l 6.5,-2.2 6.3,6.1 c 3.5,3.4 9.6,9.9 13.5,14.5 z M 222,729 c 2.1,3.6 4,7.4 4.2,8.5 0.5,3.2 3.9,6.5 6.7,6.5 1.4,0 6.2,-1.8 10.6,-4 11.4,-5.7 17.1,-6.8 23.1,-4.5 7.7,2.9 11.3,7.8 15,20.5 3.2,11.4 2.9,16.2 -1.5,25.3 -2.8,5.8 -3.9,7 -8.8,9.6 -3.1,1.7 -6.5,3.3 -7.7,3.7 -1.1,0.3 -4.1,1.5 -6.5,2.6 -2.5,1.1 -5.2,2.1 -6,2.3 -0.9,0.2 -4.1,1.4 -7.1,2.6 -4.7,1.9 -7.3,2.2 -17.9,2.1 l -12.4,-0.1 -7.1,7.3 c -7.5,7.7 -16.3,14.2 -26.1,19.6 -3.3,1.8 -7.1,4.1 -8.5,5 -2.8,2 -29.7,15.6 -38,19.3 -3,1.3 -7.1,3.1 -9,4 -2,0.9 -9.2,3.7 -16,6.2 -6.9,2.6 -13.1,5.2 -13.9,5.8 -1,0.9 -1.9,0.3 -4.2,-2.3 -1.6,-1.9 -3.6,-5.1 -4.5,-7 -0.9,-1.9 -4.3,-7.9 -7.6,-13.3 C 71.7,836.9 65,823.3 65,820.5 c 0,-1.1 -0.7,-3 -1.5,-4.1 -0.8,-1.2 -1.9,-3.9 -2.4,-6 -0.6,-2.2 -2.5,-9 -4.2,-15.2 -1.8,-6.1 -2.9,-11.5 -2.6,-11.8 0.3,-0.4 5.2,0.8 10.7,2.6 5.6,1.7 13.1,3.5 16.8,3.8 6.4,0.7 6.8,0.8 8.4,4.2 4.3,8.6 9.1,21.1 11,28 1.1,4.1 2.4,8 2.9,8.6 1.3,1.6 14.8,-0.7 25.4,-4.5 5,-1.8 11.7,-4 15,-5 10.2,-3.2 28.7,-10.7 34.3,-14 2.9,-1.7 5.5,-3.1 5.7,-3.1 0.3,0 3.3,-1.3 6.7,-2.9 3.5,-1.6 7,-3.1 7.8,-3.5 0.8,-0.3 2.2,-1 3,-1.5 0.8,-0.4 3.3,-1.8 5.5,-2.9 5.6,-2.8 8.4,-10.9 8,-22.6 -0.2,-4.5 -0.6,-8.8 -0.8,-9.6 -0.3,-0.8 -1,-5.6 -1.6,-10.5 -1.3,-10.1 -3.6,-24.8 -5.1,-31.5 -0.5,-2.5 -0.9,-5.3 -1,-6.3 0,-2.8 10.3,8.6 15,16.3 z m 193,52.5 c 2.6,9.2 7.7,30.8 9,37.7 0.5,2.6 1.3,9.3 1.6,15 0.8,10.4 0.9,80 0.3,102.4 -0.4,11.7 -0.3,12.1 2.2,15.1 1.4,1.7 3.1,4.6 3.8,6.4 0.7,1.9 2.1,5.3 3.1,7.6 8.2,18.2 4.9,52.4 -7.5,77.1 -1,1.8 -1.9,3.1 -2.2,2.8 -0.3,-0.3 -0.8,-7.7 -1,-16.4 l -0.5,-15.9 3.4,-0.9 c 2.7,-0.8 3.4,-1.5 3.6,-4.2 0.2,-1.8 0.2,-3.2 0,-3.3 -1.7,-0.3 -26.4,-1.9 -30,-1.9 -2.5,0.1 -4.9,-0.4 -5.3,-0.9 -0.9,-1.6 -0.6,-32.2 0.3,-33.5 0.5,-0.6 2.7,-5.6 5,-11.1 2.2,-5.5 5.3,-12.7 6.8,-15.9 2.5,-5.4 2.7,-6.8 2.5,-17 -0.1,-6.1 -0.6,-13.8 -1.2,-17.1 -2.7,-15.5 -3.1,-18.3 -3.4,-22 -1.1,-11.8 -1.7,-15.6 -4.1,-26.8 -6.8,-31.8 -13.5,-59.4 -14.9,-61.8 -1.2,-1.8 0.4,-5.5 2.7,-6.6 2.4,-1.2 5.1,-3.3 15.7,-12.4 3.7,-3.1 6.9,-5.4 7.3,-5 0.4,0.3 1.7,4.2 2.8,8.6 z m -32.2,26.3 c 1.7,5.3 4.3,14.9 5.7,21.2 1.4,6.3 3.2,14.2 4,17.5 0.8,3.3 2.2,10.3 3,15.5 0.9,5.2 2,11 2.5,12.8 0.4,1.8 0.7,4.5 0.5,6 -0.2,1.5 0.5,7.2 1.5,12.7 3.3,18 4.1,26.5 3.2,34.6 -0.9,7.4 -1.7,9.8 -7.1,20.8 l -2.6,5.5 -0.7,-5 c -0.9,-6.4 -2.6,-23.8 -3.8,-38.9 -0.6,-6.6 -1.4,-15.4 -1.9,-19.5 -2.6,-21 -4.1,-31.5 -5,-34.3 -1.5,-4.6 -4.9,-19.4 -5.6,-24.7 -0.3,-2.5 -1.9,-9 -3.5,-14.5 -4.6,-16.3 -4.5,-15.2 -0.5,-17.3 6.5,-3.3 6.8,-3 10.3,7.6 z m 26.3,203.2 c 2.5,1.4 2.4,4.4 -0.5,15.5 -2.1,8.4 -5.2,15.2 -6.4,14.1 -0.8,-0.9 0.4,-28.2 1.5,-29.9 0.6,-1 3.1,-0.9 5.4,0.3 z m -353.4,15.5 c 0.4,8.9 2.7,23 5,29.5 2.4,7 2.1,8.4 -2.5,10.6 -6.8,3.2 -12.4,3.1 -19.7,-0.5 -5.9,-2.9 -6.5,-3.5 -8.4,-8.5 -2.7,-7.2 -2.1,-13.4 2,-20.9 3.3,-6.2 8.1,-10 18.4,-14.4 2.7,-1.2 5,-2.2 5,-2.2 0,-0.1 0.1,2.8 0.2,6.4 z m 19,4.1 c 4,1.9 7.6,3.4 7.9,3.4 0.3,0 2.9,1.2 5.8,2.6 5.5,2.8 17.3,7 30.1,10.8 4.4,1.3 10,3 12.5,3.9 2.5,0.9 9.7,3.3 16,5.3 6.3,2 12.4,3.9 13.5,4.4 1.1,0.4 5.2,1.3 9,1.9 3.9,0.7 8.8,1.8 11,2.4 4.1,1.1 8.1,1.7 24.5,3.6 7,0.8 9.6,0.8 9.9,0 0.2,-0.8 0.6,-0.8 1.1,0.1 1.3,2.1 67.7,1.9 74.5,-0.2 1.6,-0.5 4.8,-1.1 6.9,-1.4 3.7,-0.3 13.9,-1.8 32.1,-4.4 3.9,-0.6 7.7,-1.2 8.5,-1.5 0.8,-0.2 3.5,-0.7 6,-1 2.5,-0.3 7,-1.2 10,-2 3,-0.7 8.1,-1.7 11.3,-2 l 5.7,-0.7 0,6.9 c 0,5.7 -0.9,13.1 -2.5,19.8 -0.1,0.5 -0.5,2.8 -1,5 -0.4,2.2 -1.6,7.4 -2.7,11.5 -1,4.1 -2,7.9 -2.1,8.5 -0.1,0.5 -0.8,2.3 -1.4,4 -2.7,7.3 -5.2,17.2 -5.8,23.5 -0.1,1.4 -1,5.9 -2,10 -0.9,4.1 -2.1,11.5 -2.5,16.5 -0.5,4.9 -1.1,10.7 -1.5,12.7 -0.7,3.5 -0.5,4 5.3,10 3.4,3.5 8.2,7.9 10.8,9.8 2.5,1.9 5.6,4.4 6.8,5.5 1.2,1.1 4.3,3.6 6.8,5.5 4.6,3.5 13.7,15.5 12.5,16.6 -0.7,0.8 -8.9,-4 -11.2,-6.6 -1,-1.1 -2.6,-2 -3.6,-2 -1,0 -2.1,-0.5 -2.4,-1 -0.3,-0.6 -2.6,-1 -5,-1 -8.1,0 -7.5,3.9 2.1,14.3 4.2,4.5 6.5,8.7 8.3,15.2 1.3,4.9 1.4,5.5 0.2,5.5 -0.9,0 -8.1,-5.6 -12.6,-9.8 -4.4,-4.1 -13.3,-9.1 -17.2,-9.8 -3.9,-0.6 -4.3,-0.4 -5.4,1.9 -1.6,3.4 -0.6,6.8 3.2,10.8 3,3.2 9.3,14.8 8.5,15.6 -0.2,0.2 -2.7,-1.3 -5.5,-3.4 -2.8,-2.1 -9.9,-6.3 -15.8,-9.3 -6,-3 -13.9,-7.3 -17.8,-9.5 -7.3,-4.2 -20,-16.2 -21,-19.8 -0.4,-1.2 -1.8,-4.6 -3.2,-7.5 -3.7,-7.6 -3.5,-12.4 0.8,-19.2 1.9,-3 5,-10.2 6.9,-16 3.2,-9.8 3.4,-11.4 3.4,-23.5 0,-7.2 -0.6,-16.2 -1.2,-20 -1.7,-9.7 -2,-13.2 -1.3,-14.3 0.3,-0.5 3.1,-1.4 6.1,-2.1 3,-0.6 7.2,-1.6 9.2,-2 4.8,-1.1 6.8,-2.7 6.8,-5.7 0,-2.1 -0.5,-2.4 -3.4,-2.4 -4.3,0 -9.8,1.8 -11.3,3.8 -0.8,0.9 -1.3,1.1 -1.3,0.4 0,-0.8 -0.7,-0.9 -2.7,-0.1 -5.9,2.2 -39.5,5.1 -59.8,5 -19.3,0 -46.7,-3.4 -67,-8.2 -4.5,-1 -9.6,-1.9 -11.6,-1.9 -1.9,0 -8.2,-1.6 -14,-3.5 -12.2,-4.2 -17.4,-4.3 -17.4,-0.6 0,2.6 0.1,2.7 9,6.5 l 6,2.5 0,14.8 c 0.1,16.5 1.7,25.8 8.1,46.9 5.4,17.7 5.9,20.6 4.9,27.1 -0.6,4.3 -1.5,5.6 -8.4,12.3 -9.2,8.9 -18.3,14.6 -37.1,22.9 -1.4,0.6 -4.5,2.3 -7,3.7 -16.1,9.2 -33.4,17.3 -34.6,16.1 -1,-1 5.1,-6.9 9.5,-9.2 6.8,-3.5 15.1,-11.5 15.1,-14.7 0,-1.9 -0.6,-2.7 -2.5,-3.2 -4.3,-1.1 -26.3,4.8 -31.6,8.5 -1.4,1 -4.4,2.4 -6.7,3.1 -2.3,0.7 -4.2,1.7 -4.2,2.1 0,0.5 -0.4,0.5 -1,0.2 -1.6,-1 3,-6.3 10.2,-11.6 7.4,-5.5 12.8,-11.2 12.8,-13.4 0,-1.9 -3.1,-3.5 -6.7,-3.5 -2.9,0 -13.1,2.1 -19.6,4 -2.2,0.6 -4.1,0.9 -4.5,0.6 -1,-1.1 2.2,-5.8 5,-7.2 1.5,-0.8 3.3,-2.2 4,-3.1 1.3,-1.8 24,-13.4 31.1,-15.9 2.2,-0.8 5.5,-1.4 7.3,-1.4 2.7,0 3.4,-0.4 3.4,-1.9 0,-1.1 -0.4,-2.2 -0.8,-2.5 -0.5,-0.3 -0.5,-3.1 -0.2,-6.3 0.9,-7.3 -0.2,-33.2 -1.5,-35.2 -0.1,-0.3 -0.6,-2.4 -0.9,-4.6 -1,-6.3 -3.6,-16.8 -4.6,-18.7 -0.6,-1 -1,-2.4 -1,-3.2 0,-0.8 -0.6,-2.1 -1.3,-2.8 -0.7,-0.7 -1.6,-2.2 -1.9,-3.3 -0.3,-1.1 -2.5,-7.2 -4.8,-13.5 -2.3,-6.3 -5.6,-15.6 -7.3,-20.5 -1.7,-5 -3.4,-9.2 -3.7,-9.5 -0.3,-0.3 -0.6,-1.2 -0.7,-2 -0.2,-0.8 -1.3,-6 -2.6,-11.5 -2.6,-10.9 -3.9,-19.9 -3,-22.1 0.4,-1.1 0.8,-1.1 2.1,0.2 0.9,0.9 4.9,3.2 8.9,5 z"
         id="path28"
         inkscape:connector-curvature="0"
         style="fill:#000000;stroke:none" />
      <path
         d="m 301.9,481.2 c -7.7,4.7 -10.8,13.9 -7.3,21.4 2.8,6 7,3.1 5.5,-3.8 -0.5,-2.2 -0.4,-4.3 0.3,-5.7 1.6,-2.8 7,-6.1 10.1,-6.1 2.6,0 7.5,-1.9 7.5,-3 0,-0.3 -0.6,-1.4 -1.3,-2.4 -2.2,-3 -10.3,-3.2 -14.8,-0.4 z"
         id="path30"
         inkscape:connector-curvature="0"
         style="fill:#000000;stroke:none" />
      <path
         d="m 254.2,353.1 c -7.7,4.5 -10.2,9.4 -10.9,21.2 -0.7,10.7 0.9,15.7 5,15.7 2.2,0 2.3,-0.3 2.2,-10.3 0,-11.8 1.2,-14.8 7.5,-18.5 5.7,-3.3 9.2,-2.9 12.9,1.3 1.7,2 3.1,4.1 3.1,4.8 0,6.6 5.2,12.3 8.4,9.2 1.1,-1.2 1.2,-2.3 0.4,-5.2 -3.6,-13 -12,-21.2 -21.8,-21.3 -0.8,0 -3.9,1.4 -6.8,3.1 z"
         id="path32"
         inkscape:connector-curvature="0"
         style="fill:#000000;stroke:none" />
    </g>
    <path
       style="fill:#ffeeaa"
       d="m 342.90164,414.03477 c -18.42739,-1.23968 -36.99649,-5.01021 -58.26457,-11.83087 -12.4012,-3.97706 -23.41137,-8.04736 -24.46705,-9.04513 -2.9603,-2.79789 2.30955,-24.9002 10.26304,-43.04433 17.69862,-40.37547 53.42663,-92.45083 82.92486,-120.86711 l 7.83149,-7.54425 0.0961,21.87074 c 0.11097,25.25731 4.3391,41.36697 16.73338,63.75606 l 7.56117,13.65853 -8.61942,16.60333 c -9.75863,18.79776 -19.93419,47.8165 -22.03673,62.84454 -1.8774,13.41892 -2.59674,14.23257 -12.02226,13.59849 z"
       id="path3337"
       inkscape:connector-curvature="0" />
    <path
       style="fill:#fff6d5"
       d="m 364.11484,404.58781 c 0,-14.11919 6.69873,-33.87553 21.49466,-63.39355 5.85607,-11.68293 10.08152,-22.22473 9.38989,-23.42624 -0.69163,-1.2015 -3.86593,-5.88037 -7.054,-10.39747 -15.99517,-22.66321 -21.40826,-63.07209 -12.03584,-89.84801 3.99453,-11.41193 5.9551,-14.11695 14.41693,-19.89127 10.51871,-7.17792 14.94824,-7.21618 21.31221,-0.18407 11.27697,12.46091 21.4581,-4.04988 14.04956,-22.78425 -1.13254,-2.86393 1.0526,-4.67795 11.44488,-9.50111 7.06457,-3.27874 17.75495,-6.59415 23.75639,-7.36758 11.87503,-1.53039 11.82977,-1.65889 3.46263,9.83232 -6.61526,9.08523 -2.21354,11.39415 24.65214,12.93129 26.71348,1.52844 25.69818,0.33538 25.50435,29.96973 -0.10318,15.77486 -0.97236,20.18932 -6.56345,33.33504 -9.39115,22.08035 -19.02003,37.26004 -24.10663,38.0035 -3.03806,0.44404 -8.7933,-3.64448 -19.65877,-13.96562 -9.95521,-9.45648 -16.05492,-13.90169 -17.3284,-12.62822 -3.15788,3.15789 1.40699,22.31941 9.27013,38.91229 l 7.09248,14.96662 -4.27618,4.55178 c -4.01264,4.27126 -4.13919,5.43467 -2.05341,18.87784 2.27593,14.66874 8.5099,33.33995 16.09714,48.21219 2.34871,4.60383 4.27038,9.12264 4.27038,10.04178 0,2.48942 -36.54177,13.97377 -59.3575,18.65489 -10.97885,2.25254 -27.5706,4.6804 -36.87056,5.39525 l -16.90903,1.29972 0,-11.59685 z m 72.73099,-145.91888 c 0,-6.1426 5.12482,-12.77099 9.90957,-12.81692 1.77232,-0.017 4.52765,-0.85687 6.12296,-1.86633 2.40384,-1.52109 2.44797,-2.38071 0.2577,-5.01983 -7.09483,-8.54874 -24.37146,2.4506 -24.37146,15.51634 0,7.45279 1.19781,9.5835 5.38749,9.5835 1.5725,0 2.69374,-2.24633 2.69374,-5.39676 z"
       id="path3339"
       inkscape:connector-curvature="0" />
    <path
       style="fill:#ffeeaa"
       d="m 364.11484,405.99032 c 0,-13.47 5.85672,-31.81002 19.28356,-60.38551 6.06156,-12.90043 11.02102,-24.76606 11.02102,-26.36806 0,-1.602 -2.28613,-5.90999 -5.08028,-9.57331 -23.11949,-30.31122 -23.52873,-93.63529 -0.71565,-110.73724 10.67963,-8.00604 14.57243,-8.44557 21.69791,-2.44987 7.46323,6.27989 12.17325,5.84585 16.2974,-1.50183 2.51731,-4.48491 2.63332,-6.9288 0.67067,-14.12784 -2.04852,-7.514 -1.91919,-9.05014 0.94536,-11.22883 4.74823,-3.61138 23.41454,-10.34296 32.87557,-11.85584 9.45756,-1.51232 10.24512,0.58626 3.68003,9.80607 -4.11917,5.78484 -4.17086,6.30465 -0.8672,8.72034 1.93219,1.41285 12.31283,3.21299 23.06809,4.00031 10.75527,0.78731 21.05868,2.21628 22.89647,3.17549 4.61943,2.41103 6.23557,17.52509 3.95498,36.98674 -1.46993,12.54374 -3.83502,19.93631 -10.98796,34.34518 -5.01317,10.09852 -11.37518,20.48439 -14.1378,23.07972 -6.26772,5.88819 -8.88594,4.70566 -27.10203,-12.24072 -7.15927,-6.66025 -13.77277,-11.32901 -14.69666,-10.37502 -2.82088,2.91277 2.01641,23.11453 9.32658,38.95017 l 6.92085,14.9923 -4.27695,4.5526 c -4.06925,4.33152 -4.15623,5.26829 -1.79104,19.2907 2.5349,15.02859 8.94031,34.1368 16.2393,48.44399 2.23723,4.38532 3.54473,8.81948 2.90555,9.8537 -3.55358,5.7498 -65.5338,20.97414 -95.46025,23.44808 l -16.66752,1.37787 0,-10.17919 z m 72.73099,-146.52586 c 0,-6.02612 5.38411,-13.57332 9.711,-13.61245 1.88154,-0.017 4.78468,-0.89328 6.45144,-1.94725 2.66794,-1.68707 2.63424,-2.31263 -0.28174,-5.2294 -7.09483,-7.09678 -23.96193,3.02961 -23.96193,14.38587 0,6.71656 2.05226,11.00446 5.26692,11.00446 1.58174,0 2.81431,-2.01518 2.81431,-4.60123 z"
       id="path3341"
       inkscape:connector-curvature="0" />
    <path
       style="fill:#d4aa00"
       d="m 319.33338,410.40333 c -16.91736,-3.06115 -53.69233,-14.22385 -57.78808,-17.54104 -5.09757,-4.12857 4.03768,-33.90966 19.26984,-62.82006 17.30789,-32.85008 51.49691,-80.48273 71.72439,-99.92747 l 6.94559,-6.67682 1.41314,22.33263 c 1.64485,25.99446 4.6986,37.53968 15.73561,59.4912 l 8.03096,15.97279 -10.05078,21.41812 c -10.56092,22.50523 -17.51713,42.22673 -19.66894,55.7633 -2.38489,15.00279 -2.51336,15.16754 -11.67454,14.97099 -4.64758,-0.0997 -15.41932,-1.44235 -23.93719,-2.98364 z"
       id="path3343"
       inkscape:connector-curvature="0" />
    <path
       style="fill:#d4aa00"
       d="m 484.32299,1017.2954 c -3.3335,-2.108 -12.11449,-7.053 -19.51331,-10.9889 -18.77343,-9.98679 -28.65322,-19.05471 -33.8027,-31.02497 l -4.39172,-10.20885 6.6305,-14.62777 c 6.46617,-14.2652 6.6321,-15.32847 6.69404,-42.89661 0.0596,-26.52499 0.30887,-28.30907 4.04061,-28.921 10.92478,-1.79143 17.10908,-4.90969 17.10908,-8.62676 0,-4.65722 -3.96071,-4.90923 -15.25993,-0.97094 -13.52726,4.71485 -59.94217,7.523 -86.05632,5.20649 -22.7896,-2.02159 -54.68337,-7.5371 -77.04855,-13.3243 -6.42929,-1.66364 -12.56597,-2.48318 -13.63706,-1.82122 -4.13492,2.55553 -1.61997,6.71833 5.86924,9.71492 l 7.81668,3.12761 1.12227,21.84049 c 0.77269,15.03749 2.74298,27.15719 6.32546,38.90932 7.92622,26.00161 7.37909,30.0572 -5.64218,41.82237 -10.38772,9.38568 -68.40656,41.32732 -70.77143,38.96242 -0.56459,-0.5646 3.24931,-4.1867 8.47533,-8.0492 11.58096,-8.55933 13.89723,-16.06328 4.9583,-16.06328 -6.81187,0 -26.90817,5.5921 -29.70061,8.26464 -1.05561,1.01029 -3.27431,1.83688 -4.93045,1.83688 -1.65614,0 1.93496,-4.53209 7.9802,-10.07129 10.63016,-9.74032 10.86049,-10.17335 7.00873,-13.17657 -2.19046,-1.70789 -5.02892,-2.70377 -6.3077,-2.21306 -1.27878,0.49072 -6.75969,1.47127 -12.1798,2.17899 l -9.85474,1.28679 6.05356,-5.13256 c 7.30238,-6.19137 29.85582,-17.52756 38.33483,-19.2685 l 6.11923,-1.25642 -0.38188,-23.14578 c -0.43835,-26.56767 -3.06691,-37.70692 -18.57207,-78.70418 -8.17103,-21.60505 -17.74925,-56.56854 -15.49691,-56.56854 0.23047,0 8.53077,3.49926 18.44511,7.77612 21.59325,9.31495 76.32889,26.86848 98.83826,31.6971 11.40823,2.44724 29.23653,3.73321 60.60915,4.3718 45.13431,0.9187 61.10951,-0.69314 129.11019,-13.02677 l 5.87157,-1.06496 -1.30706,14.06344 c -0.71888,7.73489 -3.99699,23.54155 -7.28467,35.12591 -5.60467,19.74842 -10.27115,42.67088 -13.24716,65.07214 -1.44747,10.89558 -1.55606,10.75079 25.80402,34.40761 14.48308,12.52275 18.01771,18.59531 6.7817,11.65106 -8.58696,-5.30703 -17.43921,-5.62433 -17.43921,-0.62508 0,1.96916 2.7125,6.87104 6.0278,10.89307 5.48547,6.65484 11.07095,17.59384 9.68609,18.96994 -0.30888,0.3069 -5.86903,-3.4557 -12.35586,-8.3614 -19.93181,-15.07353 -30.80068,-10.49203 -18.2102,7.676 2.94299,4.2468 4.98855,8.0353 4.54568,8.419 -0.44285,0.3837 -3.5326,-1.0271 -6.86611,-3.1352 z"
       id="path3345"
       inkscape:connector-curvature="0" />
    <path
       style="fill:#d4aa00"
       d="m 169.1554,831.45881 c -6.50377,-3.55729 -9.09137,-8.05045 -9.09137,-15.78644 0,-10.83253 7.29799,-19.9127 20.67572,-25.72475 l 5.58824,-2.42786 0.0316,8.48877 c 0.0174,4.66882 1.31218,13.93344 2.87739,20.58803 1.99932,8.50027 2.21683,12.85716 0.73122,14.64721 -2.58112,3.11006 -15.27993,3.24127 -20.81276,0.21504 z"
       id="path3347"
       inkscape:connector-curvature="0" />
    <path
       style="fill:#d4aa00"
       d="m 217.43142,622.47581 c -10.81488,-16.9064 -22.50131,-42.37981 -27.13987,-59.158 -2.26643,-8.19792 -3.8017,-15.2244 -3.4117,-15.61439 0.38999,-0.38999 5.6529,0.5876 11.69536,2.17242 6.04246,1.58482 13.36927,3.37167 16.28179,3.97079 5.60461,1.15288 11.17556,11.44722 17.23257,31.84341 2.43806,8.20984 3.6544,9.70568 7.89213,9.70568 15.01611,0 98.83008,-33.62114 106.45547,-42.70356 4.49146,-5.34967 4.69225,-23.90387 0.53266,-49.22032 -3.99687,-24.32612 -3.97766,-26.51178 0.20254,-23.04252 1.79332,1.48832 6.01577,7.58796 9.38322,13.55476 3.36745,5.96679 7.35426,11.32133 8.85958,11.89897 1.50532,0.57765 8.67956,-1.32873 15.94276,-4.23638 14.51346,-5.81014 20.34552,-5.47495 26.94375,1.54855 4.74255,5.04821 10.3614,19.62221 10.3614,26.87508 0,8.19692 -7.36292,20.07845 -14.54644,23.47354 -18.39423,8.69355 -28.59308,11.54731 -41.26805,11.54731 -13.03306,0 -13.41487,0.15719 -24.6036,10.12954 -12.65553,11.2797 -28.41894,21.06854 -56.83779,35.29542 -15.75896,7.88916 -52.69148,23.26541 -55.88165,23.26541 -0.47407,0 -4.11643,-5.08757 -8.09413,-11.30571 z"
       id="path3349"
       inkscape:connector-curvature="0" />
    <path
       style="fill:#d4aa00"
       d="m 564.15598,795.117 c -0.0238,-11.88226 0.66754,-15.70924 2.99952,-16.60412 1.66676,-0.63958 3.03046,-3.00969 3.03046,-5.26691 0,-3.60118 -1.29954,-4.10674 -10.6066,-4.12625 -5.83363,-0.0121 -14.01587,-0.58575 -18.18275,-1.27449 l -7.57614,-1.25225 0,-14.53957 c 0,-12.51057 1.12772,-17.13964 8.08122,-33.17173 5.20615,-12.00339 8.07732,-21.65099 8.07027,-27.11743 -0.0189,-14.67237 -7.93305,-63.79595 -15.52559,-96.36853 -4.01463,-17.2231 -7.68594,-33.17129 -8.15846,-35.44042 -0.65025,-3.12262 2.09272,-6.44481 11.2819,-13.66424 6.67758,-5.2462 12.64532,-8.7226 13.26166,-7.72535 0.61634,0.99726 3.56351,11.23729 6.54928,22.75561 5.24057,20.21681 5.45626,23.21739 6.22523,86.60234 l 0.79656,65.65991 6.42725,13.09181 c 5.82113,11.85722 6.41709,14.81028 6.31962,31.31474 -0.0758,12.83259 -1.41428,22.40613 -4.52501,32.36504 -6.77384,21.68624 -8.43264,22.619 -8.46842,4.76184 z"
       id="path3351"
       inkscape:connector-curvature="0" />
    <path
       style="fill:#d4aa00"
       d="m 283.86816,288.26875 c -12.29956,-4.94913 -5.21667,-23.93646 13.0229,-34.91089 15.85537,-9.53991 33.07694,-18.05153 34.21699,-16.91148 0.51515,0.51515 -4.97205,8.25529 -12.19378,17.20033 -7.22172,8.94503 -14.20865,18.3579 -15.5265,20.91748 -2.67267,5.19096 -12.13307,15.83605 -13.89712,15.63741 -0.62549,-0.0704 -3.15561,-0.94022 -5.62249,-1.93285 z"
       id="path3353"
       inkscape:connector-curvature="0" />
    <path
       style="fill:#ffff00"
       d=""
       id="path3355"
       inkscape:connector-curvature="0" />
    <path
       style="fill:#ffff00"
       d="m 286.21081,105.52398 c 0.0485,-1.17677 0.28784,-1.41613 0.6103,-0.6103 0.29181,0.7292 0.25592,1.60046 -0.0797,1.93612 -0.33567,0.33567 -0.57442,-0.26095 -0.53056,-1.32582 z"
       id="path3357"
       inkscape:connector-curvature="0" />
    <path
       style="fill:#ffff00"
       d="m 281.65751,106.44201 c -0.44094,-1.14904 -0.0535,-2.25407 1.08129,-3.08383 2.09154,-1.52937 3.74143,-0.30911 3.22286,2.38362 -0.47706,2.47715 -3.43747,2.95876 -4.30415,0.70021 z"
       id="path3359"
       inkscape:connector-curvature="0" />
    <path
       style="fill:#ffff00"
       d="m 299.94286,162.42924 c -0.75219,-1.80565 -2.1737,-5.71517 -3.15892,-8.68783 -1.74226,-5.25682 -1.73753,-5.47812 0.17274,-8.08122 1.88345,-2.56655 9.61841,-19.03566 12.40619,-26.41497 0.73461,-1.94455 1.68735,-3.93735 2.11718,-4.42845 0.42984,-0.4911 3.10589,1.32717 5.94679,4.04061 l 5.16527,4.93352 -1.42927,4.04061 c -4.00228,11.31463 -17.64372,37.88072 -19.45141,37.88072 -0.22053,0 -1.01639,-1.47734 -1.76857,-3.28299 z"
       id="path3361"
       inkscape:connector-curvature="0" />
    <path
       style="fill:#ffff00"
       d="m 313.02819,229.60438 c -0.28222,-0.97227 -0.81841,-4.37042 -1.19153,-7.55145 l -0.6784,-5.78369 7.1453,-9.93894 c 11.82566,-16.4492 19.7254,-30.96368 26.91772,-49.4569 1.56655,-4.02798 3.19021,-7.32361 3.60812,-7.32361 0.91735,0 11.24175,8.00394 12.29002,9.52777 1.60037,2.3264 0.56981,6.36992 -4.36834,17.13977 -10.38064,22.63967 -24.77467,42.58168 -37.68908,52.21585 -4.58408,3.41973 -5.33861,3.56619 -6.03381,1.1712 z"
       id="path3363"
       inkscape:connector-curvature="0" />
    <path
       style="fill:#87cdde"
       d="m 289.3315,130.23093 -2.0572,-4.15796 2.34391,-5.18165 c 6.67205,-14.74979 8.2166,-17.74455 9.16754,-17.77515 0.57085,-0.0184 2.02158,0.65559 3.22384,1.49768 2.12672,1.48962 2.14396,1.67427 0.63663,6.81853 -1.85875,6.34365 -8.7598,21.41283 -10.21924,22.31481 -0.57106,0.35293 -1.96403,-1.22938 -3.09548,-3.51626 z"
       id="path3365"
       inkscape:connector-curvature="0" />
    <path
       style="fill:#87cdde"
       d="m 307.36721,195.76427 c -3.01174,-13.83326 -3.46204,-12.03027 9.71162,-38.88548 6.59104,-13.4362 12.47061,-24.44569 13.06569,-24.46552 0.59509,-0.0198 3.2614,2.05219 5.92515,4.60451 4.33787,4.15641 4.78582,4.99405 4.29339,8.0285 -2.00487,12.35456 -25.87002,56.02129 -30.61728,56.02129 -0.67317,0 -1.74353,-2.38648 -2.37857,-5.3033 z"
       id="path3367"
       inkscape:connector-curvature="0" />
    <path
       style="fill:#87cdde"
       d="m 344.71991,215.95193 c 0,-0.26625 2.529,-4.69908 5.62001,-9.85074 7.12808,-11.88012 14.97708,-27.49154 16.68047,-33.17697 0.72371,-2.41551 1.88463,-4.6101 2.57984,-4.87687 0.6952,-0.26678 4.81814,2.39431 9.16208,5.91352 4.34394,3.51922 9.03019,7.14389 10.41388,8.05483 l 2.51582,1.65626 -2.94941,2.38435 c -20.96499,16.94848 -44.02269,32.60686 -44.02269,29.89562 z"
       id="path3369"
       inkscape:connector-curvature="0" />
    <path
       style="fill:#ff0000"
       d="M 255.66612,90.169215 C 247.3848,81.54295 241.98382,71.43217 242.83972,66.15785 c 0.84107,-5.182892 4.23657,-11.751939 8.1657,-15.797638 2.46339,-2.536476 5.38357,-4.068962 10.82904,-5.683 8.77125,-2.599801 11.11628,-2.713375 14.96207,-0.724641 9.83875,5.087815 15.81403,26.857088 10.32504,37.6164 -4.19853,8.229803 -14.29281,15.45289 -21.59545,15.45289 -2.73274,0 -4.38127,-1.14572 -9.86,-6.852646 z"
       id="path3373"
       inkscape:connector-curvature="0" />
  </g>
</svg>
