<?xml version="1.0" encoding="UTF-8" standalone="no"?>
<!-- Created with Inkscape (http://www.inkscape.org/) -->

<svg
   xmlns:dc="http://purl.org/dc/elements/1.1/"
   xmlns:cc="http://creativecommons.org/ns#"
   xmlns:rdf="http://www.w3.org/1999/02/22-rdf-syntax-ns#"
   xmlns:svg="http://www.w3.org/2000/svg"
   xmlns="http://www.w3.org/2000/svg"
   xmlns:sodipodi="http://sodipodi.sourceforge.net/DTD/sodipodi-0.dtd"
   xmlns:inkscape="http://www.inkscape.org/namespaces/inkscape"
   width="210mm"
   height="297mm"
   viewBox="0 0 744.09448819 1052.3622047"
   id="svg4852"
   version="1.1"
   inkscape:version="0.91 r13725"
   sodipodi:docname="gopher-info-left.svg">
  <defs
     id="defs4854" />
  <sodipodi:namedview
     id="base"
     pagecolor="#ffffff"
     bordercolor="#666666"
     borderopacity="1.0"
     inkscape:pageopacity="0.0"
     inkscape:pageshadow="2"
     inkscape:zoom="0.49497475"
     inkscape:cx="-105"
     inkscape:cy="728.06825"
     inkscape:document-units="px"
     inkscape:current-layer="layer1"
     showgrid="false"
     inkscape:window-width="1366"
     inkscape:window-height="705"
     inkscape:window-x="-8"
     inkscape:window-y="-8"
     inkscape:window-maximized="1" />
  <metadata
     id="metadata4857">
    <rdf:RDF>
      <cc:Work
         rdf:about="">
        <dc:format>image/svg+xml</dc:format>
        <dc:type
           rdf:resource="http://purl.org/dc/dcmitype/StillImage" />
        <dc:title></dc:title>
      </cc:Work>
    </rdf:RDF>
  </metadata>
  <g
     inkscape:label="Layer 1"
     inkscape:groupmode="layer"
     id="layer1">
    <g
       transform="matrix(1.1709007,0,0,1.1677799,-534.49663,-434.38328)"
       id="g4833">
      <path
         d="m 800.5,392.9 c -0.3,0.6 -3.3,1.1 -6.5,1.1 -6.7,0 -33.4,5.2 -37.7,7.3 -1.5,0.7 -4.8,1.9 -7.3,2.6 -2.5,0.7 -6.7,2.2 -9.4,3.2 -2.7,1 -5.3,1.9 -5.8,1.9 -2.5,0 -19.8,9.2 -21.6,11.4 -1.1,1.5 -2.6,2.6 -3.3,2.6 -2.6,0 -15.4,6.9 -16.7,8.9 -0.7,1.2 -1.8,2.1 -2.5,2.1 -0.7,0 -3.9,2 -7.2,4.5 -3.3,2.5 -6.4,4.5 -6.8,4.5 -0.4,0 -3.6,-2.2 -7.1,-4.9 -6.3,-4.9 -12.4,-8.1 -15.3,-8.1 -0.8,0 -2.8,0.9 -4.4,2.1 -4,2.8 -3.7,5.5 1.5,16.9 3.3,7.1 4.1,10 3.4,11.3 -0.5,1 -4.7,5.6 -9.4,10.2 -11.4,11.5 -21.6,27.2 -26.8,41.5 -1.3,3.5 -3.1,5.7 -8.4,9.7 -9.4,7.4 -23.2,21.5 -23.2,23.8 0,1.8 5.5,5.9 10,7.4 2.3,0.8 6.6,1 12.5,0.5 l 9,-0.6 5.7,6.5 c 5.2,5.8 7.1,7.2 19,13 13.8,6.8 16.8,7.8 30.3,10.2 22.3,4 33.3,4.6 46.5,2.6 4.1,-0.6 9.6,-1.4 12.2,-1.7 l 4.7,-0.7 1.5,5.4 c 4.3,15.1 4.8,34.1 1.1,43.9 -0.9,2.5 -1.9,5.6 -2.2,7 -0.7,3 -2,4 -5.2,4 -3.4,0 -14.9,6.3 -27.5,15.2 -15.8,11.2 -28.4,22.5 -33.9,30.5 -2.5,3.7 -4,4 -8.8,1.6 -4.8,-2.4 -14.1,-2.2 -20.3,0.6 -3.3,1.4 -5.2,1.8 -6,1.2 -0.7,-0.6 -2.1,-0.8 -3.2,-0.6 -2.2,0.6 -4.1,-0.8 -7.2,-5.2 -1.9,-2.7 -2,-3.6 -1.1,-6 3.5,-8.9 0,-42.1 -5.5,-52.8 -0.9,-1.7 -1.6,-3.7 -1.6,-4.6 0,-1.5 -2.3,-6.3 -9.8,-20.4 -1.5,-2.8 -2.9,-5.2 -3.3,-5.5 -0.3,-0.3 -3.2,-4.1 -6.4,-8.5 C 584.3,572 565,552 561.2,552 c -0.5,0 -3.3,-1.7 -6.3,-3.9 -3,-2.1 -8.3,-5.3 -11.9,-7.2 -6.2,-3.2 -6.9,-3.3 -16.8,-3.2 -8.5,0.1 -11.1,0.6 -15.5,2.6 -2.8,1.4 -7.4,3.4 -10.2,4.5 -3.8,1.5 -5.8,3.1 -8.3,6.8 -5.3,8.1 -6.4,15.4 -4.2,30.7 1.4,9.7 2.3,13 7,25.2 2.1,5.3 7.9,16.6 11.7,22.5 2.4,3.6 4.3,6.8 4.3,7.2 0,1.1 6.8,11.6 8,12.3 0.6,0.4 2.4,2.7 3.9,5.2 3.8,6.1 13.7,16 22.9,22.9 4.2,3.1 9.4,7 11.4,8.6 5.6,4.3 17.5,9.6 24.8,11 6.3,1.2 6.9,1.6 12.7,8 3.3,3.7 6.4,8 6.8,9.5 0.3,1.5 1.5,3.9 2.6,5.4 1,1.5 2.6,5.1 3.5,8.1 0.9,2.9 2.5,8.1 3.6,11.6 1.1,3.5 2.6,9.1 3.3,12.5 7.3,33.1 11.6,51.4 17.7,73.2 3,11.2 6.5,21.5 10.6,31.5 1.9,4.8 7.2,15.5 8.5,17.2 0.7,0.9 2.6,2 4.1,2.4 2,0.5 2.5,1.1 2.1,2.3 -0.4,0.9 -1.4,3.8 -2.2,6.6 -0.8,2.7 -2.4,7.7 -3.4,11 -3.2,10.3 -7.9,35.9 -8.9,49.2 -0.6,7.1 -1.5,15.9 -2.1,19.8 -1.7,11 -2.1,36.9 -0.7,46.5 0.7,4.7 1.2,9.3 1,10.2 -0.1,1.2 0.3,1.5 1.3,1.2 0.9,-0.4 1.5,-0.1 1.5,0.7 0,2.1 5.2,6.9 7.4,6.9 1.2,0 3.6,0.9 5.4,2 3.5,2.2 3.5,2.3 3.2,19.5 -0.1,7.1 2.1,27.7 3.9,35.6 0.5,2.4 1.5,8.2 2.1,12.9 0.7,4.7 2.1,10.4 3.1,12.8 1,2.3 1.6,4.9 1.3,5.7 -0.3,0.7 0.4,5 1.5,9.4 1.2,4.4 2.1,8.9 2.1,10 0,1.1 0.7,4.2 1.6,6.8 0.9,2.6 1.7,8 1.8,12 l 0.1,7.4 -8.5,7.9 c -4.7,4.4 -9.8,8.6 -11.5,9.4 -1.6,0.8 -4.1,2.5 -5.5,3.8 -1.4,1.3 -4.5,3.6 -7,5.2 -6.2,3.9 -17.7,16.1 -20.6,21.8 -3.2,6.4 -3.2,11.2 0.1,13.4 3.4,2.2 8.2,1.4 19.5,-3.6 5,-2.2 9.8,-4 10.6,-4 0.8,0 -0.9,2.3 -3.9,5.3 -14.2,13.7 -17.9,27.7 -7.5,27.7 2.6,0 19.3,-7.2 20.8,-8.9 1.2,-1.4 11.2,-6.2 11.7,-5.7 0.4,0.3 -0.5,1.9 -1.9,3.4 -8.9,9.5 -7.3,20.2 3.1,20.2 3.4,0 5.5,-0.9 10.4,-4.2 3.4,-2.4 6.8,-5 7.7,-5.8 0.9,-0.9 4.9,-4.3 9,-7.5 16.5,-13.4 17.7,-14.2 34,-22.7 14.6,-7.6 20.3,-12.4 24.9,-20.8 3.3,-6.3 3.3,-8.1 -0.5,-15.2 -6,-11.5 -7.6,-17.2 -10,-35.3 -0.2,-1.7 -0.6,-4.5 -1,-6.4 -1.2,-7.3 3.3,-30.3 6.3,-32 0.9,-0.5 4.4,-0.3 8.5,0.5 3.9,0.7 10,1.4 13.6,1.5 3.6,0.1 8.1,0.5 9.8,0.9 1.8,0.4 5.1,0.4 7.3,0 2.2,-0.4 3.8,-0.4 3.6,0 -0.7,1.1 13.5,1.9 27.5,1.5 32.4,-1 46.9,-1.7 51.9,-2.7 4.1,-0.8 5.5,-0.7 6.1,0.3 1.3,2 3.9,18.5 4.5,28.4 0.4,5.9 0.1,12.4 -0.9,19 -0.8,5.5 -1.8,15.6 -2.1,22.5 -0.4,6.9 -1.3,14.4 -2.1,16.8 -0.8,2.3 -1.4,5.1 -1.4,6.1 0,1 3.3,5 7.3,9 9.1,9 23.5,16.8 33.7,18.4 1.4,0.2 3.2,0.7 4,1 0.8,0.3 6,1.6 11.5,2.8 13.9,3 21.8,5.7 29.7,10 1,0.5 2.6,0.9 3.7,0.9 1.1,0 2.1,0.3 2.3,0.7 0.5,1.2 10.8,6 17.1,7.9 6.5,2.1 8.6,1.5 10.1,-2.9 1.4,-4 -1.8,-9 -10.2,-15.9 -4,-3.3 -7.1,-6.2 -6.8,-6.5 0.2,-0.2 4.6,0.9 9.7,2.6 10.4,3.5 16.7,3.9 21,1.4 4.6,-2.7 4,-6.5 -1.9,-12.2 -7.8,-7.5 -13.5,-12.2 -17.4,-14.2 -4,-2.1 -6.5,-4.8 -3.2,-3.5 1,0.4 6.6,1.4 12.4,2.3 11,1.6 16.1,1.1 20.4,-2.2 2.3,-1.7 1.6,-5.5 -1.7,-8.6 -3.7,-3.5 -25.3,-13.4 -39.2,-17.9 -15,-5 -21,-7.8 -24.4,-11.4 -3.8,-4.1 -3.4,-12.7 1.4,-30.1 0.8,-2.8 1.9,-7 2.5,-9.5 3.6,-16.4 6.7,-27.2 8.2,-28.5 0.7,-0.6 4.1,-1.9 7.6,-2.9 3.5,-0.9 8.8,-3 11.8,-4.7 4.8,-2.7 6,-4.1 9,-10 1.9,-3.8 3.4,-7 3.3,-7.1 -0.1,-0.2 0.6,-2 1.5,-4.2 4.5,-10.8 -0.3,-23.3 -11.9,-31 -5.3,-3.5 -5.7,-4 -4,-5 5.7,-3.3 6.5,-5.1 6.6,-14.3 0.1,-13.5 -0.1,-16.1 -2.3,-25.8 -1.1,-5 -2.2,-10.7 -2.4,-12.8 -0.2,-2.1 -1.1,-7.1 -2,-11 -0.8,-4 -1.9,-10 -2.5,-13.4 -1.4,-9.9 -4.9,-25.1 -7.6,-33.6 -1.3,-4.2 -2.1,-8.2 -1.8,-8.7 0.3,-0.5 0.1,-1.9 -0.5,-3 -0.8,-1.5 -0.8,-2.1 0.2,-2.4 9.1,-2.5 13.6,-3.9 15.3,-4.5 1.1,-0.5 3.8,-1.4 6.1,-2 6.1,-1.6 8.4,-7.6 9.5,-24.6 0.8,-12.3 0.3,-40.1 -0.8,-41.8 -0.3,-0.4 -0.7,-2.7 -1,-5 -0.2,-2.3 -1.1,-7.8 -2,-12.2 -0.9,-4.4 -1.8,-10.5 -2,-13.7 -0.4,-4.8 -0.2,-5.7 1.4,-6.1 1.6,-0.4 1.6,-0.6 -0.4,-1.2 -3.4,-1.1 -1.6,-3.4 5.1,-6.6 9.3,-4.3 9.3,-4.3 9.9,-14.4 0.5,-7 0.1,-11 -1.5,-18 -1.1,-5 -2.4,-9.8 -2.9,-10.7 -0.5,-1 -0.9,-2.5 -0.9,-3.4 0,-2.2 -6.9,-19.5 -8.5,-21.4 -0.7,-0.8 -1.6,-2.6 -2,-4 C 1003,715.2 994,697.2 991.7,694.3 988,689.9 981,679.2 981,678.1 c 0,-0.5 -0.6,-1.4 -1.3,-1.8 -0.8,-0.4 -2.2,-2.1 -3.3,-3.8 -1,-1.6 -3.6,-4.8 -5.6,-7 -2.1,-2.2 -4.4,-5.4 -5.3,-7 -1.3,-2.8 -16.6,-18.5 -21,-21.6 -2.1,-1.5 -5.8,-10.6 -8.2,-20.4 -2.2,-8.7 -10.4,-33.8 -11.4,-34.9 -0.5,-0.6 -0.9,-2.1 -0.9,-3.3 0,-1.3 -0.6,-3.6 -1.4,-5.1 -0.7,-1.5 -1.6,-4.3 -2,-6.2 -0.6,-3.5 -5.7,-14.2 -8.1,-17 -0.7,-0.8 -2.1,-3.8 -3.1,-6.5 -1,-2.8 -3.1,-6.8 -4.6,-8.9 -1.5,-2.1 -2.8,-4.5 -2.8,-5.3 0,-1.2 -4.4,-10.3 -7,-14.3 -4.8,-7.7 -12,-20.6 -12,-21.7 0,-0.7 -0.4,-1.3 -1,-1.3 -0.5,0 -1,-0.5 -1,-1.1 0,-1.4 -14.1,-18.2 -17.8,-21.3 -2,-1.6 -6.5,-6.1 -8.2,-8.2 -3.2,-4 -16.5,-16 -29.8,-26.9 l -6,-4.9 3.6,-1.4 c 2,-0.7 5.1,-1.7 6.7,-2.2 4,-1.2 10.9,-7.6 12.9,-11.9 4.2,-8.9 -0.5,-19.2 -9.4,-20.9 -5.7,-1.1 -31.8,-1.3 -32.5,-0.3 z m 30.7,8.8 c 4.2,2.1 5.3,8.3 2.3,12.9 -2.5,3.9 -9,6.6 -17.4,7.1 -7.3,0.5 -7.8,0.4 -13.9,-3.1 -13.2,-7.5 -20.9,-9.8 -32.8,-9.8 -4.6,0 -8.4,-0.4 -8.4,-0.9 0,-0.5 0.6,-1.1 1.3,-1.3 1.4,-0.4 11.5,-2.6 13.7,-3 0.8,-0.1 3.3,-0.8 5.5,-1.4 10.8,-3 44.1,-3.4 49.7,-0.5 z m -43.7,20.2 c 4.9,2.3 9.7,4.8 10.5,5.5 2.2,1.9 11.9,7 15.8,8.4 4.9,1.7 17.3,12.5 37.2,32.3 13.1,13.2 18.9,19.6 22.4,25.5 2.7,4.4 6.3,10.1 8.1,12.9 4.7,7.2 12.5,22.5 12.5,24.7 0,1 0.5,1.8 1,1.8 0.6,0 1,0.5 1,1.2 0,0.6 0.6,1.9 1.4,2.7 2.3,2.7 15.6,31.9 19.8,43.6 5.1,14.4 9.1,27 11.7,37.5 1.1,4.7 2.3,9.5 2.7,10.6 0.8,2.9 -4.6,8.9 -9.4,10.5 -2,0.7 -5.3,2.3 -7.2,3.5 -1.9,1.3 -4.2,2.4 -5,2.4 -0.9,0 -2,0.4 -2.5,0.9 -1,0.9 -12.4,4.7 -18.5,6.1 -1.9,0.5 -6.9,1.8 -11,2.9 -8.4,2.4 -10.5,2.7 -24.2,3.6 -5.4,0.4 -9.8,0.3 -9.9,-0.2 -0.1,-1.6 -2,-16.9 -2.4,-19.3 -1.4,-8.2 -4.5,-20.1 -6.4,-24.2 -1.1,-2.6 -2.1,-5.2 -2.1,-5.8 0,-1.8 -7,-19.1 -10.9,-27 -2.1,-4.1 -6,-10.9 -8.7,-15 -2.7,-4.1 -5.2,-8.2 -5.6,-9 -0.3,-0.8 -2.7,-3.9 -5.2,-6.9 -6.9,-8 -7.2,-8.7 -4.3,-12.4 1.4,-1.8 3.7,-4.6 5.1,-6.2 3.8,-4.4 8.4,-16.2 9.2,-23.6 0.7,-7.2 -0.8,-18.7 -3.4,-25.9 -5.3,-14.9 -15.8,-29.4 -26.6,-36.7 -2.2,-1.5 -4.3,-3 -4.6,-3.3 -2.4,-2.4 -10.9,-6.7 -19.8,-10 -10.6,-3.9 -10.9,-4 -25.2,-4.1 -18.6,-0.1 -20.8,-0.8 -11.5,-3.9 3.9,-1.2 7.5,-2.7 8.2,-3.2 0.6,-0.5 5.1,-1.3 10,-1.8 4.8,-0.5 10.2,-1.4 11.8,-1.9 1.7,-0.6 8.4,-0.9 15,-0.7 11.7,0.3 12.3,0.5 21,4.5 z m -42,15.5 c 8.9,3.8 11,4.6 12.7,4.6 1.1,0 3.1,0.9 4.5,2 1.4,1.1 3.1,2 3.8,2 0.7,0 1.9,0.8 2.6,1.7 0.8,0.9 3.4,2.9 5.9,4.5 15.1,9.5 26.1,27.7 28.9,47.6 1.2,8.8 -0.1,18.2 -2.9,22.3 -1.1,1.5 -2,3.3 -2,4.1 0,0.8 -2.1,3.4 -4.6,5.8 -5.6,5.5 -7.7,9.4 -6.8,12.3 0.4,1.2 2.8,4.3 5.3,6.8 11.9,12 27.8,40.5 32.2,57.9 0.6,2.5 1.7,5.7 2.5,7.2 3.2,6.2 7.7,29.6 7.2,37.5 l -0.3,4.8 -11,0.3 c -6,0.2 -14.6,-0.2 -19,-0.8 -4.4,-0.7 -13.6,-2 -20.5,-3 -13.7,-1.9 -28,-5.8 -35,-9.4 -5.3,-2.8 -5.4,-3.9 -2,-15.6 2.4,-8.6 2.3,-18.3 -0.5,-33 -0.9,-4.7 -1.9,-10.8 -2.2,-13.7 -0.6,-5.7 -2.7,-8.5 -6.5,-8.5 -1.3,0 -6.1,0.7 -10.8,1.5 -4.7,0.8 -8.6,1.4 -8.8,1.2 -0.7,-0.7 2.2,-5 4.5,-6.8 1.2,-1 2.3,-2.3 2.3,-2.8 0,-0.5 1.1,-2.7 2.5,-4.8 1.3,-2.2 2.6,-5.9 2.8,-8.3 0.3,-2.4 1.2,-6.1 2.1,-8.2 1.9,-4.6 0.9,-6.6 -3.4,-6.6 -3.3,0 -4.7,2.7 -5.6,10.8 -0.4,3.1 -1.3,7 -2.2,8.7 -1.8,3.7 -12.8,15.1 -16.4,17.1 -3.2,1.7 -12.8,1.8 -21.3,0.3 -3.3,-0.5 -8.6,-1.4 -11.8,-1.9 -3.4,-0.5 -10.6,-3.1 -17.6,-6.4 -6.6,-3.1 -12.2,-5.6 -12.6,-5.6 -1.5,0 -6.5,-4.2 -9.4,-7.9 l -3,-3.8 4.8,-3.1 c 3.5,-2.3 5.6,-4.7 7.5,-8.4 5.9,-11.9 8.9,-26.4 6.7,-32.1 -1.7,-4.4 -5.3,-5.1 -12.7,-2.7 -3.5,1.2 -6.6,2.6 -6.9,3.1 -1.3,2 -2.5,0.8 -1.9,-1.9 2,-8 22.1,-33 29.9,-37.2 2.5,-1.3 2.8,-1.2 7,3.6 2.5,2.7 4.5,5.2 4.5,5.5 0,1.5 9,4.4 12.7,4 2.4,-0.2 6.3,-5.5 6.3,-8.6 0,-3.8 -4.4,-17.9 -6.6,-21.2 -1.6,-2.5 -1.5,-2.6 2,-5.9 2.1,-1.9 4.5,-3.4 5.4,-3.4 0.9,0 3.9,-0.9 6.7,-1.9 9.1,-3.6 16.5,-4.6 33,-4.6 8.8,0 16.9,0.4 18,0.9 z m -83.8,4.6 c 2,1.8 3,3.5 2.7,4.5 -1.1,2.9 -4.5,0.6 -6.2,-4.3 -1.4,-3.9 -0.6,-4 3.5,-0.2 z m -28.3,76.9 c 3.7,4.1 -0.7,8.8 -13.8,15 -4.4,2.1 -9.4,4.2 -11,4.5 -2.7,0.7 -2.8,0.6 -2.1,-2.1 1.1,-4.5 3.4,-6.5 20.5,-17.6 3.3,-2.1 4.3,-2.1 6.4,0.2 z m -84.7,33.4 c 17.1,9.8 29.1,22 47.6,48.4 2,2.9 3.7,5.5 3.7,5.7 0,0.3 1.5,3.7 3.4,7.8 1.8,4 3.7,8.4 4.1,9.8 0.4,1.4 1.3,3.8 2,5.5 2.4,5.7 4.5,15.1 5,23.1 0.3,4.3 0.8,9.2 1,10.9 l 0.4,3 -1.7,-2.4 c -0.9,-1.4 -3.3,-6.4 -5.3,-11.1 -3.2,-7.5 -5.1,-11.1 -11.6,-21.6 -0.7,-1 -2.2,-3.8 -3.4,-6.2 -1.3,-2.3 -2.6,-4.2 -3.1,-4.2 -0.4,0 -0.8,-0.6 -0.8,-1.3 0,-0.7 -1.3,-3.1 -3,-5.3 -1.6,-2.1 -3,-4.5 -3,-5.2 0,-0.6 -0.3,-1.2 -0.7,-1.2 -0.5,0 -2.4,-2.5 -4.3,-5.5 -1.9,-3.1 -6.8,-9.9 -10.8,-15.3 -4.1,-5.3 -8.1,-10.8 -9,-12.1 C 551,563.5 530.7,548 523.8,548 c -1.2,0 -1.6,-0.4 -1.2,-1.1 0.4,-0.8 3.3,-1 8.4,-0.7 7.2,0.4 8.4,0.8 17.7,6.1 z m -22.2,4.2 c 2,0.9 6.7,3.9 10.3,6.8 8.3,6.5 9.2,7.3 12.8,12.2 1.6,2.2 3.1,4.2 3.4,4.5 1.1,1 8.7,11.1 14.8,19.7 14.8,20.7 30.3,47.1 33.7,57.4 1,2.8 2.4,6.3 3.1,7.8 0.8,1.4 1.4,3.3 1.4,4.1 0,0.9 0.8,3.2 1.9,5.2 3.7,7.3 0.1,11.6 -8.8,10.5 -2.7,-0.3 -6.7,-1.4 -8.8,-2.5 -7.4,-3.7 -12.4,-6.6 -14.3,-8.4 -1,-1 -2.4,-1.8 -2.9,-1.8 -0.9,0 -6.8,-5.1 -13,-11.1 -3.7,-3.6 -15.7,-16.7 -16.6,-18.1 -0.5,-0.9 -2.5,-3.7 -4.2,-6.2 -1.8,-2.6 -3.3,-4.9 -3.3,-5.2 0,-0.3 -1.7,-3.1 -3.9,-6.2 -13,-19.3 -17.8,-29.7 -22.7,-49.2 -1.5,-5.9 -1.7,-13.4 -0.5,-16.4 1.7,-4.4 10.6,-6 17.6,-3.1 z M 504,587.4 c 2.3,7 5.5,14.9 7,17.5 22.4,38 26.5,43.7 41,57.9 11.8,11.6 19.6,17.9 26.5,21.2 10.4,5 7.5,8.4 -3.1,3.5 -3,-1.4 -5.8,-2.5 -6.2,-2.5 -0.4,0 -3.9,-2.2 -7.7,-5 -3.9,-2.7 -8.6,-6 -10.5,-7.3 -5.6,-3.9 -30,-31 -30,-33.4 0,-0.5 -1.1,-2.3 -2.5,-3.9 -1.4,-1.6 -2.5,-3.4 -2.5,-4 0,-0.6 -0.8,-1.8 -1.9,-2.8 -1,-0.9 -2.8,-3.8 -4.1,-6.4 -1.2,-2.6 -3.3,-6.7 -4.6,-9.2 -1.2,-2.5 -3.2,-7.4 -4.4,-11 -1.2,-3.6 -2.5,-7.4 -3,-8.5 -0.5,-1.1 -1.1,-4.5 -1.4,-7.5 -0.3,-3 -0.9,-8 -1.2,-11 -0.5,-4.2 -0.2,-6.5 1.2,-9.5 l 1.7,-4 0.8,6.5 c 0.4,3.6 2.6,12.3 4.9,19.4 z m 439.4,57 c 4.1,3.4 15.1,15.6 23.1,25.7 2.7,3.5 5.6,7 6.3,7.8 0.7,0.7 2.2,3.1 3.3,5.4 1.2,2.2 3.9,6.3 6.1,9.1 3.8,4.7 7.1,11 17.3,33 4,8.8 8.5,21.8 8.5,24.8 0,1 0.9,4.6 2.1,8 2.2,6.6 2.7,16.6 1,21 -0.6,1.7 -2.7,3.4 -6.3,5.1 -8.2,3.8 -12.4,4.8 -24.9,5.4 -12.6,0.6 -20.8,-0.6 -34.5,-5.3 -3.9,-1.3 -8.2,-2.4 -9.7,-2.4 -4,0 -5.5,-3.2 -7.7,-17.1 -1.1,-6.8 -2.7,-16.2 -3.5,-20.9 -2.4,-13.7 -3.3,-25.1 -2.4,-31 0.4,-3 0.8,-7.6 0.8,-10.3 0.1,-2.6 0.5,-4.7 1,-4.7 1.9,0 -0.3,-4.2 -3,-5.5 -4.5,-2.4 -5.9,-1.1 -6,5.4 -0.1,3.1 -0.1,6.1 0,6.8 0.4,2.8 -2.3,2.1 -6.6,-1.6 -4.9,-4.4 -6.2,-4.8 -8.1,-2.9 -2,2 -1.5,3.3 4.1,10.4 6.5,8.4 10.3,17 11.2,24.9 0.3,3.3 1.1,8.2 1.6,11 2.4,12.9 4.3,28.4 3.5,29.2 -0.3,0.4 -1.6,-0.6 -2.9,-2.2 -1.2,-1.5 -5.2,-6.5 -8.9,-11.1 -3.8,-4.5 -6.8,-8.7 -6.8,-9.2 0,-0.4 -1.1,-1.9 -2.5,-3.2 -1.4,-1.3 -2.5,-2.9 -2.5,-3.6 0,-0.6 -0.8,-1.8 -1.7,-2.5 -2.7,-2.2 -12.3,-15.7 -12.3,-17.2 0,-0.8 -1.6,-2.2 -3.5,-3.3 -2.9,-1.5 -4.1,-1.7 -7.5,-0.8 -3.4,1 -4.2,0.9 -5.6,-0.7 -2.6,-2.9 -10.6,-7.6 -14,-8.3 -4.2,-0.9 -8.1,0.8 -10.2,4.4 -1.2,2.1 -2.5,3 -4.3,3 -5.6,0 -8.6,1.2 -10.3,4.1 -1,1.6 -2.2,2.7 -2.7,2.4 -0.5,-0.4 -0.9,-0.2 -0.9,0.2 0,0.5 -1.4,1 -3.2,1.1 -3.7,0.3 -6.4,2.4 -7.2,5.6 -0.6,2.4 -4.2,3.6 -10.8,3.6 -1.9,0 -3.6,1.1 -5.5,3.5 -2.1,2.6 -3.6,3.5 -5.8,3.5 -6.9,0 -10.5,3.3 -10.5,9.5 0,2.1 -0.4,2.5 -3.2,2.5 -4.5,0 -9.8,2.1 -9.8,4 -0.1,2.2 -2.3,5.5 -3.7,5.6 -0.7,0.1 -2.2,0.2 -3.3,0.2 -7.8,0.6 -8.1,14.2 -0.5,22.6 2.5,2.7 3.5,4.8 3.5,7.1 0,1.9 0.9,4.2 2.3,5.7 2.9,3.1 7.7,9.5 7.7,10.2 0,0.3 2.2,3.9 5,7.9 2.7,4.1 5,7.9 5,8.5 0,0.5 0.4,1.2 0.8,1.4 3.3,1.4 12.1,18.8 9.5,18.8 -0.8,0 -2.6,3.6 -3.8,7.8 -1,3.5 1.3,19.9 4.1,29.2 4.7,14.9 5.5,16.2 14.5,23 9.7,7.3 17.5,10.2 26.3,9.9 l 5.8,-0.3 5.4,6.5 c 2.9,3.5 5.4,6.8 5.4,7.2 0,0.9 1.4,2.9 7.8,10.8 1.7,2.3 5.3,7.2 7.8,10.9 2.5,3.8 5.3,7.1 6.1,7.4 2.3,0.9 5,-0.2 9.9,-3.9 2.3,-1.8 8.9,-5.6 14.6,-8.5 5.7,-2.9 11.1,-6.1 12.1,-7.1 1,-1.1 2.2,-1.9 2.8,-1.9 0.6,0 3,-1.3 5.4,-3 2.4,-1.6 4.6,-3 5,-3 0.6,0 6.6,-4 7.5,-5.1 0.3,-0.3 1.2,-0.9 2,-1.2 0.8,-0.4 3.8,-2.1 6.5,-3.8 2.8,-1.6 7.7,-4.3 11,-5.8 3.3,-1.6 6.9,-3.8 7.9,-5 1.5,-1.6 3.1,-2.1 6.8,-2.1 4.3,0 4.8,0.2 4.8,2.3 0,1.3 0.4,2.7 0.9,3.3 2.8,3 8.2,22.3 10.1,36.2 0.5,4.1 1.9,11.5 3.1,16.5 2.7,12.2 3.7,17.4 4.4,22.2 0.2,2.2 0.8,6.8 1.3,10.1 0.4,3.4 0.4,10.4 0,15.5 -0.9,10.5 -1,10.7 -10.2,14.5 -14.3,5.8 -31.6,10.7 -45.6,12.9 -5.8,0.9 -12.3,2.4 -14.5,3.2 -4,1.5 -7.5,2.2 -21,4.3 -3.8,0.6 -7.9,1.4 -9,1.9 -2,0.9 -8.6,2 -24,4.2 -4.4,0.6 -17.9,1.3 -30,1.6 -18.6,0.4 -24.6,0.2 -39,-1.6 -9.3,-1.2 -17.9,-2.1 -19,-2 -1.1,0 -4,-0.5 -6.5,-1.2 -2.5,-0.6 -6.4,-1.2 -8.7,-1.3 -2.4,0 -4.3,-0.4 -4.3,-0.8 0,-0.4 -2.1,-1 -4.7,-1.3 -4.4,-0.6 -11.5,-2.5 -16.8,-4.5 -2.7,-1 -12.2,-3.8 -16,-4.6 -1.6,-0.3 -4.9,-1.2 -7.2,-2 -3.7,-1.2 -10.9,-2.6 -19.7,-3.9 -1.6,-0.3 -3.4,-0.9 -4,-1.5 -0.5,-0.5 -1.8,-1 -2.8,-1 -1,0 -4.4,-0.9 -7.6,-2.1 -3.1,-1.2 -6.5,-2.1 -7.5,-2.1 -0.9,0.1 -1.5,-0.3 -1.2,-0.9 0.4,-0.5 0,-0.9 -0.7,-0.9 -0.7,0 -2.6,-0.7 -4.2,-1.5 -1.6,-0.9 -3.1,-1.3 -3.4,-1 -0.3,0.3 -1,0.1 -1.7,-0.5 -0.6,-0.5 -3.7,-1.3 -6.8,-1.8 -4.9,-0.8 -5.9,-0.7 -6.7,0.7 -0.5,0.9 -1,1.1 -1,0.6 0,-0.6 0.4,-1.5 0.9,-2 0.6,-0.6 0.5,-6.5 -0.2,-15.3 -1,-13.2 -0.3,-30.1 1.7,-42.2 0.2,-1.4 0.9,-9 1.6,-17 0.6,-8 1.6,-16.8 2.2,-19.5 0.6,-2.8 1.5,-7.5 1.9,-10.5 1.4,-8.8 1.6,-9.6 3.8,-15.4 1.1,-3 3.4,-11 5.2,-17.8 1.7,-6.8 4.5,-16.4 6.2,-21.3 1.6,-5 3.8,-11.9 4.7,-15.5 1,-3.6 2.8,-9 4,-12 1.2,-3 3.7,-10.2 5.6,-16 1.9,-5.8 4.3,-12.3 5.3,-14.5 1,-2.2 3.1,-7.2 4.6,-11 1.6,-3.9 3.8,-8.6 4.9,-10.5 1.2,-1.9 4.4,-8.2 7.1,-14 2.8,-5.8 5.3,-10.7 5.7,-11.1 0.4,-0.3 2.8,-4.7 5.3,-9.9 2.5,-5.1 5.9,-10.9 7.4,-12.9 3,-3.8 8.1,-13.3 8.1,-15 0,-0.6 -1.3,-1.7 -2.9,-2.5 -3.4,-1.8 -4.2,-1.2 -8.6,7.1 -1.6,2.9 -3.2,5.3 -3.6,5.3 -0.4,0 -1.1,0.9 -1.4,2.1 -1,3.2 -2.3,1 -2.8,-4.9 -0.5,-5.7 -2.8,-9.2 -5.9,-9.2 -1,0 -1.8,0.3 -1.9,0.7 0,0.5 -0.2,8.7 -0.3,18.3 l -0.3,17.5 -4.1,8 c -2.3,4.4 -4.7,8.8 -5.5,9.7 -1.8,2.3 -8,2.3 -17.6,0.2 -8.2,-1.9 -13.5,-5 -13.9,-8.2 -0.4,-2.4 0.9,-2.8 3.9,-1.1 4,2.1 12.2,2.8 14.6,1.3 4.6,-2.9 4.6,-11.9 -0.1,-21.8 -2.3,-4.9 -2.4,-5.7 -1.4,-13.1 1.7,-13.7 -0.6,-26.3 -5.7,-30.5 -2.2,-1.9 -2,-2.6 3.4,-9.4 7.4,-9.3 25.9,-25.6 29,-25.6 0.6,0 1.1,-0.4 1.1,-0.8 0,-2.6 18.2,-12 25.1,-12.9 2.2,-0.3 4.2,-0.9 4.4,-1.3 0.3,-0.5 2.9,0.4 5.9,2 6,3 5.6,2.9 21.1,7 9.8,2.6 22.8,4.7 42.5,6.9 8.5,1 41.9,0.4 54,-0.9 19,-2.1 39.6,-8.2 58,-17.2 12.4,-6.1 17.6,-8 19.5,-7 0.6,0.3 2.7,2 4.9,3.6 z m -322,51.2 5.8,5.6 -3.2,3.3 c -3.2,3.3 -3.3,3.3 -5.9,1.7 -3.5,-2.2 -11.6,-9.1 -11,-9.5 0.2,-0.1 2.1,-1.7 4.2,-3.5 2.1,-1.8 3.9,-3.2 4,-3.2 0.1,0 2.9,2.5 6.1,5.6 z m 39.2,5 c 9,4.6 13.4,12 13.4,22.1 0,5.5 -1.2,6.8 -6.3,6.8 -3.5,0 -5.2,0.8 -9,3.9 -7.8,6.3 -9.7,15.5 -4.6,22 1.9,2.4 1.9,2.7 0.4,7.8 -2.6,8.3 -3.1,26.8 -1.1,35.8 1,4.1 2.1,10.4 2.6,14 1.5,11.4 2.3,13.5 5,13.5 l 2.5,0 -0.1,-15 c -0.1,-11.1 -0.6,-16.1 -1.8,-19.4 -2,-5.3 -2.2,-15.1 -0.3,-15.1 0.7,0 2.1,0.6 3.2,1.4 2.8,1.9 16.4,5.6 20.8,5.6 2.9,0 3.7,0.4 3.7,1.8 0,1.6 -3,10 -6,16.7 -0.4,1.1 -1.6,4.2 -2.5,7 -1,2.7 -2.6,6.9 -3.6,9.2 -1,2.3 -2.2,6 -2.5,8.2 -0.4,2.3 -1,4.1 -1.5,4.1 -0.5,0 -0.9,0.6 -0.9,1.2 0,0.7 -0.7,2.6 -1.6,4.3 -0.9,1.6 -2.7,7.1 -4,12.1 -1.3,5.1 -3.5,11.8 -4.9,14.9 -1.4,3.2 -2.5,6.4 -2.5,7.2 0,1.2 -0.3,1.3 -1.4,0.4 -1.9,-1.6 -10.9,-20.3 -12.5,-26 -0.7,-2.5 -2.1,-6.1 -3.2,-8 -1,-2 -1.9,-4.5 -1.9,-5.6 0,-1.1 -0.9,-4.7 -2,-8 -1,-3.3 -3.1,-11 -4.5,-17 -1.4,-6.1 -2.8,-11.9 -3.1,-13 -0.3,-1.1 -0.7,-3.6 -1,-5.5 -0.3,-1.9 -1,-4.4 -1.5,-5.5 -0.5,-1.1 -1.8,-7.2 -2.9,-13.5 -3.5,-19.5 -4.7,-25.3 -6.9,-31.2 -1.2,-3.2 -2.1,-6.7 -2.1,-7.8 0,-2.1 -4.3,-11.3 -6.5,-14 -1.3,-1.6 -3.7,-8 -3,-8 1.2,0 8.4,5.6 11.6,9.1 3,3.2 4.3,4 6.6,3.7 2.5,-0.3 2.8,-0.8 3.1,-4.2 0.2,-2.7 1.4,-5.3 3.9,-8.3 8.1,-9.9 19.1,-12.9 28.9,-7.7 z M 856,727.9 c 0,1 -0.7,0.6 -2,-1.4 -1.1,-1.7 -2,-3.5 -2,-4 0.1,-1.7 4,3.6 4,5.4 z m 3,1.1 c 0,0.5 -0.4,1 -1,1 -0.5,0 -1,-0.5 -1,-1 0,-0.6 0.5,-1 1,-1 0.6,0 1,0.4 1,1 z m -14.9,3.7 c 2.1,1.6 3.9,3.1 3.9,3.4 0,0.4 -1.1,1.4 -2.5,2.3 -2.9,1.9 -5.4,1.1 -7.9,-2.6 -4.1,-5.8 -0.1,-7.7 6.5,-3.1 z m 41.7,11.4 c 6.3,8.6 15.5,20.4 17.4,22.4 2.6,2.7 8.2,11 11,16.2 1.2,2.4 2.5,4.3 2.9,4.3 0.9,0 7.4,8.8 7.4,10 0,0.4 2.5,4.3 5.6,8.6 3.1,4.4 8,11.8 10.9,16.6 2.9,4.7 6.8,10.4 8.8,12.5 2.9,3.1 3.9,5.5 5.8,13.3 2.1,9 2.8,13 2.5,15.7 -0.2,2 -11.1,5.4 -21.9,6.8 -10.6,1.4 -13.2,1.2 -13.2,-0.9 0,-0.7 -2.1,-3.5 -4.7,-6.3 -6.6,-6.9 -17.7,-23.2 -21.8,-32 -0.8,-1.7 -1.9,-3.4 -2.5,-3.8 -0.5,-0.3 -1,-1.5 -1,-2.5 0,-1 -0.6,-2.5 -1.3,-3.2 -0.7,-0.7 -3.5,-6.7 -6.2,-13.3 l -5,-12 -4.4,-0.9 c -4,-0.9 -4.4,-0.7 -6.7,2 -1.3,1.6 -3.2,4.2 -4.1,5.9 -2.2,4.1 -5.3,7.8 -15.5,18.7 -6.8,7.2 -8.7,9.9 -8.5,11.8 0.2,2.2 0.9,2.6 5.2,3.3 2.8,0.5 6,1.1 7.2,1.3 3.7,0.7 8.3,5.4 11.5,11.8 1.6,3.3 3.6,6.8 4.3,7.6 2.3,2.7 6.2,10.5 6.2,12.2 0,2.1 -3,2.3 -9.2,0.7 -2.2,-0.5 -5.4,-1.4 -7,-1.8 -11.7,-3 -20.1,-11.2 -35.3,-34.4 -2.5,-3.7 -5.1,-6.7 -5.8,-6.7 -0.8,0 -1.4,-0.7 -1.4,-1.5 0,-2.1 -1.7,-1.9 -4.2,0.5 -3.2,2.9 -3.4,9.9 -0.8,20.3 1.2,4.8 1.9,9.1 1.5,9.5 -0.9,0.9 -6.5,-5.4 -6.5,-7.3 0,-0.8 -0.5,-1.5 -1.1,-1.5 -0.5,0 -0.7,-0.5 -0.4,-1 0.3,-0.6 0,-1 -0.7,-1 -0.7,0 -1.8,-0.8 -2.3,-1.8 -2,-3.7 -10.6,-16.1 -11.5,-16.7 -0.6,-0.3 -1,-1.4 -1,-2.4 0,-1 -1.1,-2.9 -2.4,-4.2 -1.3,-1.3 -3.6,-4.7 -5.1,-7.4 -1.5,-2.8 -3.7,-5.9 -4.9,-7 -1.1,-1.1 -2.2,-3.3 -2.4,-4.9 -0.3,-2.6 -0.1,-2.8 2.3,-2.2 7.2,1.8 9.2,-3.9 2.5,-6.9 l -3.9,-1.8 3.2,-1.7 c 2.9,-1.6 3.6,-1.6 6.8,-0.3 2,0.8 5.4,1.3 7.5,1.1 3.1,-0.2 4,-0.7 4.2,-2.5 0.3,-1.7 -0.5,-2.6 -3.4,-3.8 -3.1,-1.3 -3.5,-1.7 -2.3,-3.1 2.7,-3.3 6.3,-4.3 10.8,-3.2 3.6,0.9 4.5,0.8 5.9,-0.6 1.4,-1.4 1.5,-1.9 0.3,-3.8 -1.2,-1.9 -1.1,-2.4 0.9,-4 1.3,-1.1 3.9,-1.8 6.4,-1.8 4.5,0 6.6,-1.3 6.6,-4.2 0,-2.9 3.4,-4 8.5,-2.7 5.6,1.4 9.9,0.1 8.8,-2.8 -0.4,-1 -1.2,-2.2 -2,-2.6 -0.7,-0.4 -1.3,-1.2 -1.3,-1.6 0,-1.5 6.4,-3.6 11,-3.6 4,0 4.5,-0.3 4.8,-2.5 0.6,-4.1 1.7,-4.5 8.1,-2.5 4.9,1.5 6.3,1.6 7.6,0.5 2.3,-1.9 1.8,-3.9 -1.5,-5.8 -1.6,-0.9 -3,-2 -3,-2.3 0,-0.3 2.4,-1.8 5.3,-3.2 l 5.2,-2.6 4,4.3 c 2.2,2.3 5.5,6.2 7.3,8.7 z m -56,-1.2 c 1.9,1.9 2.1,2.6 1,3.2 -2,1.3 -2.5,1.1 -5.3,-1.6 -2.8,-2.9 -2.7,-2.7 -1.9,-4.9 0.7,-1.8 1.4,-1.4 6.2,3.3 z m -158.3,1.2 c 4,4.5 6.9,10.4 6.1,12.5 -0.6,1.7 -5.9,0.3 -9.8,-2.6 -1.5,-1.1 -3.1,-2 -3.5,-2 -0.4,-0.1 -1.9,-1 -3.2,-2 -2.6,-2.2 -2.4,-5.6 0.5,-8.4 2.7,-2.7 5.9,-1.9 9.9,2.5 z m 141.5,3.6 c 1.4,1 3.3,2.7 4.2,3.8 1.5,1.8 1.5,2.1 0,3.8 -2.6,2.9 -6.2,1.7 -9.5,-3 -1.6,-2.2 -2.6,-4.6 -2.3,-5.2 1.1,-1.6 4.8,-1.3 7.6,0.6 z m -13.2,10 4.4,4.8 -2.2,1.7 c -2.9,2.4 -3,2.4 -7.3,-1.7 -2.7,-2.5 -3.7,-4.3 -3.7,-6.5 0,-4.6 3.5,-4 8.8,1.7 z m -17.6,8.4 c 1.2,0.6 3.1,2.3 4.4,3.8 l 2.3,2.6 -2,1.7 c -2,1.7 -2.2,1.7 -5,-0.3 -6.8,-4.8 -6.5,-11.4 0.3,-7.8 z m -10.8,11 c 3.1,3.7 3.2,5 0.5,7.5 -2.4,2.2 -4.5,1.3 -7.2,-3.4 -3.9,-6.6 1.7,-10.1 6.7,-4.1 z m 163.4,14.8 c 3,2.2 4.6,4.4 6.1,8.6 1.2,3.1 2.1,6.1 2.1,6.8 0,0.7 0.5,1.8 1.2,2.5 0.6,0.6 0.9,1.4 0.6,1.8 -0.3,0.3 -1.4,-0.6 -2.5,-2.1 -1,-1.4 -3.4,-4.7 -5.4,-7.3 -4.2,-5.4 -8.3,-13.2 -7.1,-13.2 0.5,0 2.7,1.3 5,2.9 z m 23.1,6.1 c 3.6,0.5 13,1 20.7,1 l 14.2,0 1.1,2.7 c 1.7,4.4 5,21.5 4.6,24.5 -0.2,1.6 0,2.8 0.4,2.8 0.4,0 0.8,0.8 0.8,1.7 0.1,1 0.7,5.8 1.2,10.8 2,18.7 0.8,48.7 -2.1,52.2 -6,7.3 -38.7,11 -72.1,8.3 -20.3,-1.7 -54.3,-0.2 -64.4,2.9 -3.5,1.1 -6.3,1.7 -6.3,1.4 0,-0.3 -0.6,-0.1 -1.2,0.5 -1.9,1.5 -21.5,4.5 -25.7,3.9 -4.1,-0.5 -10.9,-3.8 -16.9,-8.2 -6.7,-4.8 -10.8,-15.3 -13.2,-33.8 -1.6,-12.2 -0.5,-14.3 4.8,-9 6.3,6.5 13.2,8.4 17.2,4.8 2.4,-2.2 2.5,-5.1 0.5,-13 -0.9,-3.2 -1.4,-6.2 -1.3,-6.7 0.2,-0.5 2.4,1.9 5,5.4 10.8,14.6 23.5,24.8 30.8,24.8 1.5,0 4.4,0.9 6.6,1.9 5.8,2.8 16.8,3.8 36.4,3.4 23.8,-0.5 39.5,-2 50.9,-4.9 12.4,-3.1 13.7,-3.7 15.5,-7.2 1.2,-2.3 1.3,-4.2 0.5,-9.8 -0.5,-3.8 -1.4,-8.4 -1.9,-10.4 -0.5,-1.9 -1.9,-7.6 -3.1,-12.5 -1.1,-5 -2.7,-10.4 -3.4,-12 -0.7,-1.7 -1.9,-5.3 -2.8,-8 -2.3,-7.4 -4.8,-14.8 -5.8,-16.7 -1.3,-2.6 -1.1,-3.1 0.7,-2.4 1,0.4 4.7,1.1 8.3,1.6 z m -74.2,22.7 c 4.2,8.7 9.4,18.6 11.5,22.1 2.1,3.4 3.8,6.5 3.8,6.8 0,0.5 4.8,7.2 6,8.4 0.3,0.3 1,1.4 1.7,2.5 4.7,7.7 6.2,10.8 5.7,11.6 -0.7,1.1 -23.4,1.2 -23.4,0.1 0,-0.5 -2.9,-4.5 -6.5,-9 -3.6,-4.4 -6.5,-8.4 -6.5,-8.8 0,-0.4 -0.6,-1.5 -1.4,-2.3 -0.8,-0.9 -2.9,-4.3 -4.7,-7.6 -4,-7.6 -5.4,-9.1 -10.6,-12.2 -4.8,-2.8 -5.1,-3.5 -2.5,-6 4.5,-4.5 11.1,-13.1 10.5,-13.6 -0.3,-0.4 -0.1,-0.7 0.6,-0.7 0.6,0 2.5,-1.6 4.2,-3.5 1.7,-1.9 3.3,-3.5 3.6,-3.5 0.2,0 3.9,7.1 8,15.7 z M 920,910 c 7.4,0.5 15.5,1.2 18,1.6 l 4.4,0.6 -2.4,1.9 c -1.4,1 -3.6,2.4 -5,3.1 -2.4,1.3 -9.8,5.9 -18.8,11.9 -2.3,1.6 -4.5,2.9 -4.7,2.9 -0.2,0 -3.6,2 -7.4,4.5 -3.8,2.5 -7.3,4.5 -7.7,4.5 -0.4,0 -3.9,2 -7.9,4.5 -10.5,6.5 -12.2,7 -14.6,4.3 -1,-1.3 -1.8,-2.7 -1.9,-3.1 0,-0.5 -2,-3.3 -4.5,-6.4 -2.5,-3 -4.5,-5.9 -4.5,-6.5 0,-0.5 -2.5,-4.2 -5.5,-8.3 -3,-4 -5.5,-7.7 -5.5,-8.3 0,-0.5 3.9,-2.2 8.8,-3.8 7.6,-2.5 10.7,-2.9 25.2,-3.4 9.1,-0.4 17.4,-0.7 18.5,-0.8 1.1,-0.1 8.1,0.2 15.5,0.8 z m -244.3,129.4 c 1.5,0.8 5.5,2 8.8,2.7 3.3,0.7 6.5,1.5 7,1.8 1.1,0.6 1.7,0.7 5.3,0.9 1.2,0.1 3.1,1.1 4.2,2.2 1.3,1.3 2,1.6 2,0.7 0,-1.5 8.3,0.3 26,5.6 9.1,2.7 13.6,3.6 21.3,4.3 2.7,0.2 5.2,0.6 5.7,0.9 0.5,0.3 4.8,0.8 9.7,1.1 4.8,0.4 9.3,1.1 10,1.6 0.7,0.6 2.5,0.6 4.7,-0.1 2.5,-0.6 3.8,-0.6 4.2,0.1 0.5,0.7 0.2,0.8 -0.6,0.3 -0.9,-0.5 -1.1,-0.4 -0.6,0.4 0.5,0.8 1.9,1 3.7,0.6 2.2,-0.5 3.1,-0.2 3.5,0.9 0.5,1.3 1,1.4 2,0.5 1,-0.8 2.1,-0.7 4.2,0.3 2.1,1.1 8.3,1.5 25.8,1.7 31.4,0.3 52.1,-1.8 77.6,-8 4.2,-1.1 9.1,-1.9 11,-1.9 1.8,-0.1 5.1,-0.8 7.3,-1.6 4.6,-1.7 11,-3 20.9,-4.5 3.8,-0.5 7.5,-1.4 8.2,-2 0.7,-0.6 1.9,-0.9 2.6,-0.7 1.2,0.3 9.7,-2.1 15.6,-4.3 6.2,-2.4 7.6,-0.8 8.6,9.8 0.6,7.3 0.1,11 -3.4,23.3 -1.1,3.6 -2.1,8.5 -2.4,11 -0.2,2.5 -1.1,6.3 -2,8.5 -0.8,2.2 -1.5,5.3 -1.6,6.8 0,1.6 -0.4,3.6 -1,4.6 -0.5,1 -1.8,5.6 -2.8,10.2 -1.1,4.6 -3.1,12.7 -4.5,17.9 -4.6,17.5 -5.4,31.9 -1.8,36.8 2.3,3.2 13,8.9 21.6,11.5 14.6,4.3 17.5,5.3 17.5,5.9 0,0.5 0.7,0.8 1.5,0.8 0.8,0 5.2,1.8 9.6,4 4.5,2.2 8.6,4 9.1,4 1,0 3.8,2.5 3.8,3.4 0,1.1 -5.5,0.6 -14.9,-1.4 -11.3,-2.4 -17.4,-2.5 -20.6,-0.4 -4.8,3.1 -3.8,7.8 2.6,11.3 2.1,1.1 5.6,3 7.7,4.2 4.7,2.6 16.9,13.5 16.1,14.4 -0.4,0.3 -8.2,-1.9 -17.4,-4.9 -9.1,-3.1 -17.2,-5.6 -17.9,-5.6 -0.7,0 -2.3,0.9 -3.6,2 l -2.3,2 1.9,3.6 c 2,3.6 6.3,8 14.7,14.8 2.6,2.1 4.5,4.1 4.2,4.4 -0.2,0.3 -1,0 -1.7,-0.5 -0.7,-0.6 -2.4,-1.4 -3.8,-1.8 -1.4,-0.4 -7,-2.7 -12.6,-5.1 -5.6,-2.4 -18.9,-6.5 -30,-9.4 -21.5,-5.5 -25.8,-7.1 -33.1,-12.1 -6,-4.1 -8.6,-6.5 -11.7,-10.8 -2.3,-3.1 -2.4,-3.7 -1.2,-6.5 0.7,-1.8 1,-4.2 0.6,-5.7 -0.7,-2.4 0.4,-20.1 1.4,-24.5 2.8,-11.2 2.3,-38.6 -0.9,-49 -0.8,-2.7 -1.5,-6.4 -1.5,-8.2 0,-2.9 0.3,-3.2 3,-3.2 1.7,0 3.8,-0.4 4.8,-0.9 3.7,-2 5.5,-2.5 12.5,-2.9 2.1,-0.2 3.1,-1 4.2,-3.4 0.7,-1.8 1.1,-3.6 0.9,-4 -0.8,-1.3 -4.2,-0.9 -10.2,1.3 -6.4,2.3 -7.6,2.6 -25.2,6.2 -11.7,2.4 -14.6,2.6 -44.5,2.8 -17.6,0.1 -36.3,-0.1 -41.6,-0.4 -16.9,-0.9 -60.7,-7.6 -63.4,-9.7 -0.5,-0.4 -3,-0.7 -5.5,-0.6 -3.8,0.1 -4.5,0.4 -4.8,2.3 -0.3,1.7 0.5,2.5 3.2,3.7 1.9,0.8 4.6,1.3 6,1.2 1.4,-0.2 2.3,0.1 2,0.5 -0.3,0.5 0.2,0.9 1.2,0.9 0.9,0 3.7,1 6.1,2.2 4.4,2.2 4.4,2.3 3.9,6.3 -3.6,25.1 -3.5,24.6 -2,35 2.2,14.7 4.1,22.3 7.2,29 2.4,5.1 2.8,7.1 2.6,13.8 -0.2,7.7 -0.3,7.9 -4.1,11.5 -2.1,2.1 -6.3,5 -9.3,6.5 -8.8,4.5 -16.1,8.7 -21.9,12.6 -3,2 -7.1,4.7 -9.2,6.1 -2,1.4 -5,3.7 -6.6,5.1 -1.6,1.4 -3.6,2.8 -4.6,3.2 -0.9,0.3 -1.7,1 -1.7,1.5 0,0.9 -13.1,11.1 -16.7,13 -1.6,0.9 -2.4,0.8 -3.2,-0.2 -0.9,-1.1 -0.3,-2.4 3,-6.2 2.3,-2.7 6.4,-6.9 9.1,-9.3 3.5,-3.2 4.8,-5.2 4.8,-7.1 0,-3.8 -1.8,-4.9 -7,-4.6 -4.6,0.4 -19.9,7.1 -25.5,11.1 -4.1,3 -14.5,7.6 -14.5,6.4 0,-2 4.9,-8.6 8.8,-11.7 2.2,-1.9 6,-5.9 8.4,-9 2.4,-3.2 4.7,-6 5.1,-6.3 0.5,-0.3 0.7,-1.9 0.5,-3.4 -0.2,-2.2 -1,-3.1 -3.1,-3.6 -3.6,-1 -7.9,0.3 -21.3,6.2 -12.9,5.7 -15.3,6.1 -14.7,2.4 0.6,-2.6 13.8,-18.5 15.5,-18.5 0.6,0 7,-4.5 14.3,-10 7.4,-5.5 13.7,-10 14,-10 0.4,0 1.6,-1.1 2.7,-2.5 1.1,-1.4 2.5,-2.5 3.2,-2.5 0.7,0 2,-0.8 2.9,-1.8 1.9,-2.1 2.2,-14 0.6,-19.5 -1.1,-3.5 -2.7,-11.8 -3.5,-18.2 -0.3,-2.2 -1.2,-5.9 -2,-8.3 -0.8,-2.3 -1.4,-5.4 -1.4,-6.8 0,-1.4 -0.6,-5.3 -1.4,-8.7 -0.8,-3.4 -1.9,-8.7 -2.5,-11.7 -0.6,-3 -1.7,-8.7 -2.6,-12.7 -1.7,-8.2 -3.2,-38 -2.1,-43.6 0.8,-4.1 2.5,-4.7 7.3,-2.3 z m 311.3,5.1 c 1.9,1.4 3.9,2.5 4.5,2.5 1.9,0 6.2,5.2 8.5,10.4 2.7,6 2.1,10.5 -2.5,19 -2.5,4.7 -4.3,6.6 -7.6,8.4 -4.3,2.3 -12.6,4.8 -13.3,4.1 -0.4,-0.4 1,-7.7 3.7,-19.7 0.9,-4 1.3,-9.7 1.1,-15.8 -0.6,-12.5 -0.2,-13.2 5.6,-8.9 z"
         id="path48"
         inkscape:connector-curvature="0"
         style="fill:#000000;stroke:none" />
      <path
         d="m 719.4,520.9 c -4,2.5 -4.7,3.6 -4,6.7 0.7,2.8 3.3,3.1 7.7,0.9 2.3,-1.3 4.3,-1.4 9.4,-0.7 3.6,0.5 6.7,0.6 7,0.4 1.1,-1.1 0.4,-4.1 -1.6,-6.6 -1.8,-2.3 -2.7,-2.6 -8.7,-2.6 -4.8,0 -7.6,0.5 -9.8,1.9 z"
         id="path50"
         inkscape:connector-curvature="0"
         style="fill:#000000;stroke:none" />
      <path
         d="m 843.5,770.4 c -7.1,1.5 -9.1,3 -12.5,8.9 -4.8,8.3 -4,11.7 4.7,19 6.3,5.4 10.4,6.4 17.6,4.3 7.4,-2.2 9.8,-5 10.4,-12.6 0.3,-3.3 0,-7.9 -0.6,-10.3 -1.1,-3.7 -1.9,-4.6 -6.4,-6.9 -6.9,-3.5 -7.4,-3.6 -13.2,-2.4 z m 5,8.6 c 0.3,0.5 1.3,1 2.2,1 3.2,0 6.3,4.1 6.3,8.1 0,3.2 -0.5,4.1 -3,5.4 -1.6,0.8 -4.4,1.5 -6.1,1.5 -3.8,0 -10.5,-4.2 -11.5,-7.2 -0.9,-3 3.4,-8.6 7.1,-9.1 1.6,-0.2 3.3,-0.5 3.7,-0.5 0.4,-0.1 1,0.2 1.3,0.8 z"
         id="path52"
         inkscape:connector-curvature="0"
         style="fill:#000000;stroke:none" />
      <path
         d="m 632.3,402.6 c -4.3,2.1 -5.6,3.4 -7.7,7.6 -3.2,6.4 -3.3,11.2 -0.3,19.8 2.1,5.9 2.5,6.5 5.4,6.8 2.4,0.2 3.2,-0.1 3.6,-1.8 0.3,-1.2 0.2,-3.2 -0.2,-4.4 -2.9,-7.7 -3.1,-9.2 -1.6,-14.4 1.2,-3.9 2.3,-5.6 4.5,-6.7 5.2,-2.7 8.5,-2 13.6,3 2.5,2.5 5.4,4.5 6.4,4.5 5.8,0 6.7,-3.7 1.8,-7.2 -1.8,-1.2 -4,-3 -4.8,-4 -2.4,-2.6 -9.2,-5.8 -12.5,-5.8 -1.6,0.1 -5.3,1.2 -8.2,2.6 z"
         id="path54"
         inkscape:connector-curvature="0"
         style="fill:#000000;stroke:none" />
    </g>
    <path
       style="fill:#d4aa00;stroke:none;stroke-width:1px;stroke-linecap:butt;stroke-linejoin:miter;stroke-opacity:1"
       d="m 259.05898,1026.5402 c 0,-0.7916 4.60978,-6.3134 10.24395,-12.2707 11.99936,-12.6875 12.42341,-17.54938 1.60967,-18.45513 -5.51557,-0.46198 -11.6144,1.64191 -24.89031,8.58633 -9.67155,5.059 -18.50763,9.1982 -19.63574,9.1982 -1.1281,0 3.98611,-6.5208 11.36491,-14.49056 21.07312,-22.7609 15.43941,-29.97985 -13.87324,-17.77697 -8.40018,3.49701 -16.1725,6.05112 -17.27182,5.67579 -3.52381,-1.20307 12.67617,-19.36837 24.37088,-27.32744 29.05229,-19.77214 35.86578,-25.6859 37.08566,-32.1884 0.74769,-3.98555 -2.32932,-23.77285 -8.17499,-52.57075 -6.94582,-34.21768 -9.64911,-52.66535 -10.43615,-71.21814 l -1.06219,-25.03854 4.82961,1.13826 c 9.20044,2.1684 29.08698,7.70848 32.10372,8.9436 1.66676,0.68241 3.79751,1.06801 4.73502,0.85689 0.9375,-0.21111 10.36459,1.97541 20.94909,4.85894 10.58449,2.88354 32.54587,7.08681 48.80307,9.34061 16.25719,2.25379 31.83138,4.53852 34.6093,5.07717 2.77792,0.53865 16.18341,1.47365 29.79,2.07776 27.35697,1.21462 60.11398,-1.56933 89.408,-7.5986 34.90503,-7.18413 49.31884,-10.35857 65.65991,-14.46071 23.56113,-5.91459 23.71899,-5.89502 25.64497,3.1792 1.79989,8.48015 0.0804,17.33069 -15.68545,80.73749 -8.84778,35.58375 -10.83186,52.6797 -6.95462,59.92442 2.97735,5.56322 13.27543,11.19722 31.34029,17.14603 8.88934,2.92729 21.61726,7.98954 28.28427,11.24945 l 12.12183,5.92711 -13.13198,-1.38985 c -19.06443,-2.01771 -24.59457,-1.53581 -27.46783,2.39359 -3.80851,5.20847 -1.61539,8.39025 11.11261,16.12211 6.33148,3.84615 13.28339,8.97601 15.44871,11.39969 3.90747,4.37368 3.90668,4.39754 -0.10364,3.18533 -2.22234,-0.67175 -10.23798,-3.12068 -17.81255,-5.44209 -23.98753,-7.35155 -29.73754,-2.45799 -15.39491,13.10191 4.65754,5.0529 7.97328,9.187 7.3683,9.187 -0.60498,0 -5.09388,-1.712 -9.9753,-3.8044 -4.88142,-2.0924 -21.09398,-7.2192 -36.0279,-11.3927 -29.06202,-8.12199 -39.89361,-13.16816 -49.13719,-22.89193 -5.72148,-6.01868 -5.80023,-6.41491 -4.55344,-22.90867 3.48733,-46.13407 3.79059,-63.14213 1.36758,-76.70047 -1.38439,-7.74661 -2.17158,-14.43025 -1.7493,-14.85254 0.4223,-0.42228 5.28829,-1.83424 10.81332,-3.13768 13.57386,-3.20228 15.99688,-4.60209 16.75203,-9.6779 0.73266,-4.9246 -2.32715,-5.5225 -11.12067,-2.17302 -3.12806,1.19149 -14.19697,3.9189 -24.59758,6.06092 -15.50802,3.19389 -27.38564,3.89458 -66.0188,3.89458 -48.91344,0 -63.14005,-1.19116 -101.60188,-8.50686 -19.24229,-3.66001 -23.16151,-3.90761 -24.61543,-1.55512 -2.51294,4.06602 -0.83299,5.64072 8.69604,8.15122 4.67555,1.23181 10.41877,3.46659 12.76271,4.96617 3.93767,2.5192 4.1155,3.62042 2.33879,14.48276 -2.81922,17.23595 -0.56194,42.31324 5.41011,60.10364 9.31303,27.74306 7.6387,32.50453 -16.05122,45.64631 -16.69387,9.2608 -33.93416,20.85069 -49.49748,33.27509 -14.73708,11.7648 -18.18274,14.0278 -18.18274,11.9416 z"
       id="path3338"
       inkscape:connector-curvature="0" />
    <path
       style="fill:#d4aa00"
       d="m 454.2148,331.52917 c -0.66359,-1.7293 -1.22232,-5.56996 -1.24161,-8.5348 -0.17355,-26.66714 -22.84209,-82.32962 -46.17533,-113.38325 l -8.08826,-10.76445 6.72055,-8.80164 c 28.48443,-37.30492 5.27715,-95.08477 -47.37622,-117.954019 -8.20061,-3.561816 -16.40455,-5.134473 -31.31473,-6.002889 -19.03182,-1.108473 -19.85168,-1.334395 -14.14214,-3.897 9.18711,-4.123436 32.5992,-8.0119 48.9553,-8.130882 14.03509,-0.102097 15.57997,0.390694 39.25157,12.520626 23.08148,11.827537 26.40473,14.33378 52.49419,39.588774 31.10046,30.10572 39.64896,41.97364 61.14734,84.89109 18.0552,36.04381 26.14972,56.02082 34.61217,85.42167 6.79841,23.61947 6.93096,24.70557 3.49093,28.60175 -8.92258,10.10574 -55.13781,25.60821 -84.6967,28.41068 -10.12495,0.95994 -12.6543,0.59536 -13.63706,-1.96566 z"
       id="path3340"
       inkscape:connector-curvature="0" />
    <path
       style="fill:#d4aa00"
       d="m 399.02619,50.658308 c -9.9826,-4.912521 -18.59059,-7.548646 -27.27412,-8.352469 l -12.68799,-1.174511 16.16244,-3.627161 c 22.59785,-5.071388 57.46112,-5.121935 63.67244,-0.09232 8.93753,7.237172 0.47558,17.340121 -16.19527,19.335982 -7.62931,0.913392 -11.4371,-0.06592 -23.6775,-6.089525 z"
       id="path3358"
       inkscape:connector-curvature="0" />
    <path
       style="fill:#d4aa00"
       d="m 611.44508,830.25619 c 0.72824,-3.05571 1.86491,-14.41993 2.52594,-25.25381 0.76299,-12.50492 2.02542,-19.67184 3.45714,-19.62639 8.38022,0.26602 19.39238,13.2477 19.41456,22.88685 0.0198,8.60465 -7.54117,20.48872 -15.42845,24.2499 -9.75988,4.65416 -11.52113,4.2555 -9.96919,-2.25655 z"
       id="path3360"
       inkscape:connector-curvature="0" />
    <path
       style="fill:#d4aa00"
       d="m 422.20051,621.77486 c -10.40212,-6.59683 -14.06851,-12.4059 -17.2867,-27.38929 -5.75064,-26.77404 -5.14496,-29.28508 5.11677,-21.2132 6.39523,5.03049 15.91716,5.29157 18.42105,0.50507 1.01722,-1.94454 1.4098,-6.42745 0.87241,-9.96202 -0.95006,-6.24867 -0.59397,-6.04479 12.8688,7.3681 12.34149,12.29576 15.49223,14.30023 28.99817,18.44834 13.26133,4.07298 19.06028,4.6223 46.46702,4.40169 45.18397,-0.3637 72.36757,-5.14351 77.98179,-13.71188 2.95022,-4.5026 2.93949,-6.31371 -0.12821,-21.63895 -1.84135,-9.1988 -6.74285,-26.955 -10.89223,-39.45823 -5.90245,-17.78573 -6.865,-22.5379 -4.42288,-21.83597 1.71679,0.49345 13.30852,1.51903 25.75939,2.27907 l 22.63794,1.3819 1.90777,10.35255 c 5.31706,28.85271 6.35221,39.17884 6.32685,63.11342 -0.0162,14.31706 -0.55934,28.01372 -1.20925,30.43701 -1.30938,4.88214 -10.67457,9.32704 -25.02714,11.87835 -5.00025,0.88885 -35.45635,1.7022 -67.68022,1.80745 -53.63745,0.1752 -60.04012,0.57009 -75.76144,4.6727 -23.85935,6.22629 -33.34543,5.92322 -44.94989,-1.43611 z"
       id="path3362"
       inkscape:connector-curvature="0" />
    <path
       style="fill:#d4aa00"
       d="m 232.25599,576.04405 c -12.32458,-24.07654 -24.35597,-64.64425 -34.92466,-117.75977 -6.00205,-30.16477 -9.12753,-41.2001 -14.84056,-52.39857 -5.77465,-11.31924 -5.39459,-11.929 2.89737,-4.64856 9.52645,8.36433 14.15093,8.14184 17.10965,-0.82317 2.53999,-7.69622 11.96134,-16.04138 20.52124,-18.1771 7.86338,-1.96194 22.85787,5.2381 26.80513,12.87126 1.74565,3.3757 3.1739,9.29253 3.1739,13.14851 0,6.27901 -0.68542,7.15531 -6.56599,8.3945 -14.28011,3.0092 -22.76406,17.6282 -16.97028,29.24211 2.24911,4.50844 2.55298,7.79787 1.16684,12.63104 -2.86927,10.00457 -2.23635,34.30784 1.41292,54.25441 2.81649,15.39469 3.85527,17.96725 7.25497,17.96725 3.75475,0 3.91062,-1.11198 2.90277,-20.70813 -0.58577,-11.38947 -1.69368,-24.25918 -2.46202,-28.59935 -1.27362,-7.19442 -1.06202,-7.74736 2.39637,-6.26195 2.08635,0.8961 9.24818,3.0566 15.91518,4.80111 6.66701,1.7445 12.43283,3.35814 12.81293,3.58587 0.63845,0.3825 -13.09581,38.33237 -18.90347,52.23321 -1.39272,3.33351 -4.99523,13.78859 -8.00559,23.23351 -7.46017,23.40611 -8.01295,24.21019 -11.6967,17.01382 z"
       id="path3364"
       inkscape:connector-curvature="0" />
    <path
       style="fill:#ffeeaa"
       d="m 397.44988,331.62124 c -39.81441,-5.39735 -61.15096,-13.01604 -58.63677,-20.93756 2.3292,-7.33865 4.71925,-25.48217 4.0136,-30.4683 -6.73207,-47.56881 -5.58362,-45.22912 -21.30515,-43.40444 -6.57523,0.76313 -11.95496,0.78302 -11.95496,0.0442 0,-0.73883 2.18206,-4.23736 4.84901,-7.77451 4.75382,-6.30496 11.85808,-29.1693 9.99829,-32.1785 -1.76692,-2.85893 -8.63813,-1.53871 -10.45457,2.00872 -0.99569,1.94454 -2.33514,6.95044 -2.97655,11.12422 -1.40682,9.15435 -13.22654,24.29029 -21.71366,27.80577 -6.38193,2.64348 -24.23209,1.56779 -39.30152,-2.3684 -12.9818,-3.3909 -40.17747,-17.20884 -42.9961,-21.84604 -2.30537,-3.7928 -1.92934,-4.81697 3.42175,-9.31962 9.68097,-8.146 18.32679,-35.76989 14.41532,-46.05781 -2.21507,-5.82607 -7.83459,-6.86609 -17.41604,-3.22323 -3.00437,1.14225 -5.8786,1.66071 -6.38718,1.15213 -2.8824,-2.8824 29.76464,-41.61476 35.07659,-41.61476 1.32814,0 4.78436,2.81606 7.68047,6.2579 6.98222,8.2979 18.60772,10.2307 24.22195,4.02705 3.7317,-4.12349 3.7416,-4.61983 0.31617,-15.85714 -6.12894,-20.106367 -5.87971,-20.93877 7.93104,-26.488841 9.57777,-3.848979 16.99795,-5.064497 35.35534,-5.791645 22.16392,-0.877927 23.89902,-0.64609 37.68972,5.035936 26.90456,11.085185 45.78337,30.41559 53.22021,54.49325 6.80633,22.03632 4.75099,34.76824 -8.12882,50.35459 -4.4164,5.34445 -8.02982,10.89452 -8.02982,12.33347 0,1.43896 4.81224,8.4504 10.69387,15.58097 13.79071,16.71911 27.67617,43.37477 35.59661,68.33414 7.57996,23.88639 11.05479,45.53289 7.91628,49.31457 -2.7083,3.2633 -16.31687,3.094 -43.09508,-0.53612 z M 332.27631,181.39655 c 0.82307,-0.73595 0.0897,-3.34663 -1.62979,-5.80149 -6.25998,-8.93737 -32.22651,-3.24388 -28.57726,6.26593 1.05544,2.75043 3.46495,3.08419 14.98411,2.07556 7.54954,-0.66105 14.39986,-1.80405 15.22294,-2.54 z"
       id="path3370"
       inkscape:connector-curvature="0" />
    <path
       style="fill:#ffeeaa"
       d="m 408.56155,332.50995 c -39.43824,-4.5346 -68.73329,-12.94149 -68.64975,-19.70064 0.0223,-1.80771 0.90437,-9.19615 1.96006,-16.41874 1.44888,-9.91265 1.13963,-18.0848 -1.26147,-33.33503 -4.32554,-27.47307 -4.64926,-27.95284 -18.10806,-26.83673 -11.63508,0.96487 -13.08221,-0.43093 -7.75476,-7.47971 4.55108,-6.02158 11.40071,-29.71206 9.2209,-31.89187 -4.52278,-4.52278 -9.26809,-0.18126 -13.6221,12.46291 -2.96763,8.61808 -7.08593,15.54543 -12.40235,20.86185 -7.58752,7.58752 -8.54902,7.95659 -20.57843,7.89906 -18.67028,-0.0893 -31.92161,-3.48184 -50.69579,-12.97889 -21.32235,-10.78605 -22.79701,-13.02386 -14.67685,-22.27221 9.5511,-10.87809 16.43739,-35.04502 12.74975,-44.74425 -2.06359,-5.42766 -2.59904,-5.62449 -12.20527,-4.48678 -5.52585,0.65446 -10.047,0.50025 -10.047,-0.34269 0,-3.51872 23.24032,-31.49446 29.66113,-35.70487 4.05568,-2.65948 5.07835,-2.32943 12.81806,4.13691 9.62097,8.03809 17.6753,9.0698 23.19458,2.97106 3.49097,-3.85747 3.50629,-4.64676 0.31312,-16.13194 -5.08086,-18.274866 -4.70605,-19.84889 5.83704,-24.512598 10.53009,-4.657959 44.00231,-8.737645 57.26803,-6.979985 14.03269,1.859279 38.05968,14.515958 49.71805,26.189933 16.62934,16.6516 26.79018,42.66169 23.8188,60.97221 -0.6803,4.19215 -5.24449,13.47577 -10.14266,20.63028 -4.89817,7.1545 -8.49794,14.07093 -7.9995,15.36984 0.49843,1.2989 6.14709,9.61172 12.55257,18.47292 20.67476,28.60101 38.23335,72.16098 40.77962,101.16753 1.4162,16.13315 0.71166,16.4146 -31.74772,12.68243 z M 332.27631,181.47933 c 0.82307,-0.78148 0.0897,-3.42941 -1.62979,-5.88427 -6.41689,-9.1614 -32.21356,-3.21012 -28.46204,6.56619 1.20465,3.13927 3.04097,3.40378 14.98412,2.15833 7.48616,-0.78066 14.28463,-2.05878 15.10771,-2.84025 z"
       id="path3372"
       inkscape:connector-curvature="0" />
    <path
       style="fill:#ff2a2a"
       d="m 500.50203,574.61092 c -3.32437,-4.68029 -9.41746,-13.89554 -13.54019,-20.47832 -4.12273,-6.58278 -9.98894,-13.9566 -13.03602,-16.38626 l -5.54016,-4.41756 6.81577,-8.86756 c 3.74868,-4.87715 8.62968,-10.91333 10.84669,-13.41374 l 4.03092,-4.54618 13.48613,25.75939 c 7.41737,14.16766 16.80463,30.62372 20.86056,36.56901 4.05594,5.94529 7.37443,11.6274 7.37443,12.62691 0,0.9995 -5.6821,1.78278 -12.6269,1.74061 -12.50298,-0.0759 -12.68623,-0.16019 -18.67123,-8.5863 z"
       id="path3374"
       inkscape:connector-curvature="0" />
    <path
       style="fill:#ff2a2a"
       d="m 448.82982,488.61419 c -4.80909,-3.89416 -4.82384,-4.00948 -1.04672,-8.18314 7.04629,-7.78607 20.40545,-3.59241 19.05409,5.98139 -0.93205,6.60323 -11.04479,7.8397 -18.00737,2.20175 z"
       id="path3376"
       inkscape:connector-curvature="0" />
    <path
       style="fill:#5f5fd3"
       d="m 183.80261,385.05148 c -6.67755,-4.982 -6.82612,-6.08344 -1.2872,-9.54256 3.78971,-2.36671 4.9189,-2.0428 10.06458,2.88707 4.4324,4.24651 5.27115,6.18521 3.56521,8.24074 -3.03286,3.65438 -5.79528,3.29958 -12.34259,-1.58525 z"
       id="path3398"
       inkscape:connector-curvature="0" />
    <path
       style="fill:#5f5fd3"
       d="m 245.28419,443.81123 c -7.4974,-4.57101 -8.05595,-10.66626 -1.06913,-11.66717 2.89681,-0.41499 5.7023,1.34142 8.56566,5.36263 7.67974,10.7852 4.39024,13.55166 -7.49653,6.30454 z"
       id="path3400"
       inkscape:connector-curvature="0" />
    <path
       style="fill:#d7d7f4"
       d="M 180.71648,330.63542 C 177.01386,320.0814 152.37832,279.56087 134.97056,255.39255 118.27358,232.21106 98.998456,213.05067 86.398377,207.10949 l -8.156705,-3.84604 9.091373,1.31912 c 22.215085,3.22333 49.379545,25.53797 72.964065,59.9374 13.22933,19.29577 25.282,53.80639 23.61743,67.62419 l -0.68216,5.66266 -2.5159,-7.1714 z"
       id="path3404"
       inkscape:connector-curvature="0" />
    <path
       style="fill:#3737c8"
       d="M 136.21331,366.0624 C 107.59287,353.62958 71.293265,311.96321 55.013515,272.8575 50.0281,260.88199 48.324349,253.44624 47.703946,240.95604 l -0.80896,-16.2863 4.711189,16.16244 c 6.332803,21.72563 9.127337,27.80526 24.905544,54.18307 10.576416,17.68152 18.156787,27.24951 34.894891,44.04455 11.76082,11.80081 25.01985,23.35213 29.46452,25.6696 9.12787,4.7593 5.57211,5.77691 -4.65782,1.333 z"
       id="path3408"
       inkscape:connector-curvature="0" />
  </g>
</svg>
