<?xml version="1.0" encoding="UTF-8" standalone="no"?>
<!-- Created with Inkscape (http://www.inkscape.org/) -->

<svg
   xmlns:dc="http://purl.org/dc/elements/1.1/"
   xmlns:cc="http://creativecommons.org/ns#"
   xmlns:rdf="http://www.w3.org/1999/02/22-rdf-syntax-ns#"
   xmlns:svg="http://www.w3.org/2000/svg"
   xmlns="http://www.w3.org/2000/svg"
   xmlns:sodipodi="http://sodipodi.sourceforge.net/DTD/sodipodi-0.dtd"
   xmlns:inkscape="http://www.inkscape.org/namespaces/inkscape"
   width="210mm"
   height="297mm"
   viewBox="0 0 744.09448819 1052.3622047"
   id="svg5475"
   version="1.1"
   inkscape:version="0.91 r13725"
   sodipodi:docname="gopher-warning-left.svg">
  <defs
     id="defs5477" />
  <sodipodi:namedview
     id="base"
     pagecolor="#ffffff"
     bordercolor="#666666"
     borderopacity="1.0"
     inkscape:pageopacity="0.0"
     inkscape:pageshadow="2"
     inkscape:zoom="0.49497475"
     inkscape:cx="-105"
     inkscape:cy="558.74355"
     inkscape:document-units="px"
     inkscape:current-layer="layer1"
     showgrid="false"
     inkscape:window-width="1366"
     inkscape:window-height="705"
     inkscape:window-x="-8"
     inkscape:window-y="-8"
     inkscape:window-maximized="1" />
  <metadata
     id="metadata5480">
    <rdf:RDF>
      <cc:Work
         rdf:about="">
        <dc:format>image/svg+xml</dc:format>
        <dc:type
           rdf:resource="http://purl.org/dc/dcmitype/StillImage" />
        <dc:title></dc:title>
      </cc:Work>
    </rdf:RDF>
  </metadata>
  <g
     inkscape:label="Layer 1"
     inkscape:groupmode="layer"
     id="layer1">
    <g
       transform="matrix(-0.95059112,0,0,0.89625607,1637.8884,-91.812846)"
       id="g5452">
      <path
         d="m 1170.6,113.5 c -2.7,1.3 -6.3,3.7 -8.1,5.3 -3.2,3.1 -9.2,16.3 -8.1,18 0.3,0.6 -0.6,5.2 -2,10.4 -1.4,5.1 -4.5,17.8 -6.9,28.3 -2.4,10.4 -5,22.1 -6,26 -0.9,3.8 -2.3,9.9 -3.2,13.5 -0.8,3.6 -2.3,9 -3.3,12 -1,3 -3,11.1 -4.5,18 -1.5,6.9 -3.4,14.3 -4.2,16.5 -0.8,2.2 -1.9,6.2 -2.3,9 -0.5,2.7 -2.8,12.9 -5.1,22.5 -2.3,9.6 -5,21.1 -6,25.5 -1,4.4 -5.2,21.3 -9.3,37.5 -4,16.2 -8.4,33.8 -9.5,39 -1.2,5.2 -2.8,11.7 -3.5,14.5 -6.3,22.5 -6.3,22.9 -1.6,26.8 1.1,1 1.9,2.1 1.6,2.5 -0.3,0.5 1.5,3.4 4,6.6 6.1,7.7 13.1,11.1 21.4,10.3 3.1,-0.2 6.5,-0.9 7.6,-1.5 2.1,-1.1 49.6,-16.7 61.4,-20.1 4.1,-1.2 10.4,-3.3 14,-4.6 3.6,-1.2 12.4,-4 19.5,-6 7.2,-2 17.3,-5 22.7,-6.6 10.5,-3.2 13.8,-3.6 13.8,-1.6 0,1.2 1.1,4.6 10.8,32.7 7.9,22.9 11.3,33.2 12.3,37.5 0.5,2.2 1.3,4.9 1.8,6 2.5,5.6 4.1,12.8 3.1,14 -1.8,2.2 -5,12.7 -5,16.4 0,3.4 2,10.4 4,14.1 0.5,1 3.2,3.2 6,5 4.7,3 5.1,3.5 4.5,6.4 -0.4,1.7 -2.3,5.6 -4.3,8.6 -7.5,11.5 -20.1,36.7 -23.8,47.5 -0.9,2.7 -2.1,5.3 -2.6,5.6 -0.5,0.3 -2,3.5 -3.3,7 -8.5,23.8 -6.9,21.4 -27.3,40.6 -2.5,2.4 -5.1,4.3 -5.8,4.3 -0.8,0 -1.4,0.3 -1.4,0.7 0,0.5 -1.3,2.1 -3,3.8 -18.3,18.3 -39.2,47.9 -45.4,64.2 -1.5,4 -3.5,8.2 -4.5,9.5 -2.9,3.8 -6.1,14 -5.7,18.2 0.2,2.8 1.2,4.6 3.8,7 4.6,4.2 7.2,8.2 8.7,13.6 1.4,4.8 12.9,34.8 14.1,36.5 0.3,0.5 1.5,3.2 2.5,6 1,2.7 3.1,7.1 4.7,9.6 1.5,2.5 2.8,5 2.8,5.5 0,0.5 1.6,4 3.5,7.7 l 3.5,6.8 -2.5,3.7 c -1.3,2 -2.6,5.3 -2.9,7.2 -0.2,1.9 -0.9,6.2 -1.5,9.6 -1,5.3 -2.6,21.1 -3.6,35.9 -0.2,2.7 -0.6,7.2 -0.9,10 -0.3,2.7 -0.8,10.4 -1.1,17 -0.8,16.4 -1.4,26 -1.5,26 0,0 -0.4,5.8 -0.8,13 -1.2,22.2 -0.7,44.2 1.1,52.5 0.9,4.1 1.8,9.1 1.9,11 0.1,1.9 1.2,4.8 2.5,6.3 1.3,1.6 2.3,3.4 2.3,4.1 0,0.6 1.5,2.7 3.4,4.6 3.5,3.6 3.7,5 0.9,5 -3.7,0 -13.9,5.7 -17.7,9.8 -9.1,9.9 -10.4,15.4 -6.3,27.1 2,5.7 2.9,6.9 7.7,10.2 9.1,6.4 16.5,7.4 27.2,3.8 3.3,-1.1 6.4,-1.7 6.8,-1.2 0.4,0.4 2.4,5.5 4.4,11.3 2.1,5.8 4.6,12.7 5.6,15.5 2.4,6.2 4.5,32 3,35.9 -1.2,3.2 -10.8,12.8 -16.4,16.4 -7.2,4.7 -19,13.4 -22.4,16.6 -3.1,2.9 -8.2,11.3 -8.2,13.5 0,0.6 1.1,2.2 2.5,3.7 1.5,1.6 2.5,2.1 2.5,1.3 0,-1.6 19.5,-6.7 20.7,-5.5 0.4,0.4 -3.1,4.5 -7.8,9.2 -10.2,10 -12.8,14.1 -11.2,17.7 2.2,4.9 10.1,4.5 21.8,-0.8 7.3,-3.4 12.5,-4.8 12.5,-3.4 0,0.5 -1.3,2.3 -2.8,4.1 -6.5,7.5 -10.1,16.3 -8.1,19.9 2.7,5.1 6.8,6.2 11.7,3.2 3,-1.8 24.3,-15.6 28.2,-18.3 1.4,-1 4.3,-2.6 6.5,-3.8 2.2,-1.1 6.5,-3.6 9.5,-5.6 3,-2 5.9,-3.6 6.5,-3.6 1.4,0 13.5,-6.3 20,-10.5 6.6,-4.2 15.6,-12.8 17.8,-17.1 1.5,-2.9 1.4,-3.3 -1.3,-9.1 -1.6,-3.3 -3.1,-7.1 -3.4,-8.4 -5.4,-27.9 -5.9,-31.9 -5.3,-41.3 0.3,-5 1.1,-10.5 1.7,-12.2 l 1.1,-3.1 33.7,-0.1 c 18.5,-0.1 35.1,-0.3 36.7,-0.3 1.7,-0.1 11.1,-0.1 21,0 29.7,0.3 50.2,-1.2 64,-4.8 2.2,-0.6 5.9,-1.1 8.1,-1.1 3.5,0 4.3,0.4 4.8,2.2 1.9,7.2 -1.9,30.7 -7,43.1 -3.5,8.7 -6.6,23.2 -6.2,29.7 0.4,7.7 4.6,15.7 12.3,23.2 3,2.8 18.7,13.8 19.9,13.8 0.4,0 3,1.5 5.9,3.4 2.8,1.9 7.7,4.2 10.7,5.2 5.6,1.8 13.1,4.8 16.2,6.5 1,0.5 2.2,0.9 2.8,0.9 2.6,0 13.9,6.2 16.8,9.3 2.6,2.7 3.9,3.3 6,2.9 3.5,-0.7 6.1,-4 6.2,-7.7 0,-3.7 -3.7,-11.9 -7.4,-16.3 -3.2,-3.7 -2.9,-3.7 8.4,1.5 11.7,5.4 17.2,5.4 18.6,-0.1 0.7,-2.9 -3.6,-11.4 -10.3,-20.5 -4.2,-5.7 -4.4,-6.3 -2.2,-5.6 1.3,0.4 3.1,1.4 4,2.1 0.8,0.8 3.2,1.4 5.2,1.4 2,0 3.7,0.3 3.7,0.7 0,0.5 2.8,0.8 6.1,0.8 5.6,0 6.4,-0.3 8.3,-2.8 2,-2.7 2,-2.9 0.4,-4.1 -1,-0.7 -1.8,-2.3 -1.8,-3.5 0,-1.3 -1,-2.6 -2.5,-3.3 -1.4,-0.6 -2.5,-1.7 -2.5,-2.3 0,-2.2 -7.9,-8.5 -10.5,-8.5 -1.4,0 -2.5,-0.4 -2.5,-0.9 0,-0.5 -5.9,-5 -13,-10.1 -14.6,-10.3 -21,-16.9 -21,-21.5 0,-1.7 0.7,-6.2 1.6,-10 0.9,-3.9 2.3,-10.8 3.3,-15.5 0.9,-4.7 1.9,-9 2.2,-9.5 2.5,-4.1 8.3,-59.9 7.3,-70 -1.3,-12.3 -1.6,-11.2 6.3,-19 4,-4 7.7,-8.5 8.3,-10.1 1.5,-3.7 1.4,-34.9 0,-64.4 -1,-20.3 -2.7,-34.5 -7.2,-58.5 -0.5,-2.8 -1.3,-7.7 -1.8,-11 -1.2,-8 -3.5,-18.3 -5.3,-23.7 -2.2,-6.2 -3.2,-15.4 -1.8,-16.2 0.7,-0.5 1.1,-4.6 1.1,-10.9 0,-5.6 0.5,-12.1 1,-14.4 0.5,-2.3 1.2,-10.6 1.5,-18.5 0.5,-14.2 1.9,-24.7 3.5,-27.9 0.6,-1 0.5,-2 -0.2,-2.7 -0.7,-0.7 -1.5,-4.9 -1.8,-9.4 -0.7,-9.3 -5.2,-29.9 -8,-36.8 -1,-2.5 -2.1,-6.2 -2.5,-8.2 -1.2,-7.3 -7.8,-25.4 -12.5,-34.3 -4.6,-8.9 -11.7,-20.5 -13,-21.5 -0.4,-0.3 -1.9,-3.1 -3.4,-6.2 -1.5,-3.1 -3.4,-6.2 -4.2,-6.9 -0.8,-0.6 -1.4,-1.6 -1.4,-2.1 0,-0.6 -1.1,-1.9 -2.5,-3 -1.4,-1.1 -2.5,-2.4 -2.5,-2.9 0,-0.6 -1.1,-2.2 -2.4,-3.6 -1.3,-1.4 -3.6,-5 -5,-7.9 -1.5,-3 -3.1,-5.4 -3.7,-5.4 -0.5,0 -1.4,-1.2 -2,-2.8 -0.5,-1.5 -1.6,-4.1 -2.3,-5.7 -2,-4.2 -6.2,-16.1 -7.6,-21.5 -0.7,-2.5 -1.6,-5.8 -2.1,-7.4 -0.5,-1.6 -0.9,-4.3 -0.9,-6.1 0,-1.8 -0.7,-5.2 -1.5,-7.5 -2.3,-6.5 -2,-7.7 2.5,-10 3.5,-1.8 11.8,-9.3 16,-14.6 0.8,-1 3.4,-4.1 5.8,-6.9 8.1,-9.4 22,-37.5 24.7,-49.9 1.7,-7.5 4.2,-23.6 5.1,-32.1 0.3,-2.8 0.7,-6.6 0.9,-8.5 0.2,-1.9 0,-5.3 -0.5,-7.5 -0.5,-2.2 -1.2,-8.2 -1.5,-13.4 -0.4,-5.2 -1.1,-10.5 -1.6,-11.8 -0.7,-1.9 0.4,-4.7 5.7,-14.9 7.6,-14.6 10.4,-24.6 7.7,-27.6 -2.1,-2.4 -3.8,-2.3 -11.9,0.8 -8.1,3 -12.9,5.3 -20.4,9.9 -3,1.9 -6.6,3.7 -7.9,4 -1.4,0.3 -3.7,1.5 -5.2,2.6 -2.3,1.6 -2.8,1.7 -3.9,0.4 -0.7,-0.8 -2.4,-1.5 -3.9,-1.5 -7.1,0 -28.1,5.6 -43.9,11.6 -3.5,1.4 -6.7,2.2 -7.2,1.9 -0.6,-0.3 -2.4,-2.7 -4.2,-5.3 -8.2,-12.1 -13,-16.2 -18.5,-16.2 -8.1,0.1 -10.1,8 -6.3,25 1,4.7 1.7,8.5 1.7,8.5 -0.8,0 -9.1,4.6 -12.7,6.9 -8.9,6 -19.9,11.6 -22.9,11.6 -1.2,0 -4.5,1.5 -7.4,3.3 -2.9,1.8 -8.1,4.8 -11.7,6.6 -3.6,1.9 -7.7,4.2 -9.2,5.3 -1.4,1 -3.2,1.8 -4,1.8 -0.7,0 -2.9,0.8 -4.8,1.9 -1.9,1 -4.6,2.2 -6,2.6 -1.4,0.4 -4.5,1.9 -7,3.4 -2.5,1.4 -6.9,3.6 -9.9,4.8 -6.2,2.5 -7.6,2 -8.6,-2.9 -0.4,-1.6 -1.6,-5 -2.7,-7.4 -1,-2.5 -3.4,-9.7 -5.3,-16.2 -4.3,-15.3 -8.3,-28 -9,-29.1 -0.3,-0.5 -1.4,-4.2 -2.4,-8.3 -1,-4 -2.2,-8 -2.5,-8.8 -0.5,-1.2 1.1,-2.2 6.6,-4.2 4,-1.5 8.4,-3 9.8,-3.3 3.5,-0.9 52.4,-16.6 70,-22.5 15.5,-5.2 37.7,-12.1 45,-14 2.4,-0.7 5.7,-2.2 7.1,-3.3 1.5,-1.2 4.5,-3.3 6.7,-4.6 5.9,-3.5 7.5,-6.9 6.3,-13.3 -1.6,-8.6 -6.7,-20 -10.3,-23.1 -1.8,-1.5 -9.8,-8 -17.8,-14.5 -8,-6.4 -16.4,-13.4 -18.7,-15.6 -2.3,-2.1 -5.7,-5 -7.5,-6.5 -1.8,-1.4 -4.9,-4.2 -6.9,-6.1 -3.4,-3.3 -6.1,-5.7 -15.6,-13.2 -12.3,-9.7 -28,-22.8 -29.7,-24.7 -1.1,-1.1 -2.5,-2.1 -3.2,-2.1 -0.7,0 -1.7,-0.6 -2.1,-1.3 -0.4,-0.8 -1.5,-1.8 -2.4,-2.3 -0.9,-0.5 -5.6,-4.5 -10.4,-8.9 -4.8,-4.4 -9.4,-8.5 -10.4,-9 -0.9,-0.6 -2.6,-1.8 -3.7,-2.7 -2.1,-2 -12.1,-10.7 -20.5,-18 -3,-2.6 -6.7,-5.7 -8.4,-7 -1.6,-1.2 -3.5,-2.7 -4.1,-3.3 -0.6,-0.5 -3,-2.6 -5.3,-4.5 -2.4,-1.9 -6.2,-5.2 -8.4,-7.3 -2.3,-2.2 -5.8,-5.1 -7.7,-6.5 -1.9,-1.5 -3.9,-3.3 -4.3,-3.9 -0.4,-0.7 -1.5,-1.3 -2.2,-1.3 -0.8,0 -1.5,-0.4 -1.5,-0.9 0,-0.5 -2.4,-2.8 -5.2,-5 -2.9,-2.2 -7.3,-5.7 -9.7,-7.8 -2.4,-2.1 -6.2,-5.1 -8.5,-6.8 -2.3,-1.6 -4.3,-3.2 -4.6,-3.5 -0.3,-0.3 -3,-2.6 -6,-5.2 -3,-2.5 -7.9,-6.9 -10.8,-9.6 -3,-2.7 -6.7,-5.3 -8.4,-5.6 -6.4,-1.3 -13.3,-0.6 -18.2,1.9 z m 20.8,9.6 c 3.2,2.1 6.2,3.9 6.7,3.9 0.5,0 0.9,0.4 0.9,0.8 0,0.4 2.3,2.6 5.2,4.7 2.9,2.2 6.3,5.1 7.7,6.5 1.4,1.4 5,4.4 8.1,6.7 5.8,4.5 8.3,6.5 19.5,16 3.9,3.3 8.1,6.8 9.4,7.9 1.4,1 3.4,2.8 4.5,3.9 1.2,1.1 5.9,5.2 10.6,9 4.7,3.9 9.3,7.7 10.3,8.6 0.9,0.9 2.9,2.2 4.4,3 1.5,0.8 3.6,2.3 4.8,3.4 16.5,15.4 38.5,34.2 45.5,38.7 1.4,0.9 7.8,6.4 14.3,12.2 6.5,5.8 12.1,10.6 12.6,10.6 0.4,0 3,2 5.7,4.4 2.7,2.4 10.1,8.9 16.4,14.5 6.3,5.6 12.6,11.2 14,12.5 1.4,1.2 6,5.1 10.3,8.6 4.2,3.6 7.7,6.8 7.7,7.2 0,0.4 0.4,0.8 0.9,0.8 0.5,0 2.6,1.7 4.8,3.7 2.2,2.1 6.3,5.9 9.2,8.5 5.6,5.1 8.1,10.4 8.1,17.1 0,4.1 -2.9,8.7 -5.6,8.7 -0.6,0 -2.2,1.1 -3.5,2.5 -2.6,2.8 -13,8 -18.8,9.4 -4.3,1.1 -20.7,6.8 -23.6,8.1 -1.1,0.6 -4.3,1.4 -7.2,2 -2.9,0.5 -6,1.4 -7,1.9 -1,0.5 -4,1.6 -6.8,2.5 -9.8,3 -15.1,4.8 -18.5,6.2 -1.9,0.7 -8.4,2.8 -14.4,4.5 -6,1.7 -11.6,3.4 -12.5,3.8 -2.5,1.3 -8.1,3.2 -13.6,4.7 -7.5,2 -30.8,9 -41.2,12.4 -5.1,1.7 -9.7,3 -10.3,3 -0.6,0 -3,0.9 -5.2,2 -2.3,1.1 -5.3,2 -6.7,2 -2.1,0 -2.3,0.2 -1.1,1 1.1,0.7 0.3,1 -3,1 -2.5,0 -9.5,1.7 -16,3.9 -6.3,2.1 -16.2,5.3 -22,7.1 -5.8,1.8 -13.8,4.3 -17.9,5.6 -4,1.3 -7.8,2.4 -8.5,2.4 -0.6,0 -2.2,0.6 -3.6,1.3 -1.4,0.7 -5.2,2.1 -8.5,3.1 -3.3,0.9 -8.5,2.5 -11.5,3.5 -3,1 -7.5,2.4 -10,3.2 -2.5,0.7 -5.4,1.8 -6.5,2.5 -3.3,2 -12.8,3.3 -18.7,2.5 -7.7,-1 -11.6,-3.6 -15,-10.1 -2.5,-4.8 -2.8,-6.3 -2.4,-12.1 0.4,-6.4 3.5,-21 8.1,-37.9 1.3,-4.7 2.6,-10.3 3,-12.5 0.4,-2.2 1.6,-7.4 2.7,-11.5 1.1,-4.1 3.1,-12.5 4.3,-18.5 4.4,-20.6 5.4,-24.7 6.9,-29.3 1.6,-4.9 11.3,-44.7 12.6,-51.7 0.4,-2.2 2.4,-10.3 4.5,-18 2,-7.7 5,-19.4 6.6,-26 2.8,-11.8 3.8,-15.6 7.8,-30.5 1.1,-4.1 2.9,-12 4.1,-17.5 1.1,-5.5 2.9,-12.9 4,-16.5 1.1,-3.6 3.1,-10.6 4.5,-15.5 1.4,-5 2.9,-9.7 3.2,-10.5 0.3,-0.8 0.6,-1.8 0.5,-2.1 -0.2,-1.2 4.7,-5.2 8.5,-7 5.1,-2.4 9.5,-1.6 16.7,3.2 z m 339.3,278.6 c -2,2.1 -5.6,5.9 -7.9,8.5 -4.5,5 -11.4,8.6 -13,7 -0.5,-0.5 -0.8,-2.5 -0.6,-4.3 0.2,-2.8 1,-3.8 4.8,-5.8 2.5,-1.3 6.2,-3.5 8.3,-4.9 2.1,-1.4 5.5,-2.9 7.5,-3.2 2,-0.4 3.9,-0.8 4.1,-0.9 0.2,0 -1.3,1.6 -3.2,3.6 z m -99.7,6.7 c 0.9,1.8 0.9,3 -0.4,5.9 -1.7,4.2 -3.7,4.6 -6.6,1.7 -2.2,-2.2 -2.7,-8.8 -1,-12.1 1.1,-1.9 1.1,-1.9 3.9,0.2 1.6,1.2 3.4,3.1 4.1,4.3 z m -147.5,-1.2 c 0.4,1.8 3,9.1 5.7,16.3 2.7,7.1 5.8,15.2 6.7,18 4.3,12.1 7.5,21.7 10.3,30.5 1.6,5.2 4.5,14.4 6.5,20.5 1.9,6 4.6,14.8 5.8,19.5 1.2,4.7 4.3,14.1 6.7,21 7,19.8 9.8,28.1 11.9,34.5 1,3.3 3,9.6 4.5,14 15.1,46.2 18.9,57.3 20.3,59.5 0.9,1.3 1.5,2.7 1.4,3 -0.4,0.9 0.8,5.3 2.3,8.6 0.7,1.7 1.9,5.5 2.5,8.5 0.6,3 2.3,8.3 3.6,11.9 1.4,3.6 3.3,9.7 4.4,13.5 1,3.9 3,9.6 4.4,12.7 1.4,3.1 3.7,10.7 5.1,16.8 2.3,10.2 5,17.4 7.1,18.9 1.7,1.2 4.3,6.1 4.3,8.1 0,2.2 -2.5,7.6 -4.4,9.6 -3.7,3.7 -14.8,5.9 -18.2,3.6 -2.8,-1.8 -7.3,-13.2 -8.4,-21.3 -0.7,-4.6 -1.6,-8.9 -2,-9.4 -0.4,-0.6 -1.3,-3.2 -1.9,-6 -0.7,-2.7 -1.7,-5.5 -2.1,-6.1 -0.5,-0.5 -2.7,-6.9 -4.9,-14 -2.1,-7.1 -5.1,-16.1 -6.6,-19.9 -1.5,-3.9 -3.2,-8.8 -3.9,-11 -0.6,-2.2 -1.5,-4.5 -1.9,-5.2 -0.4,-0.6 -1.6,-4.4 -2.6,-8.5 -1.1,-4 -3.1,-10.5 -4.6,-14.3 -1.4,-3.9 -3.8,-11.1 -5.4,-16 -1.5,-5 -3.3,-10 -3.9,-11.1 -0.6,-1.2 -2.5,-6.8 -4.1,-12.5 -3.6,-12.6 -6.5,-21.4 -9.6,-29.4 -1.3,-3.3 -3.5,-9.8 -5,-14.5 -1.5,-4.7 -3.1,-9 -3.5,-9.5 -0.4,-0.6 -2,-5.1 -3.5,-10 -5.2,-17.7 -6.4,-21.2 -12.4,-38.7 -3.3,-9.7 -6.2,-18.7 -6.5,-20 -0.6,-2.9 -6.4,-21.6 -7.6,-24.3 -0.5,-1.1 -2,-5.8 -3.3,-10.5 -1.4,-4.7 -3.2,-10.5 -4,-13 -2.5,-7.5 -5.7,-18.4 -5.7,-19.6 0,-0.6 4.2,-2.3 9.3,-3.8 5,-1.5 9.7,-2.9 10.2,-3.1 2.1,-0.7 2.4,-0.4 3,2.7 z m 209.5,3.7 c 0,0.4 -1,1.9 -2.2,3.3 -4.6,4.9 -7.8,9.7 -7.8,11.7 0,5.3 17.3,9 36.7,7.8 10.4,-0.6 9.7,-1.2 10.8,8.3 0.3,3 1.1,8 1.7,11.1 1.7,9.4 -2.7,40.1 -7.7,54.4 -1.7,4.7 -9.8,21.9 -12.7,27 -6.7,11.7 -22.6,28.8 -29.8,32 -2.3,1.1 -4.3,2.8 -5,4.5 -1.3,3.1 -0.6,9.9 1.6,17.1 0.8,2.6 1.9,6.9 2.3,9.5 2.4,13.3 3.6,17.6 7.7,26.1 2.4,5.2 4.4,9.9 4.4,10.5 0,0.6 0.5,2.7 1.2,4.5 1.6,4.4 0.8,5.1 -11.7,10.1 -5.5,2.2 -13.4,5.4 -17.5,7.2 -19.4,8.1 -43.7,12.8 -69,13.4 -7.2,0.1 -15.9,-1.7 -17.2,-3.6 -2.1,-3.4 0.2,-22 4.7,-37.4 2.6,-9 9.3,-27.4 10.5,-28.9 0.5,-0.6 1.8,-3.7 3.1,-7 1.2,-3.3 3,-7.2 4,-8.7 1.1,-1.4 1.9,-2.9 1.9,-3.3 0,-0.4 1.6,-3 3.5,-5.6 2.9,-4 3.5,-5.8 3.5,-9.8 0,-5.3 -0.6,-5.9 -12.2,-12.5 -2.7,-1.5 -4.8,-3.1 -4.8,-3.6 0,-0.6 -2.1,-3.4 -4.7,-6.4 -5.7,-6.5 -8.6,-10.3 -10.1,-13.3 -2.8,-5.1 -4.4,-17.1 -4.5,-33.3 -0.2,-15 0,-17.2 2.2,-23.8 2.1,-6.6 3.1,-7.9 8.8,-13 3.5,-3.1 6.5,-6.4 6.8,-7.3 0.7,-2 25.4,-15.9 28.3,-15.9 0.5,0 2.5,2.4 4.6,5.4 7.4,10.8 11,13.3 17,12.2 5.9,-1.1 7.1,-3.5 7.1,-14.5 0,-5.3 -0.3,-11.4 -0.7,-13.6 l -0.7,-4 6.2,-2.3 c 3.4,-1.2 9.6,-3.1 13.7,-4.2 4.1,-1.1 8.4,-2.4 9.5,-3 3.6,-1.7 16.5,-2.6 16.5,-1.1 z m -125.1,61.8 c -1.6,5.6 -1.6,34.1 0,44.5 2.8,17.4 10.5,29.4 29,44.9 l 5.5,4.5 -6.3,13 c -3.4,7.1 -7.3,15 -8.6,17.6 -2.2,4.7 -8.9,24.9 -13.8,41.8 l -2.5,8.5 -1.4,-3.5 c -2.5,-6.1 -30.7,-90.9 -39.6,-119 -1.1,-3.6 -2.3,-8.5 -2.6,-11 -0.7,-4.5 -0.7,-4.5 7,-13 10.6,-11.6 33.5,-34.2 34.2,-33.6 0.2,0.3 -0.1,2.7 -0.9,5.3 z m -13.5,-2.5 c -0.4,0.6 -4.9,5.4 -10,10.7 -5,5.3 -11.4,12.2 -14,15.3 -2.7,3.2 -5.4,5.8 -6,5.8 -1.1,0 -4.8,-8.9 -5.8,-14 -0.5,-2.3 0.3,-2.9 9.3,-7.4 8.9,-4.4 24.4,-11.2 26.4,-11.5 0.5,0 0.5,0.4 0.1,1.1 z m -66.5,52.7 c 1.1,3.6 2.1,7.3 2.1,8.3 0,1.5 -0.3,1.6 -1.9,0.6 -3.4,-2.1 -6,-10.5 -4.6,-14.8 0.9,-2.9 1.8,-1.7 4.4,5.9 z m 11.2,33.8 c 1.2,2.7 5.5,14.9 9.7,27.3 4.1,12.4 8.6,25.6 9.9,29.5 1.4,3.8 3.1,9 3.8,11.5 0.7,2.5 2.6,8.3 4.3,13 3.1,8.9 8.2,25.2 8.2,26.2 0,1 -12,-0.2 -19.5,-1.9 -8.2,-1.9 -23.3,-6.7 -29,-9.3 -2.2,-1 -6,-2.4 -8.5,-3 -4.7,-1.2 -5.4,-1.6 -13.5,-6.2 -2.7,-1.6 -6,-3.4 -7.2,-4 -1.3,-0.6 -2.3,-1.7 -2.3,-2.4 0,-0.8 1.8,-5.2 4,-9.9 2.2,-4.7 4,-8.8 4,-9.1 0,-0.3 0.6,-2 1.4,-3.7 0.7,-1.8 2.4,-6.1 3.6,-9.7 1.3,-3.6 2.5,-6.7 2.9,-7 0.3,-0.3 4,-7.3 8.1,-15.5 4.1,-8.3 7.8,-15.2 8.1,-15.5 0.3,-0.3 1.4,-2.1 2.4,-4 2.1,-4.1 6.6,-11 7.2,-11 0.2,0 1.3,2.1 2.4,4.7 z m -39.1,93.7 c 3.7,1.9 7.9,3.7 9.2,4.1 2.7,0.8 12,4.3 16.4,6.1 13.7,5.9 37,11.4 47.9,11.4 l 4.3,0 3.1,8.1 c 1.7,4.4 3.8,10.6 4.7,13.7 0.9,3.1 2.7,8.8 4.1,12.7 3.2,9 4.2,29.5 1.8,39 -0.8,3.3 -2.4,11.4 -3.5,18 -4.9,28.1 -5.6,29.9 -13.8,35.1 -3,2 -6.7,4 -8.1,4.5 -1.4,0.6 -2.8,1.4 -3.1,1.9 -0.7,1.1 -11,5.3 -20,8 -4.1,1.3 -11.3,3.5 -16,5 -10.8,3.5 -23.2,6 -30.7,6.3 l -5.8,0.2 -2.9,-5.5 c -3.3,-6.3 -9.6,-22.7 -9.6,-25.2 0,-0.9 2,-4.6 4.5,-8.2 2.5,-3.7 4.5,-7.2 4.5,-8 0,-0.7 0.6,-2.6 1.4,-4.2 3.1,-6.5 4.5,-10.1 5.6,-14.2 0.6,-2.3 1.5,-4.2 2,-4.2 0.5,0 1.7,-1.5 2.6,-3.3 2.5,-4.8 9.1,-12.3 12.8,-14.7 3.5,-2.1 6.3,-7.1 5.1,-8.9 -1.3,-2.2 -5.5,-1 -10.2,3 -2.6,2.3 -5.1,4.7 -5.5,5.3 -0.4,0.6 -0.8,-1.9 -0.8,-5.6 0,-3.7 0.5,-7 1,-7.3 1.5,-0.9 1.2,-4.1 -0.5,-5.5 -1.1,-0.9 -2.2,-1 -3.8,-0.3 -2.1,1 -2.4,2.2 -3.4,12.4 -0.8,7.9 -2.5,15.7 -5.4,25.4 -4.7,15.9 -7.4,21.7 -11.8,25.9 -2.8,2.7 -3.6,2.9 -9.3,2.7 -7.9,-0.3 -21.9,-3.6 -27.8,-6.5 -13.5,-6.8 -12.2,-5.9 -25.6,-19.9 -4.2,-4.2 -4.3,-3.4 2.6,-18.2 2.1,-4.4 4.3,-9.5 5.1,-11.4 0.7,-1.8 3.7,-7.2 6.7,-12 3,-4.7 7.1,-11.3 9,-14.6 2,-3.3 6.3,-9 9.6,-12.7 3.4,-3.7 7.9,-8.9 10.1,-11.5 3.5,-4.3 16.4,-16.3 23.2,-21.8 1.3,-1.1 4.3,-3.5 6.5,-5.3 2.2,-1.7 4.6,-3.2 5.4,-3.2 0.8,0 4.6,1.5 8.4,3.4 z m 246.3,3.8 c 7,8 10.6,12.8 12.9,17.6 1.3,2.6 2.5,4.9 2.8,5.2 2.7,2.5 11.4,18.7 16,30 1.2,3 3.3,9.5 4.5,14.5 1.2,4.9 3.3,12.4 4.5,16.5 1.2,4.1 3,10.4 4,14 1.3,4.5 2,10.5 2.2,19.9 l 0.3,13.3 -4.7,1.9 c -2.6,1 -6.9,2.1 -9.7,2.5 l -5.1,0.7 -2.1,-4.9 c -4.8,-11.3 -6.1,-16.8 -6,-25.1 0.1,-4.5 0.5,-9.3 1.1,-10.7 0.5,-1.3 1.1,-4.3 1.4,-6.5 0.4,-3.7 0.2,-4.2 -2,-4.7 -2.7,-0.7 -5.2,0.9 -6.4,4.1 -0.7,1.8 -0.9,1.8 -2,-1 -1,-2.5 -1.7,-7.4 -2,-13.1 -0.1,-3.5 -8,-1.3 -8,2.1 0,0.9 1.2,6.4 2.6,12.3 2.4,9.8 4.9,17.6 13.2,41.2 1.7,4.7 4,11.9 5.3,16 2.3,7.7 7.3,21.2 8.8,24.1 0.5,0.8 1.4,4.2 2,7.5 0.7,3.2 1.6,6.8 2.1,7.9 1.3,3 8.1,25.5 9,30 0.5,2.2 1.8,7.8 3,12.5 1.1,4.7 2.5,11.2 3,14.5 0.5,3.3 2,11.9 3.4,19.2 2.8,14.8 3.5,20.7 4.1,34.3 0.2,5.2 0.7,13.8 1,19 1,16.5 1.4,52.3 0.6,56.7 -1.2,6.4 -9,13.1 -21.1,18.1 -10.6,4.5 -21.7,8.3 -30,10.5 -3,0.8 -6.2,1.8 -7.1,2.2 -2.2,0.9 -5.6,-2.8 -6.4,-6.9 -0.3,-1.7 -1,-4 -1.5,-5.1 -1.3,-3 -2.3,-5.9 -2.4,-6.7 -0.1,-0.3 -0.4,-1 -0.8,-1.4 -0.5,-0.4 -0.8,-2.1 -0.8,-3.9 0,-1.7 -0.7,-4 -1.5,-5.1 -0.8,-1 -1.5,-2.9 -1.5,-4.1 0,-1.2 -0.7,-2.8 -1.5,-3.7 -0.8,-0.8 -1.5,-2.1 -1.5,-2.8 0,-0.7 -0.8,-4 -1.9,-7.3 -1.1,-3.3 -3.2,-9.8 -4.6,-14.5 -1.5,-4.7 -3.1,-8.7 -3.5,-9 -0.4,-0.3 -1,-2.1 -1.4,-4 -0.5,-3.6 -2.6,-11.2 -4.5,-16.5 -0.6,-1.7 -2.3,-7.1 -3.7,-12 -1.5,-5 -3.4,-10.6 -4.2,-12.5 -0.9,-1.9 -1.7,-4.6 -1.9,-5.9 -0.3,-3.7 -3.6,-12.5 -5,-13.7 -0.7,-0.6 -1.2,-2 -1.2,-3 0.4,-4.2 -0.2,-7.3 -1.6,-8.8 -0.8,-0.8 -1.5,-2.3 -1.5,-3.4 0,-1.1 -0.7,-2.5 -1.5,-3.2 -0.8,-0.7 -1.5,-2.7 -1.5,-4.5 0,-1.7 -0.3,-3.5 -0.7,-3.9 -0.4,-0.3 -0.8,-1.4 -0.9,-2.4 -0.4,-3 -4,-14.6 -5.6,-18.2 -0.8,-1.9 -2,-6 -2.7,-9 -0.7,-3 -1.6,-6.4 -2.1,-7.5 -2.5,-6.3 -4,-10.9 -6,-18.5 -1.2,-4.7 -2.6,-9.4 -3,-10.5 -0.5,-1.1 -1.8,-5.2 -3,-9 -1.2,-3.9 -2.8,-8.2 -3.6,-9.7 -2,-3.7 -1.8,-5.3 1.4,-8.5 6.8,-7.2 10.1,-13.3 10.9,-20.4 0.8,-6.9 -1.4,-19.5 -4.3,-24.1 -1.3,-2.1 -2.4,-3.9 -2.4,-4.2 0,-1.2 -7.5,-12.6 -10.3,-15.4 -3.5,-3.7 -9.9,-7.3 -16.5,-9.2 -3.4,-1.1 -4.7,-2.2 -6.7,-5.8 -1.4,-2.4 -3,-6.3 -3.6,-8.6 -0.6,-2.2 -1.4,-4.3 -1.8,-4.6 -0.3,-0.3 -1.6,-4.1 -2.8,-8.5 -1.2,-4.4 -2.8,-9.8 -3.6,-12 -0.9,-2.2 -1.8,-5.6 -2.2,-7.5 l -0.6,-3.5 12.8,0 c 7,0 16.6,-0.4 21.3,-0.8 7.7,-0.7 26.5,-4.7 31.5,-6.7 1.1,-0.5 4.7,-1.6 8,-2.6 6.2,-1.8 21.6,-7.6 32,-12.1 8,-3.4 12.8,-5.2 14,-5.3 0.6,0 2.7,1.9 4.8,4.2 z m -95,87.9 c 2,1.6 5.4,6 7.4,9.7 2.1,3.7 4.4,7.6 5,8.7 6.9,11.2 6.7,22.5 -0.4,32.9 -4,5.6 -13,13.6 -15.5,13.6 -0.8,0 -1.8,0.4 -2.3,0.9 -1.5,1.5 -16.5,4.3 -20.5,3.8 -1.9,-0.2 -7,0 -11.2,0.4 -6.8,0.7 -9.3,1.5 -19.6,6.9 -6.5,3.3 -12.9,7.1 -14.3,8.3 -2.7,2.5 -14.2,9.7 -15.5,9.7 -1.1,0 -19.8,9.2 -20.4,10 -0.3,0.4 -3.1,1.7 -6.4,2.9 -6.8,2.5 -14.3,5.7 -17,7.2 -4.6,2.6 -27,9.5 -38.8,11.9 -4.8,1 -9.6,2.1 -10.6,2.4 -3.7,1.2 -11.2,-8.7 -17.8,-23.4 -0.8,-1.9 -2.9,-6.2 -4.5,-9.5 -1.7,-3.3 -3.1,-6.7 -3.2,-7.6 -0.2,-0.8 -1.3,-2.8 -2.5,-4.3 -1.2,-1.6 -2.2,-3.4 -2.2,-4 0,-0.6 -0.7,-2.5 -1.6,-4.1 -4.1,-7.7 -14.9,-36.4 -14,-37.3 0.2,-0.2 2.4,0.9 4.8,2.4 5.3,3.4 21.8,8.2 34.4,10 4.7,0.7 5,1.1 9.8,12.8 10.8,25.9 10.2,25 17.2,25.4 5.6,0.3 25.8,-2.9 29.9,-4.8 1.1,-0.5 8.8,-3 17,-5.5 8.3,-2.6 19.4,-6.9 24.8,-9.6 5.3,-2.7 9.7,-4.7 9.7,-4.4 0,0.3 1.8,-0.6 4,-2 2.3,-1.4 5.2,-3 6.6,-3.5 1.3,-0.5 2.9,-2.1 3.4,-3.5 0.5,-1.4 1.6,-2.8 2.5,-3.1 0.9,-0.4 1.4,-1.8 1.3,-3.8 -0.1,-3.1 0.6,-7.9 1.5,-9.3 0.3,-0.5 0.8,-4.2 1.2,-8.3 0.4,-4.1 0.9,-7.8 1.1,-8.2 0.3,-0.4 0.7,-2 0.9,-3.5 0.2,-1.6 1.3,-5.5 2.3,-8.8 1.8,-5.6 2,-5.8 2.7,-3.3 0.4,1.6 1,2.8 1.4,2.8 0.3,0 1.2,1.4 1.9,3 4.6,10.3 15,12.3 28.2,5.5 5,-2.6 11.4,-11.3 13.2,-17.9 0.7,-2.6 1.5,-4.6 1.8,-4.6 0.3,0 2.2,1.4 4.3,3.1 z m 142.2,67.9 c -0.3,5.8 -1,13.6 -1.5,17.5 -0.6,3.8 -1.1,8.1 -1.3,9.5 -0.3,2 -0.6,1.6 -1.6,-2 -0.6,-2.5 -3.4,-10.4 -6.1,-17.5 -7.4,-19.7 -7.5,-18 1.2,-19.7 9.9,-2 10.1,-1.7 9.3,12.2 z m -136.5,2.1 c 0,1 9.1,27.3 10.9,31.4 0.5,1.1 1.9,5.4 3.1,9.5 2.3,7.9 4.1,13.5 11.3,34.5 2.5,7.1 6.2,18.4 8.2,25 6.7,21.5 7.7,24.9 10,31.5 2.3,6.7 8.2,25 10.5,33 0.8,2.5 1.4,4.7 1.5,5 0.1,0.3 0.7,1.8 1.3,3.3 0.7,1.6 1.2,3.7 1.2,4.7 0,1 0.5,2.2 1,2.5 0.6,0.4 0.8,1.1 0.4,1.6 -0.3,0.5 0,1.6 0.6,2.4 0.7,0.8 0.9,1.5 0.6,1.5 -0.4,0 0,1.2 0.8,2.7 1.3,2.5 4.4,12.4 7.9,24.8 0.6,2.2 1.8,5.8 2.8,8 1,2.2 2.1,5.6 2.4,7.5 0.7,3.2 2.3,8.8 6.1,21.5 1.5,4.9 1.5,5.2 -0.5,8.7 -3.6,6 -11.7,8 -16.9,4.1 -1.5,-1.1 -2.9,-3.1 -3,-4.4 -0.2,-1.3 -0.9,-3.1 -1.6,-3.9 -2.6,-3.2 -8.2,-19.5 -11.2,-32.5 -0.4,-1.7 -1.6,-4.5 -2.6,-6.3 -1,-1.8 -1.8,-4.3 -1.8,-5.5 0,-1.3 -0.7,-3.2 -1.5,-4.3 -0.8,-1 -1.5,-2.7 -1.5,-3.7 0,-0.9 -0.4,-1.7 -0.9,-1.7 -0.5,0 -0.9,-1 -0.9,-2.3 0,-2.2 -3.5,-15.4 -5.2,-19.2 -1.5,-3.6 -4.8,-13.9 -5.6,-17.5 -1.6,-7 -3.4,-13.1 -4.9,-16.5 -1.5,-3.3 -5.4,-14.1 -6,-16.5 -0.2,-0.8 -0.9,-2.9 -1.6,-4.5 -0.6,-1.7 -1.3,-3.7 -1.5,-4.5 -0.5,-3.1 -6.5,-22.6 -7.3,-24 -0.5,-0.9 -1.2,-3 -1.5,-4.8 -0.4,-1.7 -1.2,-3.4 -1.7,-3.7 -0.5,-0.4 -0.9,-1.5 -0.9,-2.6 0,-1.1 -3.3,-12 -7.4,-24.2 -4.1,-12.2 -8.3,-25.4 -9.4,-29.2 -1.1,-3.9 -3.2,-10.8 -4.6,-15.4 -1.4,-4.7 -2.3,-8.8 -2,-9.2 0.2,-0.4 3,-1.3 6.2,-1.9 3.1,-0.7 5.9,-1.6 6.2,-2 0.5,-0.8 6.8,-3.8 8.3,-3.9 0.4,-0.1 0.7,0.4 0.7,1 z m -26.7,18.1 c 1.9,5.7 6,18.4 9.2,28.3 3.2,9.9 6.6,19.9 7.6,22.2 1,2.3 2.3,5.9 2.8,8 0.5,2.1 2.6,9 4.6,15.3 2,6.3 4.2,13.7 4.9,16.5 0.7,2.7 2,6.6 2.8,8.5 0.9,1.9 2.6,6.9 3.9,11 1.2,4.1 3,9 4.1,10.8 1,1.8 1.8,4.4 1.8,5.7 0,2.5 2.1,9.5 4.5,15 2,4.5 4.2,11.1 6.5,19.5 1.9,6.8 4.8,15.3 7,20.5 0.8,1.9 2.7,8.6 5.1,18 0.5,2.2 2,6.9 3.3,10.5 4.3,11.6 7.8,23.9 7.3,25.3 -0.7,1.8 -20,5.7 -28,5.7 -1.6,0 -7,0.7 -12,1.6 -5.1,0.9 -11,1.8 -13.2,2 -2.2,0.2 -8,0.8 -13,1.4 -10,1 -39.4,0.5 -49.5,-1 -6.7,-0.9 -14.2,-1.6 -26.9,-2.5 -4,-0.3 -7.6,-0.7 -8,-0.9 -0.3,-0.2 -2.8,-0.7 -5.6,-1 -7,-0.9 -25.8,-4.2 -34.1,-5.9 -3.8,-0.9 -9.6,-2 -12.9,-2.7 -20,-3.9 -39.6,-9.5 -48,-13.6 -9.2,-4.7 -10.9,-7.3 -14.6,-22.4 -2,-8.5 -2.7,-37.4 -1,-43.6 0.4,-1.6 0.4,-4.4 0,-6.2 -0.4,-1.8 -0.3,-3.5 0.3,-3.8 0.5,-0.3 0.9,-3.6 0.9,-7.2 0.1,-3.7 0.3,-10.5 0.6,-15.2 0.3,-4.7 0.7,-11.9 0.9,-16 0.3,-9.4 1.3,-22.5 2,-26.5 0.5,-3 0.9,-7.7 1.9,-19.5 1.3,-16 2.4,-24 3.5,-25.5 0.4,-0.6 1,-1.9 1.2,-3 0.3,-1.6 1,-0.9 3.3,3.2 1.7,2.9 3.3,5.3 3.8,5.3 0.4,0 0.7,0.6 0.7,1.2 0,0.7 1.8,3.3 4.1,5.6 3.7,4.1 4.3,4.4 8.2,3.9 2.3,-0.2 7.1,-1.2 10.7,-2.2 3.6,-0.9 9.2,-2.4 12.5,-3.3 13.4,-3.4 26.8,-8.3 36.5,-13.2 4.2,-2.2 8.3,-4 9,-4 0.7,0 5.4,-2.3 10.5,-5 5.1,-2.8 9.8,-5 10.5,-5 1.5,0 21.6,-11.5 24,-13.8 2.2,-2 10.8,-6.3 22,-11 1.4,-0.6 6.6,-1.1 11.6,-1.1 l 9.2,-0.1 3.5,10.2 z m 159.7,222.4 c 0.6,1.4 1,5.8 1,9.7 0,8 -2.5,35.1 -3.9,43.7 -0.6,3 -1.7,10 -2.6,15.5 -0.9,5.5 -2.1,11.3 -2.5,13 -4.7,16.5 -6.3,25.8 -5.6,31.9 0.6,4.4 1.4,5.9 6.4,11.1 3.1,3.4 7.5,7.4 9.7,9 2.2,1.6 4.2,3.2 4.5,3.5 0.3,0.4 5.5,3.8 11.5,7.7 11.8,7.7 16.5,11.6 16.5,13.8 0,1 -2.6,0.5 -10.2,-2.2 -8.1,-2.7 -11.2,-3.4 -14.6,-2.9 -9.8,1.3 -10.5,4.2 -2.9,12.9 11.1,12.9 14,17.6 9,14.8 -1,-0.6 -6.9,-3.2 -13.2,-5.7 -11.2,-4.5 -11.5,-4.6 -14.8,-3 -2.6,1.2 -3.3,2.2 -3.3,4.3 0.1,3.8 1.5,6.1 7.9,12.8 2.9,3.1 5.2,5.8 4.9,6 -0.4,0.4 -5.8,-1.3 -21.3,-7 -5.5,-2 -10.9,-3.9 -12,-4.2 -1.1,-0.4 -2.2,-0.9 -2.5,-1.3 -0.3,-0.4 -2.8,-1.9 -5.6,-3.3 -6.1,-3.1 -19.6,-13.2 -24,-17.9 -1.7,-1.8 -3.9,-4.8 -4.9,-6.5 -1.1,-1.8 -2.2,-3.3 -2.6,-3.3 -1.3,0 -1.6,-4.8 -0.8,-11 0.5,-3.3 2.7,-10.9 4.9,-16.8 2.3,-5.9 4.5,-13.6 5,-17.2 0.5,-3.6 1.5,-8.8 2.1,-11.5 0.6,-2.8 1.1,-9.1 1,-14.1 0,-4.9 0.4,-9.6 0.9,-10.3 0.4,-0.8 3.8,-2.4 7.6,-3.7 7.4,-2.6 8.5,-3.6 8.2,-7.4 -0.3,-2.1 -0.8,-2.5 -3.3,-2.4 -1.6,0 -5,0.8 -7.5,1.6 -10.4,3.6 -15.3,4.9 -31,7.7 -19.4,3.5 -34.8,4.1 -100.5,4.3 -40,0 -54.2,-0.6 -66.2,-3.3 -5.5,-1.2 -11,-1.2 -11.8,0.1 -1.8,2.9 3.9,5.9 14.9,7.7 l 3.9,0.6 -0.8,8.6 c -0.4,4.7 -0.6,11.1 -0.6,14.1 0.2,7.2 3.1,29.9 4.1,32.5 2,4.7 4.3,16.3 3.7,18.6 -1.3,5 -10.4,12.5 -22.6,18.5 -6.4,3.2 -13.4,7 -15.6,8.4 -2.2,1.5 -7.1,4.4 -11,6.5 -3.8,2.1 -7.1,4.2 -7.3,4.6 -0.2,0.5 -0.8,0.9 -1.2,0.9 -0.5,0 -4.5,2.4 -8.9,5.2 -14.5,9.6 -15.1,9.9 -15.7,8.3 -0.7,-1.7 1,-4.6 5.2,-9 5.3,-5.5 9.4,-12 9.4,-14.7 0,-2.5 -2.2,-5.8 -3.9,-5.8 -2.2,0 -16.4,4.1 -22,6.4 -3.6,1.4 -6.8,2.6 -7.3,2.6 -2.1,0 -0.2,-2.7 7.1,-9.8 9.2,-9.1 11.1,-11.7 11.1,-15.4 0,-4.4 -3.2,-5.4 -13.2,-4 -12.8,1.8 -13,1.8 -7.8,-2.9 2.5,-2.2 9.5,-7.3 15.5,-11.3 6.1,-4 11.9,-8.3 12.9,-9.5 1.1,-1.1 2.5,-2.1 3.3,-2.1 1.5,0 5.5,-5.9 4.7,-7.1 -0.2,-0.4 0,-1 0.6,-1.4 2.6,-1.6 -0.3,-33.3 -3.6,-38.2 -0.8,-1.2 -1.4,-3.3 -1.4,-4.5 0,-1.3 -1.2,-5.5 -2.6,-9.3 -1.5,-3.9 -3.7,-10.9 -5,-15.8 -1.3,-4.8 -2.8,-9.5 -3.3,-10.5 -1,-1.9 -6.5,-24 -7.6,-30.5 -0.5,-3.4 -0.4,-3.8 1.2,-3.3 1.9,0.6 12,3.1 26.6,6.6 4.8,1.1 9.2,1.8 9.7,1.5 0.4,-0.3 1,-0.1 1.2,0.5 0.3,1.1 12.7,4 17.3,4 1.7,0 6.4,0.7 10.5,1.6 4.1,0.9 9.5,1.8 12,2 12.3,1 16.7,1.6 19,2.5 1.4,0.5 6.3,1.1 11,1.4 4.7,0.3 13.9,1.1 20.5,1.8 6.6,0.7 14,1.2 16.5,1 2.5,-0.2 5.5,0.1 6.6,0.8 1.4,0.7 2.8,0.8 4,0.2 1.1,-0.6 4.4,-0.7 7.4,-0.4 3,0.4 7.8,0.3 10.5,-0.1 2.8,-0.4 7.1,-0.8 9.8,-0.9 2.6,-0.1 4.7,-0.5 4.7,-0.8 0,-0.4 2,-0.5 4.5,-0.4 2.4,0.1 4.7,-0.2 5,-0.7 0.3,-0.6 2.6,-1 5,-1 2.4,0 4.6,-0.4 4.9,-0.9 0.3,-0.4 1.7,-0.6 3.1,-0.3 1.4,0.2 2.5,0 2.5,-0.5 0,-0.6 3,-0.8 7.3,-0.6 3.9,0.2 10.4,-0.1 14.2,-0.8 12.5,-2.1 13.4,-1.9 18.6,3.1 10.1,10 24,9 31,-2.2 1.6,-2.7 2.9,-5.8 2.9,-7.1 0,-4.8 1.1,-6.5 4.6,-7 5.6,-0.9 23.4,-6.6 30.4,-9.8 3.6,-1.6 6.8,-2.9 7.3,-2.9 0.4,0 1.2,1.2 1.7,2.6 z m -339,10.7 c 0,0.2 1.4,5.7 3.1,12.3 5.6,21.7 5.3,19.6 2.7,21.6 -6.8,5.2 -19.3,4.4 -25.4,-1.6 -2.7,-2.8 -4.7,-8.3 -4.6,-13 0.1,-6.9 4,-12.1 12.2,-16.4 5,-2.6 12,-4.3 12,-2.9 z"
         id="path16"
         inkscape:connector-curvature="0"
         style="fill:#000000;stroke:none" />
      <path
         d="m 1189.4,154.8 c -0.6,0.4 -1.6,1.7 -2.2,2.8 -1,1.9 -5.8,17.2 -6.7,21.4 -0.4,1.9 -7.1,28.3 -14.2,56 -3,11.8 -6.3,24.9 -7.3,29 -1,4.1 -2.5,10 -3.3,13 -0.8,3 -2,8 -2.7,11 -0.7,3 -1.7,6.2 -2.1,7 -0.4,0.8 -1.3,4.4 -1.9,8 -0.6,3.6 -1.5,7.8 -2,9.5 -0.5,1.6 -2.4,8.2 -4.1,14.5 -1.7,6.3 -3.7,13.7 -4.4,16.5 -0.8,2.7 -1.6,6.3 -1.9,8 -0.3,1.6 -1.4,6.4 -2.5,10.5 -1.1,4.1 -3,11.5 -4.2,16.5 -1.2,4.9 -3.8,14.2 -5.7,20.5 -1.9,6.3 -3.6,12.4 -3.8,13.5 -0.9,5.1 3.8,6 13,2.6 3.2,-1.2 9.7,-3.3 14.5,-4.6 7.5,-2.1 12.3,-3.6 24.6,-7.7 1.7,-0.6 4.8,-1.5 7,-2 2.2,-0.6 6,-1.7 8.5,-2.5 15.2,-4.9 29.3,-8.9 36.5,-10.3 3.3,-0.6 6.9,-1.8 8,-2.5 1.1,-0.7 4.1,-1.6 6.5,-2 2.5,-0.4 5,-1 5.5,-1.4 1.1,-0.9 9.2,-3.4 11.5,-3.7 2.1,-0.2 13.1,-3.3 15.5,-4.4 1.1,-0.5 6.1,-2 11,-3.5 5,-1.4 11.7,-3.4 15,-4.5 8.6,-2.8 37.2,-11 57,-16.4 14.8,-4.1 22.3,-6.5 33.7,-10.8 3.4,-1.3 6.3,-4.4 4.9,-5.3 -0.6,-0.3 -0.8,-1.7 -0.5,-2.9 0.6,-2.6 -2.2,-5.9 -11.6,-13.6 -3,-2.5 -7.7,-6.5 -10.5,-9.1 -2.7,-2.5 -5.8,-5.2 -6.7,-6 -2,-1.6 -4.1,-3.4 -15.7,-13.8 -4.6,-4.1 -9.5,-8.4 -11,-9.5 -1.4,-1.2 -4.5,-3.9 -6.7,-6.1 -4.2,-4 -7,-6.6 -21.4,-19.5 -4.1,-3.7 -10.6,-9.5 -14.5,-13 -3.8,-3.5 -10.1,-8.8 -14,-11.9 -3.8,-3.1 -9.7,-8.1 -13,-11.2 -3.3,-3.1 -10,-9.1 -15,-13.4 -4.9,-4.3 -9.4,-8.3 -10,-8.9 -0.5,-0.6 -3.9,-3.6 -7.5,-6.6 -3.6,-3 -9,-7.7 -12.1,-10.5 -27.8,-25.1 -25.6,-23.5 -29.4,-23.5 -1.6,0 -3.5,0.4 -4.1,0.8 z m 9.3,10.8 c 1.9,1.4 5.1,4.2 7.3,6.2 8.4,8.1 12.7,11.9 17.5,15.7 6.4,5.2 12.2,10.2 15.8,14 1.6,1.6 4.3,4 5.9,5.2 1.7,1.2 5.3,4.4 8.2,7 2.8,2.7 8,7.3 11.6,10.3 3.6,3 6.6,5.8 6.8,6.2 0.2,0.4 2.7,2.6 5.5,4.8 7.9,6.3 13.4,11 19.1,16.5 2.9,2.7 7.2,6.7 9.7,8.7 2.4,2 6.2,5.4 8.4,7.5 2.2,2.1 5.8,5.1 8,6.7 2.2,1.6 6.5,5.5 9.5,8.5 3.1,3.1 9.1,8.7 13.5,12.6 4.3,3.8 9.5,8.6 11.5,10.5 2,1.9 5.2,4.7 7.1,6.1 3.8,3 16.8,15.5 18.8,18.1 1,1.4 0.9,1.9 -1.1,2.9 -2.6,1.4 -14.4,5 -26.1,7.9 -4.2,1.1 -12.5,3.5 -18.5,5.4 -5.9,1.8 -13.8,4.3 -17.7,5.4 -3.8,1.2 -10.6,3.3 -15,4.7 -4.4,1.4 -8.7,2.5 -9.7,2.5 -0.9,0 -1.9,0.4 -2.2,0.9 -0.3,0.5 -2.3,1.2 -4.3,1.6 -3.7,0.6 -14.2,3.6 -33.8,9.7 -15.5,4.8 -18.5,5.6 -26,7.3 -3.8,0.8 -9.2,2.4 -12,3.4 -5.7,2.1 -19.3,6.4 -27.5,8.5 -12.9,3.5 -23.7,6.6 -26,7.7 -4.3,1.9 -26.3,7.8 -29.4,7.9 -2.2,0 -2.1,-1 2,-16.5 1.4,-5.5 3.4,-13.4 4.4,-17.5 2.7,-11.3 3.8,-15.6 6.5,-26.5 1.4,-5.5 3.5,-14.1 4.7,-19 1.1,-5 3.1,-13.3 4.5,-18.5 1.3,-5.2 3.2,-13.6 4.3,-18.5 1,-5 3.3,-13.7 4.9,-19.5 1.6,-5.8 6.1,-22.9 10,-38 8.7,-34.4 12.1,-47.1 12.6,-48 0.2,-0.3 1.3,-4 2.4,-8.1 2.4,-9.1 3.8,-12.9 4.7,-12.9 0.4,0 2.2,1.2 4.1,2.6 z"
         id="path18"
         inkscape:connector-curvature="0"
         style="fill:#000000;stroke:none" />
      <path
         d="m 1205,211.8 c -8,3 -13,6.5 -16.5,11.4 l -3.4,4.7 3.9,7.8 c 2.2,4.3 5.4,11.8 7.2,16.8 3.8,10.9 7.9,21.3 14.7,36.6 2.8,6.4 5.7,14 6.4,16.9 0.8,2.9 2.1,5.7 3,6.2 0.9,0.5 1.7,1.6 1.7,2.3 0,2.7 5.1,1.6 16.9,-3.8 12,-5.4 15.1,-7.5 15.1,-10.4 0,-0.9 -1.8,-7.1 -3.9,-13.7 -3.6,-11.2 -13.2,-54.5 -15,-67.9 -0.4,-3.2 -1.3,-6.3 -1.9,-6.9 -0.6,-0.6 -6,-1.2 -12.4,-1.4 -9,-0.3 -12.2,0 -15.8,1.4 z m 20.2,7.4 c 1.5,1.2 2.9,6.3 7.3,26.8 4.7,21.8 5.9,26.5 8.6,36.2 4.3,15.2 4.1,15.8 -6.1,20.1 -5.6,2.3 -8.7,2.8 -9.7,1.4 -0.5,-0.6 -2.4,-5 -4.3,-9.7 -1.8,-4.7 -4.9,-11.6 -6.7,-15.3 -1.9,-3.8 -4.7,-10.8 -6.3,-15.5 -2.5,-7.3 -6.6,-18.4 -11.8,-31.3 -0.9,-2.3 -0.7,-3 2.1,-5.6 4.8,-4.4 6.3,-5.4 10.4,-6.9 4.8,-1.7 14.4,-1.8 16.5,-0.2 z"
         id="path20"
         inkscape:connector-curvature="0"
         style="fill:#000000;stroke:none" />
      <path
         d="m 1240.6,320.5 c -4.6,1.6 -10.1,6.7 -12.3,11.4 -1.4,2.9 -1.5,4 -0.4,8 3.4,12.7 12.7,20.1 25.3,20.1 5.5,0 9.4,-2.8 12.7,-9 5.3,-10.3 -0.5,-24.5 -12.4,-30.1 -4.7,-2.2 -7.6,-2.3 -12.9,-0.4 z m 10,8.6 c 3.6,1.3 8,6.3 8.7,9.6 0.6,3.1 -2.7,10.9 -5.1,12.2 -2.4,1.2 -8.2,0.2 -11.4,-2.1 -3.4,-2.4 -6.8,-7.8 -6.8,-11 0,-2.9 2.6,-6.2 6.6,-8.3 3.5,-1.8 4.4,-1.8 8,-0.4 z"
         id="path22"
         inkscape:connector-curvature="0"
         style="fill:#000000;stroke:none" />
      <path
         d="m 1475.7,507 c -7.5,1.4 -12.6,9.3 -12.7,19.5 0,12.3 8.3,21 20.2,21 5.8,0 6,-0.1 10.3,-4.9 6.2,-7 7.3,-13.8 3.5,-22.3 -3.3,-7.6 -11,-14.5 -15.7,-14.2 -1,0.1 -3.5,0.5 -5.6,0.9 z"
         id="path24"
         inkscape:connector-curvature="0"
         style="fill:#000000;stroke:none" />
      <path
         d="m 1404.4,369.4 c -6.6,4.5 -8.6,8.8 -8.7,19.2 0,9.3 0.7,12.1 3.4,12.9 3.2,1.1 5,-1.2 4.3,-5.5 -0.9,-5.8 1.2,-14.3 4.4,-17.2 3.5,-3.3 9.2,-5.1 12.3,-3.9 1.3,0.5 4.5,3.2 7,6 4.7,5.2 7.7,6.3 9.9,3.6 1.7,-2.1 0.6,-4.4 -5.2,-10.7 -5.8,-6.2 -9.4,-7.8 -17.2,-7.8 -4.2,0 -6.1,0.6 -10.2,3.4 z"
         id="path38"
         inkscape:connector-curvature="0"
         style="fill:#000000;stroke:none" />
    </g>
    <path
       style="fill:#ffeeaa"
       d="m 294.34539,505.81821 c -8.92725,-0.74652 -21.84358,-2.81158 -28.70297,-4.58902 -19.39082,-5.02466 -45.15387,-15.43834 -46.43162,-18.76813 -0.63512,-1.6551 0.77009,-6.97119 3.12269,-11.81355 8.41893,-17.32868 15.53531,-53.39638 10.53544,-53.39638 -1.07052,0 -7.79734,-5.47327 -14.94849,-12.16282 -25.59779,-23.94548 -39.94756,-65.5112 -34.33633,-99.45904 l 1.25226,-7.57614 13.37272,-0.0113 c 15.74112,-0.0133 28.28385,-3.07042 29.90244,-7.2884 0.63473,-1.6541 -0.93434,-5.23045 -3.48683,-7.94745 -2.55249,-2.717 -4.23384,-5.34705 -3.73635,-5.84454 1.02917,-1.02917 13.98289,1.67945 29.53598,6.17596 l 10.55826,3.05247 -0.16932,12.02833 c -0.28021,19.90576 7.73801,23.72663 20.58602,9.80972 l 7.57751,-8.20791 11.88412,5.99908 c 6.53627,3.2995 15.64449,10.07861 20.2405,15.06469 10.14016,11.00077 12.2598,21.19449 9.21016,44.29328 -1.79516,13.59703 -3.0879,16.94405 -9.62618,24.92317 -4.1539,5.06929 -11.08237,11.44516 -15.39659,14.16861 -10.14519,6.40438 -10.09179,10.52512 0.38817,29.95428 10.52713,19.51663 19.49947,45.89231 20.37664,59.90052 l 0.68558,10.9485 -8.08122,1.05167 c -4.44467,0.57842 -15.38534,0.44087 -24.31259,-0.30563 z M 240.68027,395.53285 c 5.52594,-4.5517 8.06643,-13.95826 5.93337,-21.96928 -2.03708,-7.65055 -5.13765,-10.43768 -13.46401,-12.10296 -5.3978,-1.07955 -7.38019,-0.21743 -13.44451,5.84689 -8.46815,8.46815 -9.52799,18.04449 -2.92592,26.43766 5.06795,6.44286 17.1522,7.3467 23.90107,1.78769 z"
       id="path3340"
       inkscape:connector-curvature="0" />
    <path
       style="fill:#d4aa00"
       d="m 372.04498,496.82437 c 2.25109,-7.52085 22.54878,-64.85178 28.47524,-80.42845 4.24841,-11.16622 4.74613,-11.70691 7.43904,-8.08122 8.71313,11.7312 34.94748,64.81608 34.94748,70.71577 0,1.22201 -2.50013,3.39225 -5.55584,4.82275 -12.93672,6.05618 -46.75878,16.63713 -56.50675,17.67767 l -10.5448,1.12559 1.74563,-5.83211 z"
       id="path3342"
       inkscape:connector-curvature="0" />
    <path
       style="fill:#d4aa00"
       d="m 328.90298,468.23235 c -3.14579,-9.7054 -9.51997,-25.23671 -14.16484,-34.51402 l -8.44521,-16.86783 12.67778,-12.17382 c 16.81717,-16.14868 19.89032,-24.2455 19.89032,-52.40494 0,-24.86462 -1.70697,-24.62767 20.70813,-2.8745 10.24052,9.93812 14.64721,15.68721 14.64721,19.10918 0,4.3348 -12.83184,42.8427 -32.89467,98.71578 l -6.69909,18.65635 -5.71963,-17.6462 z"
       id="path3344"
       inkscape:connector-curvature="0" />
    <path
       style="fill:#d4aa00"
       d="m 444.92705,682.94556 c -22.01625,-6.06462 -49.44619,-17.15727 -68.69038,-27.77835 -32.67336,-18.0328 -36.67162,-19.72313 -46.65228,-19.72313 -18.80913,0 -30.38824,-3.82786 -39.71576,-13.12936 -10.78508,-10.75499 -11.44593,-19.19466 -2.69732,-34.44708 5.38886,-9.395 11.75106,-16.74175 12.84767,-14.83584 0.25094,0.43613 1.97727,3.52038 3.83629,6.85389 4.74121,8.50169 11.74557,13.24191 21.50015,14.55027 7.47763,1.00297 8.99953,0.44624 14.30442,-5.23266 l 5.9365,-6.35504 2.04838,6.59993 c 1.12662,3.62997 2.65239,11.60019 3.39061,17.71161 0.73822,6.11143 2.50794,12.95514 3.93271,15.20827 6.15402,9.73186 58.78925,28.88428 84.41814,30.71728 l 15.67233,1.1209 7.27567,-16.17796 7.27567,-16.17796 16.44794,-4.12003 c 9.04638,-2.26602 18.06848,-4.77085 20.04912,-5.5663 3.31696,-1.33212 3.26435,-0.59008 -0.66649,9.40168 -5.40303,13.73382 -25.40389,53.51529 -30.59368,60.85049 -4.7296,6.68475 -7.40236,6.73204 -29.91969,0.52939 z"
       id="path3346"
       inkscape:connector-curvature="0" />
    <path
       style="fill:#d4aa00"
       d="m 163.40594,647.60794 c -0.72688,-3.63441 -1.32161,-10.5855 -1.32161,-15.44686 0,-9.18469 2.07526,-10.61832 10.39576,-7.18161 2.97813,1.23009 2.74736,2.82541 -2.21393,15.30487 -5.46143,13.73748 -5.55703,13.83954 -6.86022,7.3236 z"
       id="path3348"
       inkscape:connector-curvature="0" />
    <path
       style="fill:#d4aa00"
       d="m 456.95148,1024.7039 c -6.05787,-3.618 -21.74946,-12.3813 -34.87021,-19.4741 -13.12077,-7.09272 -24.73946,-14.54679 -25.81935,-16.56456 -1.357,-2.53557 -0.92765,-7.57474 1.39009,-16.31544 1.87514,-7.07149 3.46042,-21.20398 3.596,-32.05769 l 0.24248,-19.41093 7.94398,-1.80227 c 15.15742,-3.4388 10.44182,-9.72738 -5.05174,-6.73683 -12.31143,2.37634 -128.67985,2.23363 -147.34406,-0.1807 -8.33376,-1.07802 -22.34443,-3.82154 -31.13482,-6.0967 -12.5093,-3.2377 -16.32195,-3.58749 -17.54437,-1.60958 -2.14728,3.47437 -0.61545,5.35892 6.91261,8.50435 6.26124,2.61611 6.51574,3.21611 8.95204,21.10478 1.37917,10.12667 4.21342,22.76554 6.29833,28.08638 6.80472,17.36612 7.10321,21.90044 1.90509,28.93963 -6.8128,9.22576 -29.51596,23.58156 -46.34625,29.30586 -8.03174,2.7318 -14.97931,4.9669 -15.43905,4.9669 -0.45973,0 1.51778,-2.7972 4.39447,-6.216 2.8767,-3.4187 5.23036,-7.4925 5.23036,-9.0528 0,-5.069 -9.6497,-5.6608 -20.27858,-1.2436 -5.5143,2.2916 -10.026,3.6453 -10.026,3.0082 0,-0.6371 3.16125,-4.6575 7.025,-8.9342 8.67356,-9.60063 7.72016,-13.92713 -3.06902,-13.92713 -4.25345,0 -10.19166,0.93457 -13.19602,2.07683 -9.738,3.70237 -7.34174,0.68994 6.65446,-8.36564 7.5335,-4.87418 17.56109,-12.3875 22.28356,-16.69626 9.76158,-8.90645 10.83179,-15.08329 5.66766,-32.71171 -6.97246,-23.80141 -13.41095,-78.07328 -9.54556,-80.46223 1.18429,-0.73193 10.33238,1.15914 20.32909,4.20239 15.20237,4.62798 18.37278,6.31791 19.37976,10.33004 3.5123,13.99414 18.82469,18.55068 32.08949,9.54894 7.15904,-4.85825 7.93404,-4.94773 27.06587,-3.12483 10.83269,1.03215 26.50762,2.94444 34.83319,4.24955 28.70079,4.49909 110.21393,-2.90599 157.19181,-14.28013 9.23752,-2.23656 18.03603,-4.06648 19.55225,-4.06648 3.13036,0 -2.10821,21.52726 -12.97953,53.33797 -7.12019,20.83442 -9.82986,40.88668 -6.39286,47.30879 1.27286,2.37834 7.97461,8.13233 14.8928,12.78665 6.91822,4.65432 14.85139,10.24807 17.62931,12.43057 l 5.05076,3.96816 -7.66445,-1.38457 c -9.11505,-1.64662 -15.56906,0.0168 -15.56906,4.01274 0,1.58867 3.40927,6.67892 7.57615,11.31165 l 7.57614,8.4232 -7.07107,-1.6548 c -3.88909,-0.9101 -10.23193,-1.7432 -14.0952,-1.8513 -9.4821,-0.2654 -10.13349,4.4499 -1.90877,13.8173 3.5421,4.0343 6.04807,7.7271 5.56883,8.2063 -0.47925,0.4793 -5.82777,-2.0888 -11.88561,-5.7067 z"
       id="path3350"
       inkscape:connector-curvature="0" />
    <path
       style="fill:#d4aa00"
       d="m 367.1453,344.52014 c -6.59744,-6.667 -11.32199,-12.12183 -10.499,-12.12183 0.82299,0 7.3621,2.65966 14.53136,5.91036 l 13.03501,5.91036 -2.16533,6.21147 c -1.19093,3.41631 -2.33214,6.21147 -2.53601,6.21147 -0.20388,0 -5.76859,-5.45482 -12.36603,-12.12183 z"
       id="path3352"
       inkscape:connector-curvature="0" />
    <path
       style="fill:#d4aa00"
       d="m 412.76468,381.63882 c 0.33939,-1.69697 1.49433,-4.9926 2.56653,-7.32361 l 1.94945,-4.23821 0.0813,4.04061 c 0.0478,2.3769 -0.74284,5.39238 -1.92034,7.32361 -2.50934,4.11562 -3.47484,4.18689 -2.67698,0.1976 z"
       id="path3354"
       inkscape:connector-curvature="0" />
    <path
       style="fill:#d4aa00"
       d="m 484.48227,891.37897 c -3.31426,-2.42345 -3.41467,-3.68649 -1.11133,-13.97891 3.68513,-16.46689 4.39713,-17.19588 12.8556,-13.16232 3.90037,1.85995 8.60786,5.69587 10.46109,8.52426 7.9583,12.14591 -10.21636,27.38353 -22.20536,18.61697 z"
       id="path3356"
       inkscape:connector-curvature="0" />
    <path
       style="fill:#e9ddaf"
       d="m 217.03663,869.39541 c -1.3334,-1.33341 -2.42436,-3.67995 -2.42436,-5.21453 0,-4.44253 59.06357,-179.29436 72.71982,-215.2798 3.93865,-10.37869 4.99772,-11.63412 8.80998,-10.44349 2.38324,0.74432 6.37872,1.84046 8.87885,2.43588 2.50013,0.59541 4.54568,2.17997 4.54568,3.52125 0,2.4172 -20.91475,64.80076 -48.4695,144.57254 -7.86829,22.77894 -16.19383,47.32565 -18.5012,54.54824 -6.92149,21.66591 -11.02087,28.28427 -17.51911,28.28427 -3.08869,0 -6.70676,-1.09096 -8.04016,-2.42436 z"
       id="path3358"
       inkscape:connector-curvature="0" />
    <path
       style="fill:#e9ddaf"
       d="m 315.01918,581.33984 c -4.23949,-4.68458 -4.33534,-8.35715 -0.366,-14.02419 1.68645,-2.40774 8.91671,-21.9292 16.06724,-43.381 7.15053,-21.45182 21.32062,-62.1863 31.4891,-90.52108 10.16848,-28.33478 22.0486,-62.61382 26.40027,-76.17565 7.29891,-22.7468 29.44074,-83.48934 31.00293,-85.05153 0.37251,-0.37251 4.40235,0.43877 8.9552,1.80284 5.52982,1.65677 8.27791,3.63629 8.27791,5.96278 0,3.61562 -29.67216,91.00304 -54.16542,159.52247 -22.17905,62.04551 -42.08187,119.11555 -46.14923,132.32999 -3.57303,11.60839 -4.03495,12.14736 -10.9054,12.72491 -5.01272,0.42137 -8.20846,-0.53963 -10.6066,-3.18954 z"
       id="path3360"
       inkscape:connector-curvature="0" />
    <path
       style="fill:#ff0000"
       d="m 567.8559,307.17147 c -1.02096,-1.02098 -63.77349,-20.05609 -119.8984,-36.36957 -90.02377,-26.16663 -148.6501,-44.61943 -159.09902,-50.07686 -9.81704,-5.12739 -11.61676,-6.92055 -11.61676,-11.57436 0,-3.02884 1.82073,-7.82165 4.04605,-10.6507 3.98404,-5.06488 30.7815,-27.37205 75.7793,-63.08141 12.60177,-10.00051 30.33338,-24.09214 39.40359,-31.31473 9.07021,-7.222593 24.08929,-19.041378 33.37574,-26.263969 9.28645,-7.22259 28.7663,-22.47273 43.28856,-33.889197 28.99117,-22.791006 37.81157,-28.721313 42.73538,-28.732708 5.68251,-0.01315 13.31355,7.681481 15.46265,15.591499 35.01898,128.892485 65.16072,247.633635 65.70291,258.831755 0.5634,11.63601 -6.70089,18.51343 -19.55482,18.51343 -4.75309,0 -9.08442,-0.44243 -9.62518,-0.98318 z m 5.77939,-29.09494 c -8.0448,-28.57804 -23.91377,-86.69821 -39.97523,-146.40956 -11.0161,-40.954254 -21.17722,-76.865177 -22.58027,-79.802052 -5.77768,-12.093959 -1.21531,-15.359503 -134.75473,96.451462 -57.47953,48.12692 -62.12248,52.28752 -63.27729,56.70351 -0.82144,3.14122 0.27157,4.92909 4.27354,6.99034 4.85417,2.50018 49.83838,15.3244 143.76818,40.98583 18.33426,5.00888 50.09875,13.91932 70.58774,19.80095 20.48898,5.88163 38.5177,10.20846 40.0638,9.61518 1.5461,-0.59331 2.39851,-2.54434 1.89426,-4.33566 z"
       id="path3362"
       inkscape:connector-curvature="0" />
    <path
       style="fill:#ff0000"
       d="m 463.61487,177.86342 c -3.6113,-1.56961 -6.56662,-4.03416 -6.56739,-5.47676 -0.003,-6.22703 15.02012,-63.48999 17.31963,-66.01515 3.23825,-3.55602 14.94505,-1.57072 21.35772,3.62195 l 4.6191,3.74032 -7.81511,19.93377 c -7.05779,18.00208 -20.66496,47.32718 -21.86828,47.1288 -0.26383,-0.0435 -3.43438,-1.36331 -7.04567,-2.93293 z"
       id="path3364"
       inkscape:connector-curvature="0" />
    <path
       style="fill:#ff0000"
       d=""
       id="path3366"
       inkscape:connector-curvature="0" />
    <path
       style="fill:#ff0000"
       d="m 443.03275,216.73585 c -1.37612,-3.54597 -0.7157,-5.62601 3.0029,-9.45788 4.15706,-4.28368 5.4251,-4.61234 9.91042,-2.5687 6.03582,2.7501 6.6663,8.50691 1.4488,13.22868 -5.3226,4.81689 -12.25133,4.23696 -14.36212,-1.2021 z"
       id="path3368"
       inkscape:connector-curvature="0" />
  </g>
</svg>
