<?xml version="1.0" encoding="UTF-8" standalone="no"?>
<!-- Created with Inkscape (http://www.inkscape.org/) -->

<svg
   xmlns:dc="http://purl.org/dc/elements/1.1/"
   xmlns:cc="http://creativecommons.org/ns#"
   xmlns:rdf="http://www.w3.org/1999/02/22-rdf-syntax-ns#"
   xmlns:svg="http://www.w3.org/2000/svg"
   xmlns="http://www.w3.org/2000/svg"
   xmlns:sodipodi="http://sodipodi.sourceforge.net/DTD/sodipodi-0.dtd"
   xmlns:inkscape="http://www.inkscape.org/namespaces/inkscape"
   width="210mm"
   height="297mm"
   viewBox="0 0 744.09448819 1052.3622047"
   id="svg4855"
   version="1.1"
   inkscape:version="0.91 r13725"
   sodipodi:docname="gopher-big-board.svg">
  <defs
     id="defs4857" />
  <sodipodi:namedview
     id="base"
     pagecolor="#ffffff"
     bordercolor="#666666"
     borderopacity="1.0"
     inkscape:pageopacity="0.0"
     inkscape:pageshadow="2"
     inkscape:zoom="0.49497475"
     inkscape:cx="675.47371"
     inkscape:cy="400.61699"
     inkscape:document-units="px"
     inkscape:current-layer="layer1"
     showgrid="false"
     inkscape:window-width="1366"
     inkscape:window-height="705"
     inkscape:window-x="-8"
     inkscape:window-y="-8"
     inkscape:window-maximized="1" />
  <metadata
     id="metadata4860">
    <rdf:RDF>
      <cc:Work
         rdf:about="">
        <dc:format>image/svg+xml</dc:format>
        <dc:type
           rdf:resource="http://purl.org/dc/dcmitype/StillImage" />
        <dc:title></dc:title>
      </cc:Work>
    </rdf:RDF>
  </metadata>
  <g
     inkscape:label="Layer 1"
     inkscape:groupmode="layer"
     id="layer1">
    <g
       id="g5415"
       transform="matrix(0.76807619,0,0,0.8544752,-220.32143,530.0402)">
      <g
         id="g4838"
         transform="matrix(1.25,0,0,1.25,295.1516,-405.01338)">
        <path
           style="fill:#000000;stroke:none"
           inkscape:connector-curvature="0"
           id="path8"
           d="m 489.5,33.8 c -9,0.4 -11.5,1.9 -18.8,11.2 -4.6,5.9 -5.2,7.6 -5.8,17.5 -0.3,5.5 -1.1,15.6 -1.7,22.5 -1.6,16.7 -3.1,40.3 -3.7,57.5 -0.3,7.7 -0.8,15.7 -1.2,17.7 l -0.6,3.8 -15.1,0.1 c -8.3,0.1 -15.5,0 -16.1,-0.1 -0.5,-0.1 -3.4,-0.4 -6.3,-0.7 -4.4,-0.5 -5.5,-1 -6.7,-3.2 -0.7,-1.4 -4.3,-5.2 -8,-8.5 -6.9,-6.1 -14.4,-9.5 -25.4,-11.6 -6.5,-1.2 -21.6,1.8 -30.3,6.1 -1,0.5 -2.2,0.9 -2.7,0.9 -1,0 -12.2,6.6 -18.6,11 -2.2,1.5 -7,4 -10.5,5.5 -3.6,1.5 -7.2,3.3 -8,4 -1.1,1 -5.1,1.4 -13.5,1.5 -8.5,0.2 -12.9,0.6 -15,1.7 -3,1.5 -10,9.4 -15,16.7 l -2.7,3.9 -0.4,45.1 c -0.5,40.3 -0.7,45.2 -2.1,46.3 -1,0.8 -4.8,1.3 -9.4,1.3 -8.9,0 -19.3,2 -29.2,5.5 -3.7,1.4 -7.2,2.5 -7.7,2.5 -0.5,0 -0.9,-3.2 -0.9,-7.1 0.1,-6.4 -0.2,-7.5 -2.8,-10.7 -4.1,-5 -7.3,-5.9 -13.9,-3.8 -4.2,1.3 -6.4,2.9 -10.9,7.9 -6.2,6.8 -21.5,32.8 -21.5,36.5 0,2.9 -8.4,11.2 -11.3,11.2 -1.2,0 -3.9,-1.6 -6.1,-3.5 -3.3,-3.1 -4.5,-3.5 -9.1,-3.5 -4.5,0 -5.7,0.4 -7.3,2.5 -3.5,4.4 -3.6,9.5 -0.2,18.1 l 3.1,7.7 -3.2,4.6 c -1.8,2.5 -3.5,4.8 -3.8,5.1 -1.8,1.6 -8.5,14 -10.5,19.5 -1,2.8 -2.4,5.7 -3.1,6.5 -0.7,0.8 -1.1,2.9 -0.8,4.6 0.5,3 0.3,3.1 -11.9,9.3 -6.7,3.4 -13.1,7.1 -14.1,8.3 -4.3,5.1 -1.2,8.6 13.2,14.7 l 11.3,4.9 -5.8,4.1 c -3.3,2.2 -7.8,5.4 -10.2,7.1 -2.3,1.6 -4.6,3 -5.1,3 -1.3,0 -9.3,-8.9 -13,-14.5 -1.9,-2.8 -4.2,-5.9 -5.1,-7 -1,-1.1 -3.7,-5.8 -6.1,-10.5 -5.2,-10.4 -6.3,-11.4 -9.3,-8.5 -1.5,1.6 -1.4,4.1 0.5,14 1.4,6.7 3.9,17.4 4.6,19.1 0.3,0.9 -0.2,1.4 -1.3,1.4 -2.3,-0.1 -13,-10 -18,-16.7 -2,-2.6 -4.5,-5.6 -5.5,-6.6 -2.1,-2 -6.5,-2.3 -7.2,-0.4 -0.3,0.8 1.5,5.3 3.9,10 4,7.9 6.8,15.8 8.1,22.9 0.5,2.4 0.2,2.8 -1.8,2.8 -3.8,-0.1 -16.1,-4.5 -20.8,-7.4 -2.6,-1.7 -5.3,-2.6 -6.9,-2.4 -2.3,0.3 -2.7,0.8 -3,3.8 -0.2,3.3 0.1,3.7 5,6.5 6.9,4 14.1,11.3 21.1,21.2 3.2,4.5 8.3,10.5 11.5,13.3 5.5,5 20.6,13.2 26.7,14.6 4.5,1 6.7,3.5 14.6,16.8 4,6.6 8.7,13.7 10.5,15.6 1.7,1.9 5.6,7.1 8.5,11.5 4.9,7.5 10.5,14.8 15.6,20.5 1.3,1.4 2.3,2.8 2.3,3.1 0,1 3.4,4.3 5.7,5.7 3,1.6 5.9,1.5 9.1,-0.2 1.5,-0.8 5.2,-2.6 8.2,-3.9 10.1,-4.6 19.6,-10.9 43.8,-29 7.3,-5.5 13.5,-9.8 13.8,-9.5 0.2,0.3 -0.4,3.2 -1.5,6.4 -5.3,16.3 -10.8,37.3 -12.6,48.4 -0.5,3.4 -2.2,18.6 -3.2,28 -0.2,2.5 -0.5,14.8 -0.7,27.4 -0.3,25 0.7,34.2 4.4,41.9 l 2.3,4.8 -2.2,2.3 c -3.6,3.8 -8.2,13.9 -8.8,19.2 -0.5,4.8 -0.3,5.3 3.1,9.2 2.9,3.2 4.7,4.2 8.2,4.8 2.5,0.3 5,0.2 5.7,-0.4 2.4,-1.9 5.7,-2.4 5.7,-0.9 0,0.9 1.5,6.2 3.4,11.9 5.2,15.8 5.3,16 1,18.1 -7.5,3.7 -20.1,12.6 -25.3,17.9 -6.3,6.3 -13.1,17.1 -13.1,20.5 0,6.1 5.1,8.7 7.1,3.6 1,-2.7 4,-5.9 7.6,-8 1.9,-1.1 2,-1 1.1,3.5 -0.5,2.6 -1,5.7 -1.2,7 -0.1,1.2 -0.6,2.5 -0.9,2.9 -0.9,0.8 -0.9,5.8 -0.1,6.6 1,0.9 5.3,-1.4 6.8,-3.8 1.5,-2.3 12.9,-10.5 14.5,-10.5 0.6,0 0.6,1.2 0,3.2 -0.6,1.8 -1.2,5.4 -1.4,8 -0.3,3.9 0,5 1.5,5.8 1.5,0.8 2.6,0.1 6.4,-4.4 4.5,-5.3 8.5,-7.7 25.9,-15.5 11.1,-5 14.1,-6.8 20.7,-12.5 3.9,-3.3 7,-6.7 7,-7.7 0,-0.9 -0.7,-2.9 -1.5,-4.5 -0.7,-1.5 -1.7,-5.3 -2.1,-8.3 -0.4,-3 -1.3,-7 -2.1,-8.8 -1.3,-3.3 -2.3,-19.6 -1.2,-20.7 0.3,-0.3 7.7,-0.1 16.5,0.5 28.7,1.9 40.5,2.1 55.2,0.9 7.9,-0.6 14.7,-0.8 15.1,-0.5 1.9,2 -1,34.4 -4,44.1 -1.1,3.7 -1.6,7 -1.2,7.8 1.3,2.2 12.5,10 16.4,11.4 1.9,0.6 5.2,1.2 7.3,1.2 2,0 4.5,0.4 5.4,0.9 1,0.5 8.8,0.3 18.7,-0.5 9.4,-0.7 21.5,-1.3 27.1,-1.3 24.1,-0.2 29.4,-1.7 29.4,-8.4 0,-1.8 0.9,-7.4 1.9,-12.4 1.1,-5.1 2.5,-15.2 3.1,-22.5 0.6,-7.3 2,-17.1 3,-21.8 1,-4.7 2.1,-11.4 2.4,-14.9 0.4,-3.5 0.8,-6.6 1.1,-6.9 1,-1.1 9.6,-2.1 17.6,-2.2 l 8.6,0 0.6,4.7 c 0.3,2.7 1,7.6 1.7,11.1 1.2,7.3 1.7,51.8 0.6,60.9 -1,8.3 0.1,10.4 5.7,10.3 2.3,0 15.9,0.2 30.2,0.4 21.9,0.4 26.3,0.2 28,-1 1.8,-1.4 2,-2.7 2.2,-15.2 0,-7.5 0.3,-21.8 0.5,-31.7 0.2,-9.9 0.2,-23.5 -0.1,-30.3 l -0.6,-12.3 3.9,0.3 c 3.8,0.3 4,0.5 5.2,4.8 0.7,2.5 2.9,8.2 4.9,12.7 2,4.6 4.7,12 5.9,16.5 1.3,4.6 3.8,11.9 5.6,16.3 1.7,4.4 4.2,11.1 5.5,15 3.1,9.6 7,17.7 9.4,19.9 1.5,1.4 1.8,2.2 1,3.2 -0.7,0.8 -0.7,1.4 0.1,1.9 0.5,0.3 1,0.3 1,-0.2 0,-0.4 0.4,-0.3 0.8,0.4 0.9,1.4 55.2,3.1 61.4,1.9 2.4,-0.4 3.9,-1.4 4.3,-2.6 0.4,-1.1 1.5,-2 2.5,-2 2.4,0 3.4,-2.9 1.7,-4.9 -3.5,-4 -16.7,-36.5 -16.7,-41 0,-0.6 -1,-3.4 -2.3,-6.3 -1.3,-2.9 -3.1,-7.1 -3.9,-9.3 -0.9,-2.2 -3.2,-8.1 -5.1,-13 -4.6,-11.6 -5.5,-17.1 -3,-17.9 3,-0.9 45.1,-2.6 76.3,-3 33.8,-0.5 37.6,-1.1 37.3,-6.1 -0.1,-1.7 -0.9,-12 -1.8,-23 -3.1,-39.3 -4.8,-82.2 -3.6,-93.5 0.2,-1.9 0.1,-8.7 -0.3,-15 -1.7,-29.9 -2.7,-51.8 -3.2,-65.5 -0.3,-8.3 -1,-18.4 -1.5,-22.5 -2.4,-17 -2.7,-21.6 -2.8,-46 0,-14 -0.5,-29.3 -1.1,-34 -1.7,-14.6 -4.2,-45.7 -4.1,-52.5 0,-4.4 -0.4,-6.5 -1.2,-6.5 -0.8,0 -0.8,-0.3 0.2,-0.9 1.2,-0.8 1.3,-12.5 0.1,-41.1 -0.1,-0.8 -0.1,-7.6 0,-15 0.1,-15.2 -0.6,-30.3 -2,-46.5 -0.5,-6.1 -1,-15.7 -1.1,-21.5 0,-5.8 -0.4,-12.9 -0.8,-15.7 -0.4,-2.9 -0.4,-7.7 0,-10.5 0.4,-3.4 0.3,-6.2 -0.5,-7.7 l -1.1,-2.3 -37,-0.1 c -31.7,-0.1 -62.8,0.6 -82,1.8 -2.7,0.1 -11.7,0.4 -20,0.6 l -15,0.4 -0.3,-3.5 c -0.5,-6.7 -3.3,-24.3 -3.9,-25.4 -0.4,-0.6 -1,-4.4 -1.4,-8.6 C 562,105 561,96.7 560,93.2 559.5,91 558.5,83.5 558,76.4 557.4,69.3 556.5,61.9 556,60 c -0.5,-1.9 -1.4,-7.6 -1.9,-12.7 -0.6,-5.1 -1.4,-9.9 -1.7,-10.7 -0.4,-1 -2.6,-1.6 -6.7,-2 -7.1,-0.7 -47.3,-1.2 -56.2,-0.8 z m 55.6,8.8 c 2,1.8 7.8,39.2 11.4,73.4 0.8,7.4 2,15.3 2.6,17.5 1.7,5.7 1.9,7.7 2.6,19.1 0.5,9.4 0.4,10.2 -1.3,10.7 -1.6,0.5 -30.1,2 -36.9,2 -12.5,0.1 -41,-1.4 -41.7,-2.1 -0.6,-0.6 -0.5,-7 0.1,-16.3 0.9,-14.5 1.4,-27.3 2.6,-70.4 0.3,-9.9 0.7,-18.9 0.9,-20 0.2,-1.1 0.7,-4.5 1.1,-7.5 1.4,-10.1 -1.1,-9.4 29.8,-8.6 21.6,0.6 27.5,1 28.8,2.2 z m -67.7,27.6 c -0.8,33 -1.5,51.8 -2.4,63.3 -0.5,6.6 -1.1,16.3 -1.3,21.5 -0.4,8.6 -0.6,9.5 -2.3,9.4 -5.7,-0.3 -5.4,0.1 -4.9,-7.7 0.3,-3.9 1,-16.7 1.6,-28.2 0.5,-11.6 1.9,-31.9 2.9,-45.2 1.5,-19.8 2.2,-24.7 3.7,-26.7 1,-1.3 2.1,-2.2 2.4,-2 0.4,0.2 0.5,7.2 0.3,15.6 z m -94.3,79.4 c 12.7,3.8 23,11.8 24.9,19.5 1.4,5.5 0.9,22.1 -0.6,22.6 -0.6,0.2 -1.4,-0.6 -1.7,-1.9 -0.3,-1.3 -1.2,-5.4 -2.1,-9.2 -2,-8.9 -5.5,-13.6 -10,-13.6 -4.4,0 -5.6,1.7 -6.2,8.7 -0.3,3.2 -0.7,6.9 -1,8.2 -0.5,2.4 -0.6,2.4 -2.6,-1 -2.3,-3.8 -8.5,-11 -10.5,-12.2 -0.7,-0.4 -2.1,-0.3 -3.2,0.2 -1.9,1.1 -3,4.1 -3.6,10.4 -0.6,5.6 -2.5,14.1 -3.4,15 -0.6,0.6 -2.2,-1.7 -4,-5.8 -1.7,-3.7 -3.1,-7 -3.1,-7.2 0,-0.2 -2.1,-3.8 -4.7,-7.9 -4.7,-7.3 -4.9,-7.4 -8.3,-6.9 -1.9,0.3 -5.1,0.8 -7,1.1 -2,0.3 -5.1,0.2 -6.9,-0.3 l -3.3,-0.9 9.8,-6.5 c 13.4,-9 10.9,-7.8 28.9,-12.9 5,-1.3 12.8,-1.1 18.6,0.6 z M 711,166.8 c 4.1,0.5 6.4,1.2 6.3,1.9 -0.2,0.7 0.4,4.9 1.1,9.5 0.8,4.6 1.5,14.8 1.5,22.7 0.1,7.9 0.3,14.6 0.5,15 1.3,2.1 2.6,24.8 3.1,54.6 0.9,52.9 1.5,71.6 2.4,76.5 0.5,2.5 1.2,10.8 1.5,18.5 0.3,7.7 0.8,17.8 1.1,22.5 0.3,4.7 0.8,19.5 1,33 0.2,13.5 0.9,27.2 1.5,30.5 1,5.9 2,20.6 4.1,64.5 0.6,12.4 1.3,27.6 1.7,33.7 0.5,6.8 0.4,11.3 -0.2,11.3 -1.2,0 0.4,52 2.4,77.5 0.5,6.6 1.2,17.9 1.6,25.1 l 0.7,13.2 -3.9,1.2 c -2.7,0.9 -12.4,1.4 -32.4,1.6 -37.7,0.3 -69.6,1.2 -85,2.4 -6.9,0.5 -22.8,1.2 -35.5,1.6 -12.6,0.4 -23.8,1.1 -24.7,1.5 -0.9,0.5 -13.3,1.1 -27.5,1.3 -14.2,0.3 -31.6,1 -38.8,1.6 -24.3,2 -74.9,2.9 -109.5,1.9 -32.2,-1 -50,-1.1 -64,-0.4 -6.4,0.3 -12.1,0.1 -13,-0.4 -2.3,-1.5 -4.7,-28.8 -5.4,-61.1 -0.3,-12.4 -1.1,-37.8 -1.8,-56.5 -0.6,-18.7 -1.1,-39.2 -1,-45.5 0.1,-6.3 -0.3,-16.9 -0.8,-23.5 -0.6,-6.6 -1.7,-20.3 -2.5,-30.5 -0.8,-10.6 -1.9,-46.1 -2.5,-83.5 -0.8,-46.5 -1.5,-68.4 -2.6,-77 -2.7,-21.4 -3.3,-36.5 -2.8,-66.5 0.2,-16.2 0.6,-37.6 0.7,-47.5 0.2,-9.9 0.7,-18.8 1.2,-19.8 0.7,-1.8 1.8,-1.8 18.4,-1 9.7,0.4 21.6,0.7 26.5,0.6 8,-0.2 9,-0.1 10.7,2 3,3.6 7.6,12.9 8.3,16.8 l 0.6,3.6 -6.8,0.7 c -10.5,1 -31.6,0.8 -34.7,-0.4 -4.9,-1.9 -11.6,-0.2 -15.2,3.8 -2.9,3.1 -3.3,4.3 -3.3,9 0,4.2 0.7,6.6 3,10.7 3.6,6.4 3.7,6.7 4.5,77.5 0.3,30.4 1.2,56.9 2.5,76.5 1.1,16.5 2.4,40.1 2.8,52.5 0.7,19.2 1.1,22.9 2.6,25.2 1,1.6 2.6,2.8 3.5,2.8 0.9,0 3.4,0.9 5.6,1.9 l 4,1.8 -3.9,1.7 c -2.1,0.9 -4.4,1.6 -5.1,1.6 -3.6,0 -2.3,5.1 3.1,11.7 l 2.6,3.2 -3.9,1 c -6,1.6 -6.7,3.8 -5.9,17.8 0.4,6.5 0.9,21.7 1.2,33.8 0.7,38.6 1.3,56.8 2,66 1,13.8 0.8,54.3 -0.3,55.8 -2.4,3 -3.2,7.9 -2.2,12.8 0.9,4.3 1.8,5.5 6.3,8.9 4.5,3.4 6,4 10.3,4 4,0 5.5,-0.5 7.5,-2.5 2.3,-2.3 3.3,-2.5 14.9,-2.9 6.8,-0.3 18.9,-0.8 26.9,-1.3 15.1,-0.7 17,-0.7 33.5,0.2 5.5,0.3 10.7,0.6 11.5,0.6 0.8,-0.1 22.7,-0.2 48.7,-0.3 29.8,-0.2 47.6,-0.7 48.2,-1.3 0.5,-0.6 1.1,-1.8 1.3,-2.8 0.4,-2.5 2.1,-2.4 3.5,0.3 1.8,3.6 3.1,4 15,4 10.5,0 11.3,-0.1 14.2,-2.6 1.7,-1.4 3.1,-2.1 3.1,-1.5 0,2.2 6.1,4.3 10.4,3.6 2.3,-0.4 24.6,-0.8 49.6,-1.1 25,-0.2 47.5,-0.5 50,-0.8 2.5,-0.2 8.1,-0.7 12.5,-1.1 4.4,-0.4 11.8,-1.3 16.4,-2.1 4.6,-0.8 11.1,-1.4 14.5,-1.4 8.6,0 12.9,-1.5 16.5,-5.6 3.5,-3.9 3.8,-6.6 1.7,-14 -1.6,-5.6 -2.5,-31.4 -3,-83.4 -0.2,-25.6 -0.8,-38.5 -2.5,-54.9 -1.2,-11.7 -2,-21.9 -1.8,-22.5 0.3,-0.7 0.1,-6.4 -0.4,-12.7 -0.4,-6.3 -0.9,-19.1 -0.9,-28.4 -0.1,-9.4 -0.5,-22.2 -1,-28.5 -0.5,-6.3 -1.2,-22.8 -1.5,-36.5 -0.3,-13.8 -1,-27.7 -1.5,-31 -0.9,-5.7 -1.4,-18 -2.5,-62 C 711.2,277 710.6,262 710,254 c -0.5,-8 -1.2,-21.1 -1.6,-29.3 -0.6,-13.8 -0.5,-15.1 1.6,-20.2 4.5,-11.1 -0.7,-19.5 -14.3,-22.9 -4.7,-1.1 -12.9,1.9 -15.3,5.7 l -2.1,3.3 -10.4,-0.9 c -6.5,-0.5 -16,-0.4 -25.4,0.2 -8.2,0.6 -19.3,1.1 -24.6,1.1 -5.3,0 -11.7,0.3 -14.3,0.6 -4.4,0.6 -4.7,0.9 -7.1,6 -1.4,2.9 -3,5.6 -3.5,5.9 -0.6,0.3 -2.3,-0.8 -3.8,-2.7 -6.5,-7.8 -9.2,-10 -11.5,-9.5 -5.2,1.3 -31.4,2.7 -47.2,2.6 -16.9,-0.2 -93.4,1.8 -107.2,2.8 l -7.3,0.5 0.4,-10.4 c 0.2,-5.7 0.5,-11.6 0.5,-13.1 l 0.1,-2.8 53.3,0.5 c 38.5,0.3 59,0 74.2,-1 11.6,-0.7 40.6,-2.1 64.5,-2.9 23.9,-0.9 44,-1.7 44.5,-1.9 1.9,-0.6 51.1,0.5 57.5,1.2 z m -312.7,29.6 c -0.5,2.7 -1.8,3.2 -4.2,1.7 -1.1,-0.7 -1.1,-2.3 0,-9.7 l 1.3,-8.9 1.7,7.1 c 0.9,4 1.4,8.3 1.2,9.8 z M 379,190.8 c 0.5,2 1,4.9 1,6.4 0,2.6 -0.3,2.7 -3.2,2.4 -1.8,-0.3 -3.7,-0.5 -4.2,-0.5 -0.9,-0.1 0,-11.8 1.1,-14.7 0.6,-1.5 0.8,-1.4 2.4,0.5 1,1.3 2.3,3.9 2.9,5.9 z m -98.7,39.7 c -0.4,36 0.7,62.1 3.3,78.2 1,6.7 1.4,14.4 1.2,24.3 -0.2,8 0,26 0.5,40 1.5,50.5 1.8,60.7 2.2,74 0.6,14.8 1.9,33.7 3.4,47 0.5,4.7 1,14.9 1,22.8 0.1,7.8 0.5,23.1 1.1,34 0.5,10.8 1.1,29.6 1.4,41.7 0.7,39.7 1.5,61.8 2.7,73 1.3,12 1.4,18.3 0.5,19.2 -1,1.1 -5.6,-5 -8.8,-11.6 -2.9,-6.3 -3,-6.7 -2.7,-20 0.2,-13.4 -0.6,-44.2 -1.7,-63.6 -0.3,-5.5 -0.7,-17.4 -0.9,-26.5 -0.8,-28.4 -1.5,-41.4 -2.6,-45.5 -0.5,-2.2 -1.4,-21.1 -1.9,-42 -0.4,-20.9 -1.3,-40.5 -1.9,-43.5 -0.5,-3 -1.2,-12.5 -1.5,-21 -0.6,-19.2 -3.4,-81 -4.1,-90.5 -1.1,-15.9 -1.6,-35.6 -1.5,-70.8 0,-50.8 0.4,-55 5.8,-61.7 l 3.7,-4.5 0.6,6.5 c 0.3,3.6 0.4,21.8 0.2,40.5 z M 700.4,191 c 2.8,1 4.8,6.1 2.8,6.8 -0.7,0.2 -1.2,1.2 -1.2,2.2 0,4.4 -8.2,6.4 -12.9,3.1 -5.5,-3.9 -5.1,-7.7 1,-11.1 3.9,-2.1 6.6,-2.4 10.3,-1 z m -29.3,6.1 6.6,-0.1 1.3,4.1 c 2,6 7.7,10.4 15.5,12 l 6.4,1.2 0.6,6.1 c 0.4,3.4 0.8,10.1 1,15.1 0.1,4.9 0.8,20.2 1.4,33.8 0.7,13.6 0.9,25.2 0.6,25.6 -0.3,0.5 -0.1,2 0.4,3.3 0.5,1.3 1.2,12.6 1.5,25.2 0.3,12.5 0.9,23.2 1.2,23.7 0.6,1 1.1,10.2 1.9,37.4 0.3,8.8 1,31.5 1.7,50.5 0.6,19 1.2,39.9 1.3,46.5 0.1,10.5 1.6,30.1 3,39 1.2,7.7 1.6,31.7 1.2,70 -0.1,2.7 0.3,12.2 0.7,21 0.4,8.8 0.4,17.7 -0.1,19.8 l -0.8,3.9 -5.8,0.4 c -3.2,0.2 -6.3,0.7 -6.9,1 -2.3,1.4 -4.8,9.7 -4.8,16 0,8.4 -0.6,8.7 -18.5,10.9 -1.6,0.2 -5.1,0.7 -7.6,1 -4.8,0.7 -9.8,0.8 -34.9,0.7 -8.5,-0.1 -28.2,0.2 -43.6,0.5 l -28.1,0.5 -1.7,-2.3 c -1,-1.5 -1.6,-4.4 -1.6,-8.1 0,-6.2 -0.7,-7.2 -4.2,-6.3 -2.3,0.6 -9.5,9.6 -11.9,14.8 -1.1,2.5 -1.6,2.7 -7.5,2.7 -4.6,0 -6.7,-0.5 -8,-1.7 -2.3,-2.3 -4.4,-7.6 -4.4,-11.1 0,-3.9 -2,-6.3 -4.6,-5.6 -1.4,0.4 -3.7,3.5 -6.7,9.2 l -4.6,8.7 -8.3,0.2 c -4.6,0.1 -39.8,0.4 -78.3,0.7 -38.5,0.3 -72.5,0.7 -75.5,1 -3,0.4 -6.8,0.3 -8.4,0 -2.5,-0.5 -2.7,-1 -2.3,-3.4 1.1,-5.1 -0.9,-9.3 -6,-12.7 -2.7,-1.7 -6.5,-3.5 -8.7,-3.9 l -3.8,-0.7 0.7,-9.1 c 0.3,-5.1 0.2,-16.2 -0.4,-24.7 -0.6,-8.5 -1.4,-24.2 -1.7,-34.9 -0.3,-10.7 -0.7,-24.2 -1,-30 -0.2,-5.8 -0.5,-21.3 -0.6,-34.5 l -0.3,-24 6.5,-2.2 c 7.3,-2.5 9.5,-4.6 7.9,-7.4 -0.5,-1.1 -1.3,-1.9 -1.8,-1.9 -1.2,0 -6.1,-5.1 -6.1,-6.4 0,-0.6 2.3,-2 5.1,-3.1 7.4,-2.9 8.6,-6.6 3.2,-9.9 -1.1,-0.6 -4.1,-2.6 -6.8,-4.4 -2.7,-1.7 -5.9,-3.2 -7.2,-3.2 -3,0 -4.3,-2.7 -3.9,-8.6 0.3,-4.5 -0.1,-15.7 -1.9,-56.9 -0.3,-7.7 -1.1,-19.9 -1.7,-27 -0.5,-7.2 -1.2,-35.4 -1.4,-62.8 -0.2,-27.4 -0.6,-50.2 -0.9,-50.6 -1,-1.7 0.8,-16.1 2,-16.1 4.5,0 9.5,-9.7 9.5,-18.4 l 0,-3.5 14.3,-0.3 c 7.8,-0.2 14.6,0 15.1,0.4 0.6,0.5 2.7,0.8 4.8,0.8 3.5,0 3.8,0.2 3.8,3 0,2 0.7,3.3 2.2,4.1 2,1.1 2.5,0.9 4.3,-1.6 5.3,-7.4 5.5,-7.5 12.3,-6.8 4.3,0.4 6.2,1 6.2,1.9 0,1.6 3.5,5.4 4.9,5.4 0.5,0 1.9,-1.6 3.1,-3.5 1.8,-2.9 2.8,-3.5 5.6,-3.5 1.9,0 3.4,0.4 3.4,0.9 0,0.5 1.1,1.6 2.5,2.5 1.9,1.3 3,1.4 4.5,0.6 1.1,-0.6 2,-1.7 2,-2.4 0,-2.8 4.5,-5.5 10,-6 10.5,-1.1 37.9,-1.9 98,-3 28.2,-0.4 58.1,-1.6 59.1,-2.2 1.1,-0.6 8.7,8.1 11,12.6 1.3,2.5 2.5,4.7 2.8,5 0.4,0.3 1.2,1.7 2,3.2 0.7,1.4 1.9,2.4 2.6,2.2 1.5,-0.6 3.5,-4.8 3.5,-7.5 0,-1.1 1.3,-4.8 2.9,-8.3 l 2.9,-6.3 8.3,-0.7 c 4.6,-0.3 14.5,-0.9 21.9,-1.2 7.4,-0.4 13.7,-0.9 14,-1.1 0.3,-0.3 4.3,-0.2 9,0.2 4.7,0.4 11.5,0.7 15.1,0.6 z m -360.8,13.5 c -0.2,1.6 -0.3,4.6 -0.3,6.6 0.1,3.7 0,3.8 -3.2,3.4 -2.5,-0.2 -3.5,-1 -4.2,-3 -1.3,-3.5 0.3,-7.7 3.4,-9.3 3.4,-1.7 4.5,-1.1 4.3,2.3 z m -103.5,71.7 c 0.2,2.1 -0.4,6.1 -1.2,9 l -1.5,5.2 -13.4,6.8 c -7.4,3.7 -13.7,6.7 -14,6.7 -1.2,0 4.2,-11.3 8.1,-17 7.8,-11.5 12.5,-15.2 18.7,-14.7 2.7,0.2 3,0.6 3.3,4 z m 57.2,17.4 c 0.1,4.3 0.3,14.2 0.6,22 l 0.6,14.2 -3,-0.8 c -6.2,-1.8 -18,-2.3 -25.3,-1.1 -4.1,0.7 -12.1,2.9 -17.9,4.9 -5.8,2 -11.1,3.6 -11.9,3.6 -0.8,0 -2.1,-2.6 -3.2,-6.2 -1.6,-5.1 -2.8,-7 -6.8,-10.4 -2.7,-2.4 -6.9,-5 -9.3,-5.9 -2.4,-0.9 -4.3,-2.2 -4.3,-3 0,-3.2 40.2,-20.8 53.4,-23.4 3.6,-0.8 11.2,-1.4 16.9,-1.5 l 10.2,-0.1 0,7.7 z m -79,29.1 c 8,3.9 10,6.1 12.1,13.7 1.9,7.1 3.7,9.5 7.2,9.5 1.1,0 6,-1.6 10.9,-3.5 11.3,-4.5 20.8,-6.5 30.8,-6.5 7.3,0 17.6,1.6 19.2,2.9 1.1,0.9 2,39.1 1,39.1 -0.5,0 -1.7,2.1 -2.7,4.6 -2,5.3 -9.4,16.5 -13.5,20.6 l -2.7,2.7 -6.9,-2 c -3.8,-1.2 -9,-3 -11.5,-4 -2.5,-1 -6.5,-2.1 -8.8,-2.5 -2.3,-0.4 -4.4,-1.1 -4.7,-1.5 -1.3,-2.1 -4.8,-0.5 -11.1,5.1 -6.5,5.8 -10.1,7.6 -8.9,4.5 1.7,-4.6 -5.6,-24.9 -9.6,-26.4 -6.3,-2.3 -6.7,-2.3 -8,0.4 -1,2.3 -0.8,2.9 2.5,6.3 4,4.2 7.7,13.8 7.7,20.3 0,5.9 -3.7,9.1 -14.2,11.9 -7.1,1.9 -10.1,2.2 -20.4,1.8 -10.9,-0.4 -12.6,-0.8 -17.5,-3.4 -3,-1.5 -5.6,-2.9 -5.8,-3.1 -0.2,-0.1 0.6,-2.1 1.7,-4.5 7.8,-16.9 8.7,-21 5.6,-26.9 -1.5,-3 -1.7,-3 -6.7,-2.5 -2.9,0.3 -6.2,0.8 -7.4,1.2 -1.7,0.5 -2.3,0.2 -2.3,-0.9 0,-0.9 0.5,-1.9 1,-2.2 0.6,-0.3 1,-1.8 1,-3.2 0,-2.3 5.2,-13.2 8,-16.6 0.5,-0.7 2.4,-2.9 4.1,-5 l 3.1,-3.7 5.2,5.5 c 6.3,6.8 11.6,8.6 18.7,6.4 3.9,-1.2 4.4,-1.8 4.7,-4.7 0.4,-3.8 -1.8,-12 -5.5,-20.9 l -2.6,-6.2 3.3,-2.8 c 6.8,-5.8 8.2,-6.4 13.5,-6 2.8,0.2 7,1.4 9.5,2.5 z m -41.7,-0.3 c 2,1.9 3.2,7.4 2,8.6 -1.4,1.4 -6.1,-0.9 -6.9,-3.3 -0.8,-2.7 0.4,-6.8 2,-6.8 0.8,0 2.1,0.7 2.9,1.5 z m -17.6,69 c -1.7,3.6 -15.2,9.5 -21.9,9.5 -2.6,0 -2.9,-0.2 -1.8,-1.5 1.5,-1.8 10.6,-6.1 18,-8.5 7.2,-2.4 7,-2.4 5.7,0.5 z m 143.7,17.4 c 0.4,8.5 1.2,17.7 1.7,20.5 0.6,2.8 1.2,19.9 1.5,38 0.3,18.1 0.7,33.3 0.9,33.7 1.2,1.8 2.5,21.8 3,46.9 0.4,15.1 1,31.1 1.5,35.5 0.5,4.4 1,14.7 1,23 0,8.2 0.5,17.9 0.9,21.5 0.5,3.6 0.6,8.3 0.2,10.5 -0.3,2.2 -0.6,9.2 -0.6,15.5 0,8.8 0.4,12.6 1.9,16.4 2.3,5.9 1.7,6.4 -6.7,6.1 -3.4,-0.2 -14.7,-0.6 -25.1,-1 -20.8,-0.8 -35.2,-3.1 -36.8,-5.8 -1,-1.8 -3.8,-2.3 -3.8,-0.7 0,1.6 -2.1,1.2 -7.6,-1.6 l -5.2,-2.6 -1.1,-7.3 c -1.6,-9.4 -1.6,-37.5 -0.1,-54 0.7,-7.2 1.4,-13.3 1.6,-13.7 0.2,-0.3 0.6,-3 0.9,-6 0.7,-8.1 1.5,-12.8 3,-18.3 0.8,-2.8 2.1,-8.4 3,-12.5 2.5,-11.2 10.9,-35.9 17.3,-50.5 1.7,-3.9 3.9,-9.2 4.9,-11.9 0.9,-2.7 3.9,-7.4 6.5,-10.4 2.6,-3.1 5.9,-7.6 7.3,-10.1 2.2,-3.9 2.4,-4.9 1.4,-7.3 -0.7,-1.8 -1.9,-2.8 -3.3,-2.8 -2.1,0 -5.6,3.1 -5.6,4.9 0,0.5 -0.6,1.1 -1.4,1.4 -0.9,0.4 -1.2,0 -0.9,-1.3 0.6,-2.2 -1.3,-6 -3,-6 -3,0 -4.9,4.3 -5.7,12.9 -0.8,8.2 -2.4,14.6 -4,16.5 -1.2,1.3 -6.1,-2.1 -10,-7 -9.6,-12 -10.1,-17.9 -2.5,-29.5 6.9,-10.5 17.5,-22.7 25.8,-29.6 3.5,-2.9 15.4,-9 19.3,-9.8 2.3,-0.4 4.2,-2 7,-6.1 2.2,-3 5.4,-7.3 7.2,-9.5 1.7,-2.3 3.2,-4.8 3.3,-5.7 0,-1.3 0.2,-1.3 0.8,0.3 0.5,1.1 1.1,8.9 1.5,17.4 z M 224.5,413 c 0.6,0.4 2.5,1.1 4.3,1.5 1.7,0.3 3.2,1 3.2,1.3 -0.1,0.4 -1.9,2 -4.1,3.7 -2.2,1.6 -4.8,3.8 -5.7,4.9 -11.5,12.8 -16.8,19.5 -21.7,27.4 -0.5,0.9 -2.4,3.6 -4.2,6 -1.8,2.5 -3.7,6.7 -4.4,10 -1.1,5 -2,6.4 -7.3,11.6 -3.4,3.2 -7.4,6.9 -9.1,8.3 -1.6,1.4 -8.5,7.8 -15.2,14.3 -6.7,6.5 -14.1,13.2 -16.4,15.1 l -4.2,3.3 -3.6,-4 c -8.6,-9.6 -20.9,-25.3 -24.8,-31.7 -5.1,-8.4 -5.9,-12.8 -4.3,-24.4 1.4,-11.1 3.2,-17.2 7,-23.9 3.4,-6.1 3.6,-7.6 1.4,-9.8 -3,-3 2.8,-1.8 12.2,2.5 7.6,3.5 10.4,4.2 18.9,5 20,1.8 35.5,-2.3 52.8,-13.9 3.8,-2.5 7.6,-5.5 8.5,-6.7 3.1,-3.9 5.1,-4.4 10.6,-2.8 2.8,0.8 5.6,1.9 6.1,2.3 z m -149,22 c 2.2,2.7 4.3,5 4.7,5 0.5,0 0.8,0.4 0.8,1 0,0.5 -1.7,1.2 -3.7,1.5 -10.1,1.5 -15.2,3.5 -19.7,7.6 -5.6,5.1 -6.1,8.7 -1.8,13.9 3.6,4.2 6.2,3.7 6.2,-1.4 0,-2.5 0.9,-4.3 3.5,-6.9 4.6,-4.6 10.5,-6.2 20.2,-5.3 7.5,0.6 7.6,0.6 10.6,-2.6 l 3,-3.1 -0.7,7.9 c -0.4,4.3 -0.9,10 -1.2,12.5 -0.9,7.1 1.7,14.7 8,24.1 5.1,7.6 7.9,11.1 18.3,23.6 1.9,2.3 4.3,5.6 5.2,7.2 2.7,5 8.1,10 10.7,10 1.7,0 6,-3.6 15.6,-13.3 7.3,-7.3 15.9,-15.5 19.2,-18.3 3.2,-2.7 7.9,-6.8 10.4,-9.1 5.9,-5.4 9.4,-7.3 10,-5.5 0.8,2.6 7.1,10.9 12,16 l 5.1,5.2 -6.6,7.6 c -4.5,5.1 -12,11.6 -23.8,20.4 -19.6,14.7 -25.5,18.3 -37.8,23.4 -7.3,3 -9,3.4 -10.1,2.3 -0.8,-0.7 -2.7,-2.4 -4.3,-3.8 -3.2,-2.7 -5.1,-5.1 -18.5,-23.4 -5.2,-7.2 -9.8,-13.8 -10.1,-14.8 -0.4,-0.9 -2.4,-4.3 -4.5,-7.5 -2.1,-3.1 -5.3,-8.3 -7.2,-11.5 -2.8,-4.8 -4.5,-6.3 -8.6,-8.3 -2.8,-1.3 -5.8,-2.4 -6.6,-2.4 -3.4,0 -17.6,-8.2 -22,-12.8 -5.4,-5.6 -14,-18.1 -13.5,-19.6 0.2,-0.6 2.1,-1.3 4.3,-1.7 6.3,-0.8 8.4,-2.5 8.4,-6.4 0,-1.8 -0.4,-4.5 -1,-5.9 -1.4,-3.7 0.2,-4 5.7,-1 3.5,1.8 5.7,2.4 8.1,2 4.9,-0.7 6.2,-2.3 6.2,-7.2 0,-2.4 0.3,-4.4 0.8,-4.4 0.4,0 2.5,2.2 4.7,5 z m 643.8,213.2 c 2.3,4.7 1.5,7.6 -2.6,9.3 -3.5,1.5 -5.7,1 -5.7,-1.3 0,-0.8 -0.3,-1.2 -0.7,-0.9 -1.1,1.1 -4.3,-2.4 -4.3,-4.7 0,-3.9 3.8,-6.7 8.5,-6.3 2.4,0.2 3.4,1 4.8,3.9 z m -390.8,9.4 c 3.4,2.2 3.4,7.2 -0.1,11.3 -3,3.6 -4.6,3.8 -8.5,1 -3.4,-2.4 -3.7,-5.3 -1.2,-9.8 1.6,-2.6 2.6,-3.3 6.6,-4 0.4,0 1.9,0.6 3.2,1.5 z m -123.3,37.3 -0.3,11 -3.5,1.1 c -4.6,1.5 -9.3,0.4 -10.6,-2.5 -0.9,-1.9 -0.6,-3.3 1.1,-7.1 2.2,-4.7 10.3,-13.4 12.5,-13.4 0.8,0 1,3.3 0.8,10.9 z m 30.3,-8.2 c 15.7,0.4 29.1,1 36.5,1.8 3,0.3 8,0.1 11,-0.4 l 5.5,-1 4,4.4 c 2.7,3 5.1,4.5 7.5,5 5,0.8 5.4,0.9 17.5,0.1 16.6,-0.9 25.3,-1 44.3,-0.1 l 17.2,0.8 0,4.1 c 0,2.2 -0.4,6.7 -1,9.9 -0.5,3.2 -1.4,10.4 -2,16 -0.6,5.6 -2.2,16.9 -3.6,25.2 -1.4,8.2 -2.8,16.9 -3.1,19.2 -0.6,4.3 -0.6,4.3 -4.8,4.3 -5.2,0 -14.1,-5.5 -13.9,-8.6 0.1,-1.1 0.9,-7.5 1.8,-14.4 0.9,-6.9 2,-17.3 2.3,-23.3 l 0.6,-10.7 3.9,-0.7 c 9.2,-1.4 8.7,-8.2 -0.5,-7 -2.3,0.3 -8,1.3 -12.7,2.2 -17.6,3.5 -69,2.1 -91.8,-2.4 -8.3,-1.6 -10.7,-1.8 -12.3,-0.8 -3.6,2.2 -2.3,4.3 3.9,6.3 l 5.7,1.9 0.6,10 c 0.4,5.5 1.4,12.5 2.2,15.5 0.9,3 2.1,8.4 2.7,11.9 l 1.1,6.4 -3.3,3.4 c -4.6,4.8 -12.1,9.5 -19.8,12.3 -3.6,1.3 -8.6,3.4 -11.2,4.7 -5.9,2.9 -6,2.9 -5.2,-0.1 0.7,-2.8 -2,-7.6 -4.3,-7.6 -1.5,0 -14.9,6.4 -17.1,8.2 -3.7,3.1 -0.9,-4.3 4,-10.4 2.6,-3.3 1.4,-5.4 -3.7,-6.4 l -3.3,-0.6 5.2,-4.2 c 7.4,-6.1 9.6,-7.4 15,-9 7.9,-2.4 10.3,-5.8 7.2,-10.1 -0.7,-1.1 -3,-7.1 -5,-13.4 -3.5,-11 -3.6,-11.7 -3.6,-27 0,-8.7 0.3,-16.1 0.8,-16.5 0.4,-0.4 2.5,-0.4 4.7,0 2.2,0.4 9.9,0.9 17,1.1 z m 390.6,6.5 c 2.5,4.5 4.8,10.3 10,25.3 1.7,4.9 4,10.8 4.9,13 1,2.2 2.8,7.4 4.1,11.5 1.2,4.1 2.5,8.4 3,9.5 7.1,17 10,25.8 8.8,26.7 -0.8,0.5 -10,0.7 -20.5,0.6 -21.7,-0.4 -23.2,-0.9 -25.3,-7.7 -0.6,-2.3 -1.5,-4.1 -2,-4.1 -0.9,0 -2.5,-3.8 -6.6,-15 -1.4,-4.1 -3.7,-9.8 -5,-12.5 -3.2,-6.8 -8.7,-22.1 -11.9,-33 -1.5,-5 -3.2,-10 -3.8,-11.2 -0.5,-1.1 -0.8,-2.7 -0.6,-3.5 0.6,-1.8 14.9,-3.5 30.4,-3.7 l 12,-0.1 2.5,4.2 z m -53.7,0.1 c 1.4,1.4 5.2,10.9 11.6,29.2 2.3,6.6 5.2,14.2 6.5,17 1.3,2.7 3.2,7.7 4.3,11 1.2,3.3 3.9,10.3 6.1,15.5 4.9,11.4 5.1,13.2 1.6,12.7 -2.6,-0.3 -3.1,-1 -7.4,-9.7 -1.3,-2.5 -2.7,-5.3 -3.2,-6.2 -2.3,-4.3 -13.7,-38.7 -14.5,-43.6 -0.4,-2.3 -1,-4.2 -1.5,-4.2 -0.5,0 -0.9,-0.8 -0.9,-1.8 0,-1 -0.6,-2.6 -1.4,-3.7 -0.7,-1.1 -1.4,-2.2 -1.4,-2.5 0,-0.3 -0.4,-1.6 -1,-3 -3,-7.7 -3.4,-10.2 -2.1,-11.1 1.8,-1.1 1.8,-1.1 3.3,0.4 z m -28.4,0.5 c 0.8,0.4 1.6,2.2 1.7,4.2 0.1,1.9 0.7,9.1 1.2,16 0.7,8.4 0.6,18.9 -0.1,32 -0.5,10.7 -0.7,21.8 -0.4,24.7 0.6,5 0.5,5.2 -2.2,5.7 -4.5,0.9 -22.2,1.4 -29.2,0.7 -6.4,-0.6 -6.4,-0.6 -7.3,-4.1 -1.5,-6.4 -2.5,-76.6 -1.1,-78 0.5,-0.5 7.5,-1.1 15.4,-1.3 8,-0.1 15.9,-0.3 17.5,-0.4 1.7,-0.1 3.7,0.1 4.5,0.5 z m -45.3,9.7 c 0.6,4.4 1.2,19.7 1.2,34 0.1,14.2 0.4,28.7 0.7,32.2 l 0.7,6.3 -3.7,0 -3.6,0 -0.2,-11.8 c -0.5,-26.4 -0.6,-31.2 -1.1,-41.3 -0.2,-5.8 -0.8,-12.5 -1.2,-14.8 -0.4,-2.6 -0.2,-6 0.5,-8.7 1.1,-3.7 1.7,-4.4 3.4,-4.2 1.8,0.3 2.3,1.4 3.3,8.3 z m -48.2,0.7 c -0.3,4 -1.3,9.5 -2,12.3 -0.8,2.7 -1.7,8.6 -2,13 -0.9,11 -3.2,27.3 -5.3,37.5 -1.5,7.3 -2.2,8.7 -4.3,9.7 -1.6,0.8 -10.2,1.5 -23.2,1.9 -18.6,0.5 -20.7,0.4 -21.3,-1 -0.4,-0.9 0.5,-7.9 2,-15.4 3.2,-17 7.6,-48.6 7.6,-54.6 0,-2.5 0.5,-5.6 1.2,-7 l 1.1,-2.6 17.1,-0.3 c 9.4,-0.1 20,-0.4 23.5,-0.5 l 6.3,-0.2 -0.7,7.2 z m -54.9,-3.7 c 0.3,1.4 0.3,5.6 0,9.3 -1.4,13.8 -4.7,37.8 -5.6,40.7 -0.9,3 -3.8,20.4 -4.2,26 -0.3,2.7 -0.7,3 -3.8,3.3 -5.6,0.4 -6,-0.3 -4.9,-9.3 0.6,-4.4 1.4,-11.6 1.9,-16 2,-17.7 4.1,-35.2 4.6,-38.5 1.6,-11.2 2.6,-16.5 3,-17.2 0.3,-0.4 2.3,-0.8 4.4,-0.8 3.4,0 4.1,0.4 4.6,2.5 z" />
        <path
           style="fill:#000000;stroke:none"
           inkscape:connector-curvature="0"
           id="path10"
           d="m 509.3,62.2 c -1.2,1.3 -3.5,3.6 -5.2,5.2 -4.3,4.1 -6.8,10 -7.6,17.6 -0.6,5.9 -0.4,7.1 2.4,12.7 2.2,4.5 4,6.7 6.3,7.9 1.8,0.9 4.3,2.5 5.5,3.7 3.3,2.9 12.1,1.9 16.7,-2 5.8,-4.8 10.6,-15.4 10.6,-23.3 0,-4.7 -5.2,-15.1 -9.2,-18.6 -6.9,-5.8 -15.7,-7.2 -19.5,-3.2 z m 9.5,12.8 c 2.4,4.9 3.1,16.4 1.1,20.1 -1.4,2.7 -5.6,4.2 -9.6,3.4 -7.6,-1.4 -9.8,-15 -3.7,-22.5 2.3,-2.7 7.5,-6.1 8.9,-5.7 0.6,0.2 2,2.3 3.3,4.7 z m 11.2,6 c 1,3 1,4.6 0.2,6.3 -0.6,1.2 -1.3,2.9 -1.5,3.7 -0.3,0.8 -0.5,-1.2 -0.6,-4.5 0,-3.3 -0.2,-7 -0.5,-8.3 -0.8,-3.6 0.9,-1.7 2.4,2.8 z" />
        <path
           style="fill:#000000;stroke:none"
           inkscape:connector-curvature="0"
           id="path12"
           d="m 123.8,297 c -6.8,2 -12.3,9.2 -13.7,17.8 -1.3,8 -0.3,12.4 3.2,13.6 3.8,1.4 4.8,-0.1 5.3,-7.6 0.6,-8.9 4.4,-15 10,-16.2 3.3,-0.7 4.8,-0.4 8.2,1.3 4.5,2.3 7.2,1.9 7.2,-1.1 0,-5.6 -12.1,-10.3 -20.2,-7.8 z" />
      </g>
    </g>
    <path
       style="fill:#ffe680"
       d="m 138.38704,634.95809 c -4.35911,-2.15771 -5.97183,-3.7385 -5.46419,-5.35602 0.39611,-1.26215 2.44046,-7.07839 4.543,-12.92498 3.39533,-9.44145 3.63477,-11.25778 2.14123,-16.24274 l -1.68157,-5.61259 -6.95501,0.66829 -6.955,0.66829 0.82865,-4.42555 c 1.115,-5.95484 6.74015,-17.73972 10.95568,-22.95251 l 3.42986,-4.24124 4.03274,4.79264 c 5.54288,6.58734 11.62606,8.96367 18.25829,7.13243 4.93952,-1.36387 5.19357,-1.73295 5.19357,-7.54522 0,-3.36117 -1.60749,-10.83742 -3.5722,-16.61389 l -3.57219,-10.50269 4.64362,-3.97519 c 5.24351,-4.48872 11.40461,-5.19874 18.61808,-2.14561 6.22226,2.6336 8.83458,5.88301 12.39815,15.42183 1.66059,4.445 3.94949,8.43878 5.08644,8.87507 1.13695,0.43629 8.34521,-1.48272 16.01835,-4.26446 14.62512,-5.30203 28.02464,-6.80648 39.30832,-4.4134 l 5.35714,1.13616 0,20.47509 c 0,22.7694 -0.56795,25.00738 -10.22794,40.3029 -3.30253,5.22918 -6.75029,9.08975 -8.11441,9.08597 -1.30456,-0.004 -7.19336,-1.87728 -13.08622,-4.1637 -17.91267,-6.9501 -19.73224,-6.96881 -27.32985,-0.28113 l -6.53063,5.74849 -1.7809,-8.14854 c -2.90878,-13.30915 -6.27533,-19.68406 -11.32457,-21.44424 -3.78405,-1.31912 -4.64808,-1.16994 -5.81119,1.00334 -1.01898,1.90399 -0.48821,3.84501 2.08821,7.63654 1.89994,2.79602 4.5502,9.02491 5.88946,13.84196 2.36888,8.52038 2.35727,8.8638 -0.42757,12.64321 -6.37419,8.65068 -33.34071,12.06656 -45.95735,5.82149 z"
       id="path3338"
       inkscape:connector-curvature="0" />
    <path
       style="fill:#d4aa00"
       d="m 204.33288,546.89389 c -3.31225,-9.87104 -7.11396,-15.27901 -13.55604,-19.28362 -3.80583,-2.36584 -6.9197,-4.73364 -6.9197,-5.26179 0,-1.40981 19.13424,-11.95665 30.88368,-17.02314 13.87632,-5.98364 25.15946,-8.73238 35.84504,-8.73238 l 8.98557,0 2.5e-4,21.78572 2.6e-4,21.78571 -14.64311,0.0361 c -12.824,0.0316 -16.20424,0.6014 -27.20952,4.58665 -11.37146,4.11785 -12.64438,4.31819 -13.38643,2.10678 z"
       id="path3340"
       inkscape:connector-curvature="0" />
    <path
       style="fill:#d4aa00"
       d="m 178.14286,510.7215 c 0,-2.98262 9.2315,-18.9107 13.71599,-23.66565 2.86885,-3.04186 5.82989,-4.7486 8.2384,-4.7486 3.42379,0 3.75989,0.50249 3.75989,5.62128 0,9.5846 -1.89022,12.21626 -13.29725,18.51308 -11.51217,6.35486 -12.41703,6.66675 -12.41703,4.27989 z"
       id="path3342"
       inkscape:connector-curvature="0" />
    <path
       style="fill:#d4aa00"
       d="m 353.05184,390.16439 c -3.36895,-8.81891 -8.05582,-18.53721 -10.79563,-22.38492 -2.94147,-4.13092 -3.53587,-4.34083 -10.09277,-3.56426 -11.92078,1.41184 -12.29259,-0.13234 -1.86271,-7.73611 22.2611,-16.22919 42.54128,-17.39337 59.1078,-3.39307 6.57027,5.5525 8.7423,11.50516 8.69089,23.81819 -0.0455,10.89156 -1.68374,11.026 -3.45259,0.28332 -1.50691,-9.15193 -5.64198,-14.88029 -10.74147,-14.88029 -3.28993,0 -4.43221,0.74325 -4.93994,3.21428 -0.36325,1.76786 -1.17907,5.67831 -1.81293,8.68989 L 376,379.68703 l -4.64582,-6.59301 c -8.14847,-11.5637 -12.10993,-10.11703 -13.82576,5.04897 -0.53788,4.75416 -1.51956,10.04672 -2.18153,11.76124 -1.17664,3.04753 -1.22801,3.05335 -2.29505,0.26016 z"
       id="path3344"
       inkscape:connector-curvature="0" />
    <path
       style="fill:#d4aa00"
       d="m 130.6896,775.42333 c -6.67286,-7.38606 -21.62184,-30.36715 -32.421521,-49.84168 -8.949456,-16.1381 -12.983069,-20.30857 -21.590945,-22.32351 -7.200531,-1.68551 -18.97965,-11.53088 -25.920478,-21.66518 -3.766867,-5.5 -6.860248,-10.46989 -6.874181,-11.04421 -0.01393,-0.57432 1.742525,-1.46653 3.903239,-1.9827 6.140343,-1.46684 7.5,-3.28066 7.5,-10.00515 0,-3.43951 0.222662,-6.25365 0.494803,-6.25365 0.272142,0 2.612689,1.05654 5.201215,2.34786 6.815385,3.39997 11.930664,1.32958 12.875411,-5.21127 l 0.714286,-4.94527 3.834087,4.90792 c 4.214364,5.3947 4.041154,7.17028 -0.704112,7.21785 -4.998268,0.0501 -14.512701,4.98019 -17.885117,9.26752 -4.002543,5.08841 -3.929214,9.58008 0.235443,14.42179 3.710574,4.3138 6.662556,3.66271 6.662556,-1.46949 0,-8.21125 10.907588,-14.72696 22.088171,-13.19449 4.031059,0.55252 6.96385,0.16139 8.886262,-1.18512 2.827661,-1.98058 2.859541,-1.80457 2.19033,12.09298 -0.645777,13.41084 -0.46866,14.54625 3.609791,23.14055 4.03078,8.49384 22.58209,36.26196 31.09092,46.53774 2.11448,2.55357 4.64112,4.64286 5.61476,4.64286 0.97364,0 11.9093,-10.62221 24.30146,-23.6049 12.39216,-12.98269 23.69661,-24.2286 25.12101,-24.99091 2.12304,-1.13622 3.14754,-0.48355 5.68454,3.6214 1.70211,2.75408 5.28773,7.63224 7.96804,10.84036 2.6803,3.20812 4.87329,6.37833 4.87329,7.04492 0,4.11551 -32.13144,33.64525 -49.34861,45.35283 -6.89763,4.69035 -20.55359,11.7363 -22.74645,11.7363 -0.23629,0 -2.64748,-2.45491 -5.3582,-5.45535 z"
       id="path3346"
       inkscape:connector-curvature="0" />
    <path
       style="fill:#d4aa00"
       d="m 216.71429,1018.2946 c 0,-1.4213 -0.89379,-3.8064 -1.98619,-5.3004 -1.92304,-2.6299 -2.26371,-2.5708 -10.71429,1.8589 -4.80045,2.5163 -8.72386,4.0979 -8.71868,3.5146 0.005,-0.5832 1.28665,-2.989 2.84773,-5.3462 3.62846,-5.4788 3.62846,-9.3515 0,-10.3003 -1.57143,-0.411 -2.85715,-1.0027 -2.85715,-1.315 0,-1.88156 10.43621,-9.74346 16.80339,-12.65848 4.13471,-1.89295 7.88285,-4.3934 8.3292,-5.55656 0.44634,-1.16316 -0.84298,-7.04094 -2.86516,-13.06174 -5.891,-17.53971 -7.87646,-34.62232 -5.61496,-48.3103 l 0.90674,-5.48813 5.86325,0.80435 c 3.22479,0.4424 19.04183,1.21958 35.14897,1.72707 l 29.28572,0.9227 4.61881,4.37515 4.61881,4.37514 37.76207,0.10021 c 20.76914,0.0551 38.24764,0.58575 38.84112,1.1792 1.14389,1.1438 -0.68348,19.86154 -5.26418,53.92101 -4.11566,30.60168 -3.61509,29.03498 -8.93722,27.97188 -2.47311,-0.494 -6.01898,-2.4197 -7.87973,-4.2793 -3.33558,-3.3334 -3.36134,-3.5792 -1.83067,-17.46537 0.85389,-7.74639 1.96826,-19.28557 2.47637,-25.64261 0.92272,-11.54399 0.92983,-11.56042 5.75925,-13.30676 3.0813,-1.11421 4.83537,-2.69096 4.83537,-4.34655 0,-3.33733 -4.21725,-4.4101 -11.03715,-2.80759 -20.08009,4.71833 -68.71357,4.31112 -95.42161,-0.79898 -5.92216,-1.13309 -11.71306,-1.69734 -12.86868,-1.25389 -3.92104,1.50464 -2.34433,5.94201 2.76824,7.79074 5.18559,1.87513 6.51557,4.97498 6.60236,15.38843 0.0237,2.84821 1.25266,11.28571 2.73095,18.75 l 2.68779,13.57143 -5.23095,5.48565 c -4.14753,4.3495 -27.62896,18.0858 -30.91669,18.0858 -0.40856,0 -0.74283,-1.1629 -0.74283,-2.5841 z"
       id="path3348"
       inkscape:connector-curvature="0" />
    <path
       style="fill:#d4aa00"
       d=""
       id="path3350"
       inkscape:connector-curvature="0" />
    <path
       style="fill:#c8ab37"
       d=""
       id="path3354"
       inkscape:connector-curvature="0" />
    <path
       style="fill:#a0892c"
       d="m 368.91071,1015.2511 c -0.45613,-0.7381 -0.4891,-3.7916 -0.0732,-6.7857 0.41585,-2.9941 2.37867,-20.55101 4.36181,-39.0153 1.98314,-18.46428 3.95006,-34.69642 4.37092,-36.07142 0.45487,-1.48611 2.17457,-2.5 4.24036,-2.5 3.24207,0 3.47516,0.50556 3.47516,7.53747 0,9.90143 -5.99511,57.60914 -9.42005,74.96255 -0.64438,3.2649 -5.31686,4.5229 -6.95495,1.8724 z"
       id="path3356"
       inkscape:connector-curvature="0" />
    <path
       style="fill:#a0892c"
       d="m 485.56421,953.02153 c 0.0291,-2.35714 0.34929,-3.14848 0.71149,-1.75852 0.36221,1.38995 0.33839,3.31852 -0.0529,4.28571 -0.39132,0.96719 -0.68767,-0.17004 -0.65856,-2.52719 z"
       id="path3358"
       inkscape:connector-curvature="0" />
    <path
       style="fill:#a0892c"
       d="m 288.92256,911.6273 c -1.26045,-1.86532 -3.34937,-5.64148 -4.64205,-8.39148 l -2.35033,-5 -0.48674,-27.14286 c -0.2677,-14.92857 -0.8312,-35.98214 -1.25222,-46.78571 -0.42101,-10.80357 -1.10241,-31.375 -1.51422,-45.71429 -0.4118,-14.33928 -1.05398,-29.44643 -1.42706,-33.57143 -1.43626,-15.88003 -2.08624,-29.25778 -2.82847,-58.21428 -0.42293,-16.5 -1.21718,-35.625 -1.76499,-42.5 -0.54781,-6.875 -1.18398,-17.64286 -1.41371,-23.92857 -1.48305,-40.57735 -2.69709,-69.36774 -3.76503,-89.28572 -1.56905,-29.26417 -1.82443,-126.05161 -0.35494,-134.52342 0.90983,-5.24534 2.60263,-9.35564 5.43592,-13.19903 l 1.51271,-2.05201 0.4512,2.03009 c 0.24816,1.11655 0.49102,20.67294 0.53969,43.45866 0.0934,43.74365 0.82571,66.06999 2.62607,80.0659 0.75826,5.89471 1.28908,19.90672 1.72931,45.64838 1.32327,77.37605 2.97241,124.08075 5.38831,152.60057 0.58707,6.93032 1.37379,24.60889 1.74828,39.28572 0.37449,14.67683 1.00971,37.13157 1.4116,49.89943 0.4019,12.76785 1.06765,37.39238 1.47945,54.72115 0.4118,17.32878 1.21725,37.25735 1.78989,44.28571 1.15113,14.12861 1.33088,21.70814 0.51477,21.70604 -0.29464,-7.1e-4 -1.56699,-1.52755 -2.82744,-3.39285 z"
       id="path3362"
       inkscape:connector-curvature="0" />
    <path
       style="fill:#a0892c"
       d="m 481.00811,1011.586 c -0.15285,-0.4911 -0.44457,-12.78572 -0.64827,-27.32144 -0.2037,-14.53571 -0.75556,-31.73214 -1.22637,-38.21428 -0.7202,-9.91603 -0.695,-12.35229 0.15888,-15.35715 0.77604,-2.73093 1.34545,-3.57143 2.41955,-3.57143 2.51848,0 3.19221,5.37629 3.89373,31.07143 0.3593,13.16072 0.78597,30.75893 0.94815,39.10715 l 0.29487,15.17852 -2.78132,0 c -1.60064,0 -2.89928,-0.379 -3.05922,-0.8928 z"
       id="path3364"
       inkscape:connector-curvature="0" />
    <path
       style="fill:#a0892c"
       d=""
       id="path3366"
       inkscape:connector-curvature="0" />
    <path
       style="fill:#a0892c"
       d=""
       id="path3368"
       inkscape:connector-curvature="0" />
    <path
       style="fill:#a0892c"
       d="m 582.20038,1013.3717 c -4.78336,-6.8553 -12.89191,-29.70672 -19.79034,-55.77299 -1.31707,-4.97664 -3.09907,-10.81629 -3.96,-12.97701 -5.21587,-13.09041 -6.91209,-20.71428 -4.60869,-20.71428 1.94465,0 3.82443,4.36377 10.3077,23.92857 3.51493,10.60714 9.00798,26.67857 12.20677,35.71429 3.19879,9.03571 6.9266,19.57032 8.28402,23.41032 1.35742,3.8399 2.27424,7.2953 2.03737,7.6786 -0.82389,1.333 -3.11483,0.6844 -4.47683,-1.2675 z"
       id="path3370"
       inkscape:connector-curvature="0" />
    <path
       style="fill:#a0892c"
       d="m 455.72118,358.68124 c -1.62101,-0.64927 -1.66516,-0.87106 -1.23517,-6.20472 0.24526,-3.04225 0.92274,-15.65637 1.50551,-28.03137 0.58277,-12.375 1.54461,-30.05357 2.13743,-39.28571 2.09124,-32.56762 2.96578,-39.7506 5.05038,-41.48066 0.86363,-0.71675 1.00737,1.46066 0.99965,15.1432 -0.0135,23.94442 -2.69599,90.40641 -3.96756,98.30174 -0.39776,2.46975 -1.37042,2.80715 -4.49024,1.55752 z"
       id="path3372"
       inkscape:connector-curvature="0" />
    <path
       style="fill:#decd87"
       d="m 475.04514,358.25945 c -4.45295,-0.74202 -5.71068,-1.58287 -5.69798,-3.80935 0.18397,-32.2305 4.31387,-120.16364 5.82912,-124.11231 0.89423,-2.33033 3.09398,-2.50281 26.42506,-2.07195 14.53639,0.26844 26.06611,1.08771 26.88726,1.91052 2.02405,2.02816 5.13682,21.31427 10.25847,63.55946 6.64404,54.80246 7.2567,61.75565 5.58841,63.42394 -1.67598,1.67599 -60.25292,2.60565 -69.29034,1.09969 z M 514.42972,296.578 c 9.00032,-9.68137 10.83252,-22.71333 4.96514,-35.31577 -4.0322,-8.66068 -10.30588,-13.22736 -18.18265,-13.23536 -4.47033,-0.005 -5.99982,0.90762 -10.1716,6.06609 -13.72656,16.97316 -10.4092,39.97412 6.86167,47.57548 6.04323,2.65978 10.63809,1.24457 16.52744,-5.09044 z"
       id="path3390"
       inkscape:connector-curvature="0" />
    <path
       style="fill:#decd87"
       d="m 338.40313,919.80862 c -32.24055,-0.35737 -36.74883,-0.68452 -37.53122,-2.72337 -1.94389,-5.06572 -3.54827,-37.14069 -5.02658,-100.49229 -0.85256,-36.53571 -2.51272,-83.14286 -3.68923,-103.57143 -1.17651,-20.42857 -2.79625,-68.96428 -3.59941,-107.85714 -0.80316,-38.89286 -2.40397,-82.5079 -3.55735,-96.92233 -2.11749,-26.46344 -2.47184,-74.39796 -0.8412,-113.79196 l 0.887,-21.42857 25,0.46819 c 22.74009,0.42586 25.21869,0.72171 27.41927,3.27285 3.00061,3.47861 8.71787,18.45795 7.50419,19.66111 -0.49021,0.48596 -11.70999,0.88357 -24.93283,0.88357 -23.47737,0 -24.12809,0.0813 -27.73037,3.4633 -2.98806,2.80538 -3.68883,4.78641 -3.68883,10.42809 0,3.83063 1.09196,9.02214 2.42657,11.53669 2.09602,3.94912 2.57402,11.8696 3.50893,58.14335 1.66392,82.35677 6.08303,185.89802 8.08688,189.47871 0.68785,1.22911 3.76063,3.39461 6.82841,4.81224 l 5.57778,2.57749 -4.76564,1.05463 c -6.42867,1.42263 -6.92857,3.72521 -2.46307,11.34501 2.71555,4.63374 3.22054,6.4462 1.79606,6.4462 -1.08992,0 -3.09697,1.2324 -4.46012,2.73866 -2.33183,2.57664 -2.37795,7.16147 -0.7796,77.5 1.5756,69.3375 1.38129,100.52496 -0.71502,114.76134 -1.03407,7.02254 1.18283,11.64277 7.69089,16.02854 6.08552,4.10105 11.90006,4.14279 17.33512,0.12443 4.2335,-3.12997 4.31133,-3.13307 88.87072,-3.5495 80.27855,-0.39534 84.74556,-0.55258 86.81082,-3.05561 2.1104,-2.55774 2.24546,-2.55072 4.39516,0.22868 1.88082,2.43176 3.96082,2.88209 13.68744,2.96336 7.71406,0.0644 12.2389,-0.54266 13.81913,-1.85413 1.83545,-1.52328 2.79947,-1.57654 4.40587,-0.24334 3.37426,2.80039 95.25688,0.63451 127.22938,-2.99906 28.84168,-3.27775 32.4049,-4.22171 35.86402,-9.50098 2.1562,-3.29077 2.24881,-5.09616 0.81701,-15.92696 -0.88817,-6.71847 -1.9982,-36.32257 -2.46673,-65.78686 -0.46854,-29.46428 -1.4687,-60.96428 -2.22257,-70 -0.75387,-9.03571 -2.63247,-51.78571 -4.17464,-95 -2.75829,-77.29148 -3.79861,-104.53295 -7.26769,-190.30737 -1.33548,-33.02017 -1.35337,-44.47418 -0.0761,-48.73717 3.69713,-12.33989 0.71546,-20.35669 -9.20298,-24.74409 -5.4187,-2.39695 -7.14128,-2.57406 -11.39188,-1.17123 -2.7543,0.909 -6.53091,3.29532 -8.39247,5.30292 -3.03288,3.27083 -4.09727,3.55251 -10.24157,2.71034 -9.8399,-1.34871 -65.05991,1.79971 -67.53304,3.85046 -1.10606,0.91716 -2.93034,3.86693 -4.05397,6.55504 l -2.04295,4.88746 -5.83918,-6.83127 c -5.83406,-6.82526 -5.84559,-6.83054 -13.09292,-5.99983 -3.98954,0.45729 -33.93228,1.46873 -66.53942,2.24764 -32.60715,0.77891 -64.58929,1.83765 -71.07143,2.35276 l -11.78572,0.93656 0,-13.40158 0,-13.40157 44.89409,0.53579 c 29.07967,0.34706 60.65734,-0.27233 89.64286,-1.75832 93.3001,-4.78317 102.68264,-5.11669 122.7352,-4.36284 30.01421,1.12835 29.32902,0.94671 30.46921,8.07706 1.64383,10.27991 3.72563,53.69334 5.84213,121.83067 2.06957,66.62699 3.72488,107.76303 6.46711,160.71429 0.83415,16.10714 2.42897,46.96428 3.54405,68.57143 1.11508,21.60714 2.04355,53.10714 2.06328,70 0.0197,16.89285 1.06313,49.56662 2.31869,72.60837 1.25555,23.04174 1.8809,42.29601 1.38964,42.78727 -1.83253,1.83254 -18.04766,2.93887 -45.08054,3.07577 -15.32143,0.0776 -51.32143,1.45707 -80,3.0655 -28.67857,1.60843 -64.35715,3.50053 -79.28572,4.20466 -14.92857,0.70414 -40.32143,1.93608 -56.42857,2.73765 -16.10714,0.80158 -40.85714,1.32229 -55,1.15715 -14.14286,-0.16515 -42.20319,-0.48303 -62.3563,-0.70643 l -1e-5,0 z"
       id="path3392"
       inkscape:connector-curvature="0" />
    <path
       style="fill:#decd87"
       d="m 384.33086,1011.087 c 0,-2.2425 1.24688,-12.36754 2.77086,-22.49998 1.52397,-10.13245 3.4595,-24.8512 4.30117,-32.70834 0.84166,-7.85715 1.88417,-17.01786 2.31667,-20.35715 l 0.78636,-6.07143 22.05533,0 c 20.04726,0 22.05662,0.22762 22.06956,2.5 0.008,1.375 -0.94931,9.25 -2.12697,17.5 -1.17766,8.25 -3.4502,24.87598 -5.05008,36.94661 -1.59988,12.07063 -3.50642,23.06309 -4.23675,24.42779 -1.43618,2.6835 -14.06992,4.3399 -33.10169,4.3399 l -9.78446,0 0,-4.0774 z"
       id="path3394"
       inkscape:connector-curvature="0" />
    <path
       style="fill:#decd87"
       d="m 496.52047,1011.8391 c -2.6576,-1.9767 -2.84143,-4.3387 -3.38161,-43.4511 l -0.57122,-41.36082 6.79528,-0.93139 c 3.7374,-0.51227 11.80509,-0.9314 17.9282,-0.9314 10.25424,0 11.22311,0.25369 12.27576,3.21429 1.35068,3.79885 1.12071,82.33222 -0.24511,83.70292 -0.51507,0.517 -7.47373,1.1442 -15.4637,1.3938 -11.07314,0.346 -15.19543,-0.043 -17.3376,-1.6363 z"
       id="path3396"
       inkscape:connector-curvature="0" />
    <path
       style="fill:#decd87"
       d="m 603.61657,1015.2926 c -6.64212,-1.0957 -9.2822,-2.4749 -9.29452,-4.8554 -0.005,-0.9357 -1.02689,-3.63 -2.27124,-5.9871 -5.07993,-9.62287 -26.29138,-72.99974 -26.29138,-78.55502 0,-3.03055 4.08419,-3.88384 22.27435,-4.65368 l 17.27436,-0.73108 3.55878,9.11275 c 1.95734,5.01201 6.96921,19.71989 11.1375,32.68418 4.1683,12.96428 9.70889,29.95071 12.31243,37.74765 2.60354,7.7969 4.40526,14.7076 4.00383,15.3571 -0.84235,1.3629 -24.23648,1.2776 -32.70411,-0.1194 z"
       id="path3398"
       inkscape:connector-curvature="0" />
    <path
       style="fill:#decd87"
       d="m 365.00508,396.43776 c -1.20814,-0.22815 -1.20984,-0.23831 -0.8956,-5.36078 0.30265,-4.9337 1.09803,-10.35348 1.59189,-10.84734 0.46419,-0.46419 2.27613,2.22571 3.29687,4.89436 1.20638,3.15395 2.31951,9.65406 1.85883,10.85457 -0.31599,0.82346 -2.86422,1.02342 -5.85199,0.45919 z"
       id="path3400"
       inkscape:connector-curvature="0" />
    <path
       style="fill:#ffd42a"
       d="m 385.26825,395.51258 c -0.61739,-0.43244 -1.12662,-1.28476 -1.13161,-1.89404 -0.0206,-2.51574 1.7394,-15.48587 2.05315,-15.13027 0.43259,0.49029 1.85327,7.99665 2.29372,12.11915 0.26589,2.4887 0.16184,3.41364 -0.49718,4.41942 -0.97583,1.48931 -1.22237,1.53337 -2.71808,0.48574 z"
       id="path3402"
       inkscape:connector-curvature="0" />
    <path
       style="fill:#c8beb7"
       d="m 669.75696,401.68388 c -1.73335,-0.78709 -4.53083,-3.77648 -5.04241,-5.38831 -1.16987,-3.68594 4.66271,-8.72222 10.19045,-8.79918 3.13307,-0.0436 5.00503,1.11662 6.42881,3.9846 0.75306,1.51691 0.83419,2.11063 0.37514,2.74532 -0.71437,0.98771 -1.3211,2.35512 -1.90518,4.29378 -0.24253,0.805 -1.05658,1.92194 -1.80898,2.48209 -1.71887,1.27965 -6.1191,1.64378 -8.23783,0.6817 z"
       id="path3404"
       inkscape:connector-curvature="0" />
    <path
       style="fill:#c8beb7"
       d="m 297.91423,417.17439 c -1.58625,-2.96395 -1.26481,-5.57631 1.04793,-8.51648 3.60593,-4.5842 4.97745,-3.50836 4.97745,3.90438 0,6.3053 -0.0989,6.56599 -2.48984,6.56599 -1.42779,0 -2.93589,-0.83344 -3.53554,-1.95389 z"
       id="path3406"
       inkscape:connector-curvature="0" />
    <path
       style="fill:#c8beb7"
       d="m 313.87476,898.57008 c -3.5843,-3.20257 -3.51971,-5.83669 0.26099,-10.64306 2.63397,-3.34855 5.50704,-3.15351 8.27004,0.56142 2.00116,2.69061 2.00114,2.69134 -0.19761,7.23334 -1.20943,2.49836 -2.86608,4.79847 -3.68145,5.11135 -0.8263,0.31708 -2.88538,-0.6846 -4.65197,-2.26305 z"
       id="path3408"
       inkscape:connector-curvature="0" />
    <path
       style="fill:#c8beb7"
       d="m 687.54504,883.37772 c -3.18782,-3.10643 -3.5597,-6.19206 -1.01016,-8.38173 4.46714,-3.8366 8.40727,-2.9351 10.24781,2.34469 1.48614,4.26313 1.44295,4.59481 -0.9039,6.94165 -2.6518,2.6518 -4.93892,2.40354 -8.33375,-0.90461 z"
       id="path3410"
       inkscape:connector-curvature="0" />
    <path
       style="fill:#d4aa00"
       d="m 191.83086,938.22767 c -0.98215,-0.3963 -1.78572,-2.14826 -1.78572,-3.89324 0,-3.42556 6.58649,-14.64527 10.4703,-17.83556 2.19463,-1.80274 2.38684,-1.0385 2.38684,9.49002 0,9.12365 -0.45921,11.62686 -2.25969,12.31777 -2.59688,0.99652 -6.227,0.96398 -8.81173,-0.079 z"
       id="path3414"
       inkscape:connector-curvature="0" />
  </g>
</svg>
