<?xml version="1.0" encoding="UTF-8" standalone="no"?>
<!-- Created with Inkscape (http://www.inkscape.org/) -->

<svg
   xmlns:dc="http://purl.org/dc/elements/1.1/"
   xmlns:cc="http://creativecommons.org/ns#"
   xmlns:rdf="http://www.w3.org/1999/02/22-rdf-syntax-ns#"
   xmlns:svg="http://www.w3.org/2000/svg"
   xmlns="http://www.w3.org/2000/svg"
   xmlns:sodipodi="http://sodipodi.sourceforge.net/DTD/sodipodi-0.dtd"
   xmlns:inkscape="http://www.inkscape.org/namespaces/inkscape"
   width="210mm"
   height="297mm"
   viewBox="0 0 744.09448819 1052.3622047"
   id="svg4292"
   version="1.1"
   inkscape:version="0.91 r13725"
   sodipodi:docname="gopher-danger.svg">
  <defs
     id="defs4294" />
  <sodipodi:namedview
     id="base"
     pagecolor="#ffffff"
     bordercolor="#666666"
     borderopacity="1.0"
     inkscape:pageopacity="0.0"
     inkscape:pageshadow="2"
     inkscape:zoom="0.35"
     inkscape:cx="-105"
     inkscape:cy="687.36689"
     inkscape:document-units="px"
     inkscape:current-layer="layer1"
     showgrid="false"
     inkscape:window-width="1366"
     inkscape:window-height="705"
     inkscape:window-x="-8"
     inkscape:window-y="-8"
     inkscape:window-maximized="1" />
  <metadata
     id="metadata4297">
    <rdf:RDF>
      <cc:Work
         rdf:about="">
        <dc:format>image/svg+xml</dc:format>
        <dc:type
           rdf:resource="http://purl.org/dc/dcmitype/StillImage" />
        <dc:title></dc:title>
      </cc:Work>
    </rdf:RDF>
  </metadata>
  <g
     inkscape:label="Layer 1"
     inkscape:groupmode="layer"
     id="layer1">
    <g
       transform="matrix(1.0623381,0,0,1.1074183,-1780.243,-363.04725)"
       id="g4267">
      <path
         inkscape:connector-curvature="0"
         d="m 1976,353.1 c -6.3,3.6 -11.8,10.7 -13.1,16.7 -1.6,7.7 -0.4,19.9 2.1,21.2 3.7,2 5,0.3 5,-6.9 0.1,-15.3 5.3,-23.2 15.5,-23.3 4.3,-0.1 5.1,0.2 8.1,3.6 1.9,2.1 3.4,4.3 3.4,5 0,0.6 1.2,1.9 2.8,2.8 3.1,1.9 6.2,0.9 6.2,-2 0,-2.8 -7.9,-13.6 -11.8,-16.2 -5.1,-3.3 -13.4,-3.7 -18.2,-0.9 z"
         id="path34"
         style="fill:#000000;stroke:none" />
      <path
         inkscape:connector-curvature="0"
         d="m 2131.1,353.7 c -4.6,1.6 -18.1,13.5 -18.1,15.9 0,2.3 3.7,5.3 5.8,4.7 1.1,-0.2 4.1,-2.7 6.7,-5.4 2.8,-2.9 6.2,-5.3 8.5,-6 4.6,-1.4 13,-0.4 13,1.6 0,0.7 0.6,1.5 1.2,1.7 0.8,0.3 1.3,2.6 1.3,6.6 0,3.5 -0.6,6.7 -1.3,7.4 -2.9,2.9 -0.6,9.8 3.2,9.8 3.8,0 4.7,-2.2 5.3,-13.3 0.5,-9.7 0.4,-10.8 -2,-16 -1.4,-3 -3.5,-6.1 -4.7,-6.7 -3.6,-1.9 -13.9,-2.1 -18.9,-0.3 z"
         id="path36"
         style="fill:#000000;stroke:none" />
      <path
         inkscape:connector-curvature="0"
         d="m 1985.6,392.1 c -1.4,1.7 -2.9,4.2 -3.3,5.7 -0.5,2.2 0.6,18.7 2.4,35.2 0.3,3 0.3,5.2 -0.1,4.8 -0.4,-0.3 -3.2,2.2 -6.1,5.5 -3,3.4 -7.4,8.4 -9.8,11.2 -2.4,2.7 -6.6,8.1 -9.2,12 -2.7,3.8 -6.1,8.6 -7.5,10.5 -1.5,1.9 -4.9,7.5 -7.6,12.5 -2.6,4.9 -5.9,11.2 -7.4,14 -1.5,2.7 -3.5,7.2 -4.5,10 -1.1,2.7 -2.5,6.1 -3.2,7.5 -0.7,1.4 -1.3,3 -1.3,3.7 0,1.6 -13.3,17.2 -22.7,26.8 -3.1,3 -7.7,13.3 -7.7,17 0.1,1.6 1.1,5.1 2.3,7.8 2.1,4.3 2.8,4.8 7.8,6.3 l 5.5,1.6 -0.6,6.7 c -0.3,3.6 -0.8,12.4 -1.2,19.6 -0.3,7.1 -0.7,14.6 -0.9,16.5 -0.2,1.9 0.1,4 0.7,4.7 1.6,2 0.3,2.7 -3.2,1.5 -7.8,-2.8 -17.2,-13.7 -24.4,-28.7 -2.2,-4.4 -4.7,-9.1 -5.6,-10.5 -0.9,-1.4 -2.3,-4.1 -3,-6 -2,-5.2 -9.8,-17.9 -14.3,-23.2 -6.3,-7.5 -16.3,-8.9 -21.4,-3 -2.8,3.3 -3.1,9.7 -0.8,16.3 0.9,2.4 2.4,8.3 3.5,13.1 1,4.8 2.5,9.8 3.1,11 0.7,1.3 1.6,4.3 2,6.8 0.4,2.5 1.2,6.3 1.6,8.5 0.5,2.2 0.7,6.7 0.4,10 l -0.6,6 -4.7,0.3 c -5.1,0.3 -18.8,-4.3 -24.3,-8.3 -1.6,-1.1 -4.3,-2.8 -6,-3.6 -1.6,-0.7 -4.5,-2.4 -6.3,-3.6 -7.7,-5.1 -24.3,-12.3 -28.3,-12.3 -10,0 -16.4,7.4 -13.8,16 1.8,5.9 14.5,18.2 30.3,29.5 17.9,12.8 25.6,19.4 25.6,22.1 0,2 -0.7,2.2 -7.5,2.9 -4.2,0.4 -9.7,0.4 -12.3,0.1 -2.6,-0.4 -12.1,-1.1 -21.2,-1.6 -15,-0.7 -16.9,-0.7 -20.8,1 -2.8,1.3 -4.6,2.8 -5.3,4.7 -1.5,3.8 -0.6,10.9 1.7,13.5 4,4.4 13.1,8.8 21.5,10.4 5.5,1 27.3,8.5 30.4,10.4 1.8,1.1 3.8,2 4.5,2 1.7,0 13.1,9.4 20.5,17 7.6,7.8 20.4,15.6 32,19.5 l 9,3 -0.3,5 c -0.2,2.8 -1.4,9.3 -2.7,14.5 -1.3,5.2 -3.1,14 -4,19.5 -2.4,15.8 -3.5,21.1 -7.1,35.4 -1.9,7.4 -3.7,15.9 -4,19 -0.3,3.1 -1,6.9 -1.5,8.6 -0.6,1.6 -1.4,5.9 -1.9,9.5 -0.5,3.6 -1.6,10.3 -2.5,15 -0.9,4.7 -2,11 -2.5,14 -0.5,3 -1.4,8.2 -2,11.5 -0.6,3.3 -1.5,8.9 -2,12.5 -1.2,9.4 -3.7,25.2 -5.5,35 -0.8,4.7 -1.5,11.1 -1.5,14.3 0,3.2 -0.4,6.6 -0.8,7.5 -0.4,0.9 -0.5,10.1 -0.1,20.4 0.7,20.3 0.6,20 7.2,27.1 l 3.6,3.8 -4.6,2 c -6.9,2.9 -11.9,7.4 -14.3,12.7 -1.2,2.6 -2.5,5.4 -3,6.4 -0.5,0.9 -1.2,5 -1.6,9.2 -0.7,8.1 0.5,13 3.8,15.4 1,0.7 1.6,1.7 1.3,2.2 -1.3,2.2 6.4,7.9 9.8,7.2 0.4,-0.1 0.7,0.2 0.7,0.7 0,0.5 3.2,1.9 7.1,3.1 6.5,2.1 7.4,2.2 12.7,0.9 3.1,-0.7 6.1,-1.3 6.6,-1.4 0.5,0 2.4,5.6 4.1,12.5 1.7,6.9 3.9,14.6 4.8,17.3 2.4,6.8 3.2,17.6 1.7,22.2 -1.6,4.8 -5.4,9.2 -10.3,11.7 -2.2,1 -6,3.4 -8.5,5.2 -2.6,1.9 -7.4,4.6 -10.7,6.1 -12.7,5.8 -23.1,10.9 -25.5,12.5 -1.4,0.9 -4.2,2.8 -6.2,4.1 -2.1,1.3 -4.5,3.9 -5.5,5.6 l -1.7,3.3 3.4,3.5 c 3,3.1 3.9,3.5 8.6,3.5 2.9,0 7.6,-0.5 10.4,-1.1 2.8,-0.6 5.4,-0.9 5.6,-0.6 0.3,0.2 -2.1,2.2 -5.3,4.3 -6.7,4.4 -15.5,12.9 -17.7,17.2 -1.5,3 -1.3,7.6 0.5,9.8 1.9,2.3 6,2.5 10.2,0.6 2.3,-1.1 6.2,-2.5 8.7,-3.2 2.5,-0.8 5,-1.7 5.5,-2 1.7,-1.2 8.5,-2.1 8.5,-1.2 0,0.8 -3.3,5.5 -6.9,9.8 -2.5,3.1 -6.1,11.7 -6.1,14.9 0,3.8 2.4,6.9 6.6,8.5 3.3,1.3 8.4,1.3 8.4,0 0,-0.6 0.3,-0.9 0.8,-0.8 0.8,0.1 6.1,-1.8 7.8,-2.9 5.6,-3.7 11.4,-8.2 13.9,-10.6 1.7,-1.6 5.3,-4.4 8,-6.2 2.8,-1.9 6.4,-4.7 8.2,-6.3 3.3,-3.1 16.1,-10.4 20.3,-11.7 1.4,-0.4 4.4,-2 6.8,-3.6 2.4,-1.6 4.8,-2.9 5.3,-2.9 1.1,0 14.3,-8.3 19.9,-12.6 1.9,-1.4 4,-2.9 4.5,-3.3 1.5,-0.9 5.4,-6.7 6.7,-9.8 1.3,-3.3 1.9,-18.3 0.7,-18.3 -2.1,0 -5.4,-11.8 -6.4,-23 -0.2,-1.4 -0.8,-6.3 -1.4,-11 -1.3,-9.1 -1,-15.5 0.9,-19.1 1.1,-2 1.7,-2.1 8.3,-1.5 4,0.4 10.1,1.1 13.7,1.6 27.8,4.2 32.4,4.7 46,5.5 20.6,1.2 35.4,1.4 36.6,0.4 0.7,-0.5 1.4,-0.6 1.7,-0.2 0.6,1 33.4,0.9 39.7,-0.1 2.5,-0.4 11.5,-0.9 20,-1.1 8.5,-0.3 17.3,-0.6 19.5,-0.7 l 4,-0.3 0.3,9 c 0.3,7.8 -0.2,10.7 -3.3,22 -2,7.1 -5.2,17.2 -7.1,22.2 -3.6,10 -4,13.1 -2.3,18.4 1.4,4.1 9.6,12.9 12.1,12.9 0.9,0 1.9,0.4 2.2,0.8 0.2,0.4 8.5,4.8 18.3,9.7 9.8,4.9 18.2,9.5 18.6,10.2 0.4,0.7 1.6,1.3 2.5,1.4 0.9,0 3.8,1.2 6.4,2.7 9.3,5.4 19.4,11.6 25.8,15.7 8.7,5.7 21.9,12.2 27.2,13.4 15.7,3.6 20.3,-5.9 8.4,-17.4 -6,-5.8 -13,-11.6 -15.4,-12.8 -2.6,-1.3 -8.5,-9.1 -7.2,-9.5 1.3,-0.5 11,3.3 16.5,6.4 6.6,3.8 18.6,8.4 21.7,8.4 4.2,0 9.5,-2.5 10.3,-4.8 1.5,-4.9 -9.5,-19.3 -20.3,-26.6 -5.9,-4 -6,-4.6 -0.5,-3 10,3 20.3,0.8 20.3,-4.4 0,-4.4 -2.5,-7.5 -9,-11.1 -4.1,-2.2 -18.6,-9.4 -32.5,-16.3 -10.7,-5.2 -13.4,-7 -15.4,-10.1 -1.3,-2 -3,-3.7 -3.8,-3.7 -3.7,0 -4.5,-16.9 -1.4,-29.7 2.2,-9.2 6.9,-23.5 10.4,-31.9 2.9,-6.9 7.7,-34.2 7.7,-44.2 0,-1.6 1.2,-2.7 4.5,-4.3 5.2,-2.4 9.4,-6.3 10,-9.3 0.2,-1.2 1.2,-5.3 2.2,-9.1 2.1,-8.3 2.3,-31.2 0.4,-54.5 -0.7,-8 -1.1,-16.8 -1.1,-19.7 0.1,-2.8 -0.4,-8.9 -0.9,-13.5 -0.6,-4.6 -1.3,-14.4 -1.5,-21.8 -0.6,-14 -2.7,-37.8 -5.2,-58.5 -0.8,-6.6 -1.7,-14.9 -2,-18.5 -0.3,-3.6 -1.2,-10.1 -2.1,-14.5 -0.8,-4.4 -1.8,-11 -2.2,-14.6 -0.4,-3.6 -1.5,-8.8 -2.4,-11.5 -0.9,-2.7 -2.6,-9 -3.8,-13.9 -1.2,-5 -3,-11 -3.9,-13.5 -3.8,-9.4 -4.2,-12.9 -1.9,-15.2 2.6,-2.5 8.2,-5.8 10,-5.8 0.9,0 2.1,-1.1 2.7,-2.4 0.6,-1.3 3.2,-3.9 5.9,-5.7 2.6,-1.8 5,-3.5 5.3,-3.8 2.7,-3 23.7,-11.7 34,-14.1 7.8,-1.8 14.8,-3.9 20,-6 5.2,-2.1 8.5,-3.2 8.5,-2.9 0,1 10.5,-6.1 12.8,-8.5 5.9,-6.4 5.5,-15.1 -0.8,-17 -1.7,-0.5 -3.9,-1.3 -5,-1.7 -2.1,-1 -6.8,-1.2 -18,-1 -10.4,0.2 -25.9,-1.5 -29.2,-3.2 -4.9,-2.6 -5.7,-4.1 -4.2,-8.4 0.6,-2.1 3.2,-6.5 5.7,-9.8 8.5,-11.2 9.8,-13 12.2,-17 1.3,-2.2 2.8,-4.2 3.2,-4.3 0.4,-0.2 0.8,-0.7 0.8,-1.2 0,-0.5 2.4,-4.1 5.4,-8 2.9,-4 6.2,-8.9 7.2,-11.1 1.1,-2.1 2.2,-3.9 2.6,-3.9 1,0 2.8,-5.9 2.8,-9.1 0,-3.9 -3.2,-6.9 -7.3,-6.9 -3.8,0 -7.8,1.8 -15.6,6.9 -2.9,2 -6.1,4 -7,4.6 -3.6,2.2 -8.7,6 -10.7,7.9 -2,2 -6.2,5.3 -17.3,13.5 -3.3,2.5 -7.5,4.5 -10.7,5.2 -4.7,1.1 -5.5,1 -9.3,-1.2 -2.4,-1.3 -4.1,-3 -4.1,-4 0,-5.6 5.6,-24.5 9,-30.4 0.9,-1.7 2.8,-6.4 4,-10.5 1.3,-4.1 2.7,-7.7 3.1,-8 1.1,-0.8 3.8,-12.4 3.1,-13.5 -0.4,-0.5 -0.8,-1.9 -0.9,-3 -0.5,-3 -4.3,-5.5 -8.4,-5.5 -3.2,0 -4.6,1 -11.5,7.7 -4.4,4.3 -10.4,11.6 -13.4,16.1 -5.4,8.3 -5.5,8.3 -5.8,5 -0.1,-1.8 -0.9,-6.9 -1.7,-11.4 -1.9,-10.4 -1.9,-10.1 1.1,-10.8 6.6,-1.7 11.1,-7.8 9.8,-13.4 -0.9,-3.5 -5.5,-10.4 -11.3,-16.7 -7.8,-8.6 -8.9,-10.2 -10.6,-15.2 -0.9,-2.6 -2,-5 -2.4,-5.3 -0.4,-0.3 -2.7,-5.9 -5,-12.5 -4.4,-12.4 -8,-20.3 -15.6,-34 -2.5,-4.4 -4.8,-8.7 -5.2,-9.5 -0.3,-0.8 -1.9,-3.1 -3.4,-5 -1.4,-1.9 -3.7,-5.4 -4.9,-7.7 -1.2,-2.3 -2.8,-4.7 -3.5,-5.3 -1.7,-1.4 -1.2,-8.3 1.2,-17.7 1.9,-7.3 1.2,-21.6 -1.2,-26.2 -1.7,-3.4 -7,-6.1 -11.7,-6.1 -5,0 -8.2,3.4 -11.3,12 -3.6,9.6 -4.1,10.3 -6.8,8.7 -1.2,-0.7 -3,-1.8 -4,-2.6 -4,-3.2 -13.6,-7.9 -20.2,-9.7 -2.7,-0.8 -9.5,-1.7 -15,-2 -16.1,-1 -26,1.2 -50.7,11.2 l -5.6,2.3 -3.4,-5.7 c -1.8,-3.1 -5.7,-8.1 -8.5,-10.9 -4.8,-4.8 -5.7,-5.3 -9.7,-5.3 -3.7,0 -4.8,0.5 -7,3.1 z m 13.5,8.9 c 5.5,6.8 4.4,12 -2.5,12 -3.6,0 -4.9,-1.8 -6.1,-7.8 -0.8,-3.8 1.7,-8.5 4.2,-8 0.9,0.2 2.8,1.9 4.4,3.8 z m 133.8,0.7 c 1.4,2.8 1.8,13.8 0.4,13.8 -0.6,0 -1.5,0.3 -1.9,0.7 -1.6,1.7 -5.4,0.7 -7,-1.7 -1.8,-2.8 -1.3,-8.4 1.2,-12.3 1.7,-2.7 5.9,-2.9 7.3,-0.5 z m -52.1,4.8 c 6.9,1.6 14.3,5.1 20.5,9.6 2.2,1.6 4.8,2.9 5.9,2.9 2.2,0 2.1,-0.2 0.4,4.8 -1.9,5.4 -4,23.2 -3.3,28.9 0.3,3.1 1.3,5.4 3.3,7.4 2.4,2.5 3.5,2.9 8.2,2.9 6.5,0 10.6,-2.7 15.4,-10.1 1.7,-2.7 3.5,-4.6 3.9,-4.2 7.9,8.4 17.5,27.2 19.5,38.7 2.2,12.6 1.5,20.7 -3,37.4 -2.4,8.9 -8,18.4 -14.5,24.7 -4.5,4.3 -5.3,8.2 -2.7,13.3 0.7,1.5 2.1,6.7 3.1,11.7 0.9,4.9 2.8,12.1 4,16 3.7,11 6.7,44.3 4.5,50 -1.5,4 -5.8,3.3 -16.8,-2.9 -9.6,-5.4 -20.5,-9.6 -24.8,-9.6 -1.3,0 -2.6,-0.5 -2.9,-1 -0.3,-0.6 -2.6,-1 -4.9,-1 -10.3,0 -14.6,2.6 -14.6,8.8 0,3.1 0.8,4.6 4.8,8.8 2.6,2.8 7,7 9.9,9.3 4.6,3.9 8.3,9.4 7.1,10.6 -1.4,1.4 -26.6,4.7 -39.8,5.2 -25.6,0.9 -60.6,-4.1 -82.7,-11.8 -3.2,-1.1 -7.3,-2.5 -9,-3.1 -1.8,-0.6 -3.3,-1.4 -3.3,-1.8 0,-1.4 2.9,-4 11.5,-10.5 11.1,-8.5 10.8,-8.2 13.5,-13.4 2.3,-4.7 2.2,-7.5 -0.8,-11.1 -1.5,-1.8 -2.8,-2.2 -8.7,-2.2 -3.9,-0.1 -8.8,0.4 -11,1 -6.4,1.9 -6.6,1.8 -6,-3.6 0.5,-4.6 3.1,-19.1 5.6,-30.2 0.6,-3 2,-6.4 3,-7.6 1.1,-1.1 1.9,-2.4 1.9,-2.9 0,-0.4 -1.5,-4 -3.4,-7.9 -1.9,-3.9 -4.2,-9.8 -5.1,-13.1 -1,-3.3 -2.1,-6.5 -2.5,-7 -1.1,-1.5 -4.7,-14.1 -6,-21 -2.4,-13.7 -1.9,-29.2 1.3,-35.1 4.3,-7.9 4.2,-7.5 2.6,-8.8 -0.9,-0.6 -1.4,-1.8 -1.1,-2.6 0.9,-2.7 7.9,-11.4 15.6,-19.5 l 7.7,-8 1.5,2.8 c 1.8,3.4 4,6.2 7.3,9.4 2.6,2.5 8.3,3.1 12.3,1.2 7.5,-3.4 10.5,-17.4 7.4,-34.7 -1.1,-6.6 -1.1,-7.4 0.3,-7.9 0.9,-0.2 3.9,-1.5 6.6,-2.8 2.8,-1.3 7.5,-3.3 10.5,-4.5 3,-1.1 6.4,-2.5 7.5,-3 7.4,-3.7 29.3,-5.1 40.3,-2.5 z M 1951,503.7 c 0,2.7 0.5,7.5 1,10.8 0.6,3.3 1.5,8.7 2.1,12 1,6.3 10.5,35.1 12.2,37.2 0.5,0.7 0.6,1.3 0.2,1.3 -0.4,0 -0.2,0.7 0.5,1.5 1,1.2 1,2.5 0.2,5.8 -4.1,16 -8.2,38.5 -8.2,45.2 0,3.4 -0.4,4.2 -2.8,5.2 -4.4,2 -22.4,13.9 -26,17.2 -3.6,3.4 -5.7,3.8 -8.7,1.5 -1.9,-1.4 -2,-2.6 -1.9,-18.2 0.1,-21 1,-32.3 4.5,-56.6 1,-7 7.6,-29.2 11.7,-39.6 0.6,-1.4 2,-5 3.2,-8 2.6,-6.5 10.2,-20 11.3,-20 0.4,0 0.7,2.1 0.7,4.7 z m 217,10.3 c 1.1,3.6 3,9.2 4,12.5 2.1,6.3 4.7,18.4 6,27.5 0.4,3 1.5,8 2.4,11 1.7,6 3.2,21.2 3.1,32.5 0,6.6 -0.3,7.5 -4,12.9 -2.2,3.2 -4.7,6.3 -5.6,7 -0.9,0.6 -1.9,2.3 -2.2,3.7 -0.8,3.3 -11.9,13.9 -14.5,13.9 -2.8,0 -3.2,-1.7 -3.8,-14.9 -0.6,-12.1 -1.8,-19.3 -5.5,-32.6 -1.2,-4.4 -2.5,-10.3 -2.9,-13 -0.5,-2.8 -1.5,-7 -2.4,-9.4 -2.3,-6.2 -2.1,-6.8 2.9,-11.6 4.7,-4.4 12.5,-18.1 12.5,-22 0,-1.1 0.4,-2.5 1,-3.1 1,-1 2.5,-6.8 4.2,-17.3 1.2,-7.2 1.7,-6.9 4.8,2.9 z m 20.9,33 c 4.3,4.3 4.9,6.1 2.9,7.8 -2.9,2.3 -5.1,1.8 -5.9,-1.3 -1,-4.1 -1.8,-10.5 -1.4,-10.5 0.2,0 2.2,1.8 4.4,4 z m -269.3,2 c 0,1.1 -0.4,2 -0.8,2 -0.4,0 -0.8,1.1 -0.8,2.4 0,1.4 -0.7,5.5 -1.5,9.3 -0.9,3.7 -1.8,7.8 -2,9 -0.4,1.7 -1.3,2.3 -3.2,2.3 -8,0 -8.4,-9.7 -0.8,-19 1.7,-2.1 8.2,-8 8.9,-8 0.1,0 0.2,0.9 0.2,2 z m -65.2,19.2 c 3.9,4 11.6,17.6 24,42.3 4.2,8.3 6.5,11.4 13.6,18.6 5.2,5.1 11,9.9 14.6,11.8 3.2,1.7 7.2,4.2 8.9,5.5 l 3,2.4 -4.5,1.1 c -15.8,3.9 -27,9.8 -34.3,18 -1.5,1.7 -3.1,3.1 -3.6,3.1 -1.2,0 -9.6,12.9 -11,16.9 -1.6,4.8 -1.4,8.8 0.5,9.5 2.4,0.9 3.2,0 6.3,-6.8 3.3,-7.4 13.2,-18.3 21.1,-23.5 3.2,-2.1 11.3,-5.5 19.3,-8.1 12.5,-4.2 14.3,-5.1 19.5,-9.8 7.5,-6.8 20.2,-15.4 21.9,-14.8 0.7,0.3 1.3,0.1 1.3,-0.4 0,-0.6 0.7,-1 1.5,-1 0.8,0 1.5,-0.4 1.5,-0.8 0,-1.7 7.9,-5.2 14.9,-6.7 9.1,-1.9 8.8,-1.9 9.6,0.5 0.4,1.2 1.1,1.7 1.8,1.3 3.2,-1.8 -3.4,4.2 -8.6,7.9 -9.4,6.7 -18.7,15.8 -20.7,20.3 -1,2.3 -3.9,10.1 -6.5,17.5 -2.5,7.3 -4.9,13.8 -5.4,14.4 -0.6,0.6 -3,7.3 -5.5,14.7 -6.4,19.5 -10,24.7 -22.6,33 -11.1,7.2 -24,12.1 -33.2,12.5 -3.2,0.1 -6.2,0.5 -6.8,0.9 -0.5,0.3 -1,0.1 -1,-0.5 0,-0.6 -0.8,-0.9 -1.8,-0.6 -2.4,0.8 -11.7,-2.5 -19.4,-6.8 -3.7,-2.1 -10.9,-8 -17.6,-14.5 -15.1,-14.6 -21.4,-17.7 -59.8,-29 -12.5,-3.7 -16.6,-8.1 -12.9,-13.7 1.6,-2.4 1.8,-2.5 14.3,-2.3 7,0 17,0.7 22.2,1.4 5.2,0.7 10.9,1.3 12.5,1.2 8.1,-0.2 7.8,-0.4 7.1,6.6 -0.5,4.7 -0.3,6.8 0.8,8.2 2.6,3.5 4.7,0.8 6.6,-8.1 1.9,-9.1 10.2,-26.4 14.9,-31.2 1.7,-1.7 3.1,-3.4 3.1,-3.9 0,-1.4 9.2,-9.8 13.5,-12.3 2.2,-1.3 5.3,-3.4 6.8,-4.7 1.6,-1.3 5.3,-3.5 8.3,-5 4.6,-2.3 5.4,-3 5.4,-5.5 0,-2.7 -0.2,-2.8 -4.4,-2.8 -3.4,0 -5.7,0.8 -9.2,3.1 -3.5,2.4 -4.8,2.9 -5.4,1.9 -0.5,-0.7 -0.6,-1.9 -0.3,-2.6 0.9,-2.4 -2.8,-19.1 -10.8,-47.9 -2,-7.4 -2.4,-11.7 -1.2,-12.9 1.1,-1 6.1,0.1 7.7,1.6 z m 368.5,6 c -1.2,2.9 -2.5,6.1 -3,7 -0.5,1 -0.9,2.3 -0.9,2.9 0,0.6 -1.3,4 -3,7.6 -1.6,3.5 -3,6.9 -3,7.5 0,0.5 -0.7,2.5 -1.6,4.4 -0.9,1.9 -2.9,7.6 -4.3,12.7 l -2.7,9.2 -6.1,-0.3 c -4.3,-0.2 -6.4,0.2 -7.2,1.2 -2,2.4 0.2,5 5.3,6.4 3.8,1 8.9,4 16.1,9.4 6.2,4.8 13.4,11.3 14.5,13.2 0.7,1.3 3.7,4.6 6.7,7.2 6.1,5.4 10.9,13.4 14.3,23.6 2.1,6.3 2.5,6.8 5.1,6.8 2.3,0 3.1,-0.7 4.3,-3.4 l 1.4,-3.3 5.3,0.9 c 3,0.5 12.2,1 20.5,1.2 16.9,0.5 22,1.2 22.8,3.2 0.5,1.4 -3.8,5.4 -6,5.4 -0.7,0 -3.4,1.3 -6,2.9 -2.5,1.7 -6,3.3 -7.8,3.7 -1.7,0.3 -3.6,1.1 -4.3,1.6 -0.7,0.5 -1.6,0.7 -2.1,0.4 -0.5,-0.3 -2.9,0.1 -5.3,0.8 -2.4,0.8 -9.1,2.9 -14.9,4.7 -11.9,3.6 -18.2,6.2 -22.5,9.3 -1.6,1.1 -3.2,2.1 -3.5,2.1 -1.2,0 -11.8,7.7 -14.5,10.4 -1.7,1.7 -3.4,3.1 -3.8,3.1 -0.5,0 -2.7,1.3 -5,2.9 -6.9,4.6 -15.1,7.2 -23.3,7.2 -6.8,0 -14.5,-1.5 -16.9,-3.2 -0.5,-0.4 -5.8,-3.2 -11.6,-6.2 -14.8,-7.6 -17.3,-9.7 -21.4,-18.1 -2.8,-6 -7,-20.1 -8,-27.1 -1.7,-12.2 -2.9,-15.7 -7.6,-22.5 -2.7,-3.8 -5.3,-7 -5.7,-7 -0.4,0 -5.5,-4.7 -11.3,-10.4 -5.8,-5.7 -11.3,-10.8 -12.3,-11.3 -0.9,-0.5 -2.1,-2.4 -2.6,-4.2 l -0.9,-3.4 4.7,0.6 c 10.5,1.3 30.1,9.6 37.2,15.7 3.5,3.1 3.6,3.1 11.5,2.4 10.6,-1 23.1,-0.7 25.5,0.6 1,0.5 2.6,1 3.6,1 1.7,0 11.8,4.5 13.8,6.1 0.6,0.5 4.1,3.1 7.7,5.8 3.6,2.7 7.6,6.6 8.7,8.5 2.3,3.9 4.5,4.5 8,2 2.2,-1.5 2.9,-4.9 1.4,-6.9 -0.8,-1.1 -10.7,-9.5 -16.7,-14.2 -4.7,-3.6 -19.4,-9.9 -25.4,-10.9 -2.2,-0.4 -4.1,-1 -4.1,-1.3 0,-1 3.9,-5.1 4.9,-5.1 0.5,0 2,-1.8 3.5,-4 1.4,-2.2 2.3,-4 2,-4 -0.8,0 4.1,-6.5 7.9,-10.5 3,-3.1 8.7,-11.1 8.7,-12.2 0,-0.3 1.4,-2.4 3.1,-4.7 1.7,-2.3 5.1,-7.3 7.7,-11.3 6.3,-9.6 17.3,-21.1 20.4,-21.3 0.4,0 -0.2,2.4 -1.3,5.2 z m 58.9,39.5 c -2.2,3.6 -4.4,7.1 -4.9,7.7 -2.4,2.9 -7.8,10.5 -9.9,14.1 -1.3,2.2 -3,4.7 -3.7,5.5 -2.1,2.3 -9,11.9 -12.5,17.2 -1.6,2.7 -3.4,4.8 -3.8,4.8 -1.3,0 -17,-16.8 -17,-18.2 0,-0.4 1.7,-1.5 3.8,-2.3 2,-0.9 4.2,-2.1 4.7,-2.8 0.6,-0.7 3.5,-2.8 6.5,-4.6 3,-1.9 8.2,-5.7 11.5,-8.6 6.6,-5.7 23.7,-17.5 25.4,-17.5 0.6,0 1.1,-0.5 1.1,-1 0,-0.6 0.6,-1 1.4,-1 1,0 0.2,2.1 -2.6,6.7 z m -495.2,1.7 c 2.2,0.7 9.2,4.3 15.7,8 6.5,3.6 11.9,6.6 12.1,6.6 0.2,0 3.9,1.9 8.2,4.3 4.4,2.4 10.7,5.2 14.2,6.3 3.4,1 6.2,2.2 6.2,2.6 0,0.6 -8.2,11.4 -11.4,15 -0.8,0.9 -2.2,3.1 -3.1,4.7 -0.8,1.7 -1.8,3.1 -2.1,3.1 -0.3,0 -1.7,-1.1 -3.2,-2.5 -1.5,-1.4 -4.1,-3.3 -5.8,-4.1 -1.8,-0.8 -4.7,-2.8 -6.5,-4.5 -1.8,-1.6 -3.9,-2.9 -4.6,-2.9 -0.7,0 -1.3,-0.4 -1.3,-0.8 0,-0.5 -3.3,-3.1 -7.2,-5.9 -9.1,-6.3 -23.4,-20.4 -24.2,-23.9 -1.6,-6.3 4.4,-9.1 13,-6 z m 186.4,47.5 c 3.6,1.1 9.4,2.7 13,3.5 3.6,0.8 9.2,2.1 12.5,2.9 19.9,5 31.3,6.2 57,6.1 19.5,-0.1 26.5,-0.5 32,-1.8 3.9,-0.9 10.4,-2.1 14.5,-2.7 4.1,-0.6 7.9,-1.5 8.4,-1.9 1.4,-1.3 6.5,5.4 8.5,11.2 1,2.9 2.1,7.8 2.5,10.8 1.3,10.1 6.2,25.6 11.4,35.9 2.6,5.1 9.7,10.6 20.7,16 19.4,9.4 32.3,13.7 38.5,12.7 2.2,-0.3 5.7,-0.9 7.8,-1.2 3.7,-0.6 3.8,-0.5 5.9,4.2 2.8,6.5 5.2,13.6 6.8,20.7 0.7,3.2 1.6,6.6 2,7.5 1.2,3.1 3.6,15.6 4.1,21.2 0.2,3 0.9,6.8 1.4,8.4 0.6,1.6 1,4.7 1,7 0,2.3 0.6,7.5 1.4,11.6 0.8,4.1 1.7,9.3 1.9,11.5 0.3,2.2 0.8,5.1 1.1,6.5 0.3,1.4 0.8,7.1 1.1,12.8 0.2,5.7 0.7,10.7 0.9,11 0.2,0.4 0.7,7.9 1,16.7 0.4,8.8 1.1,20.3 1.6,25.5 0.5,5.2 1.2,14 1.5,19.5 0.4,5.5 0.8,11.6 1,13.5 0.2,1.9 0.7,14.8 1.1,28.6 0.7,25.7 0,32.4 -3.1,32.4 -1.8,0 -2.4,2.1 -1.3,4.3 1.5,3 -0.9,9.2 -4.6,12.1 -1.9,1.4 -3.7,2.6 -4,2.6 -0.4,0 -4.8,2 -9.9,4.4 -5,2.4 -12.8,5.4 -17.2,6.5 -4.4,1.2 -12,3.2 -17,4.5 -4.9,1.4 -11.5,3.1 -14.5,4 -3,0.9 -13.6,2.5 -23.5,3.6 -9.9,1.1 -20.5,2.5 -23.5,3 -5.7,1 -50.3,2.9 -60.1,2.5 -3,-0.1 -6,-0.4 -6.5,-0.7 -0.5,-0.4 -10.4,-0.9 -21.9,-1.3 -11.6,-0.3 -23.5,-1.1 -26.5,-1.6 -3,-0.5 -13.1,-1.8 -22.5,-2.9 -25.9,-3.1 -46.4,-6.7 -60.4,-10.6 -10.5,-2.9 -37.7,-11.8 -41.6,-13.5 -1.1,-0.5 -3.9,-1.5 -6.1,-2.3 -3.8,-1.3 -12.2,-6 -13.4,-7.5 -1.8,-2.4 -6.7,-5.1 -9.1,-5.1 -2,0 -3,-0.6 -3.5,-2.3 -0.9,-2.6 -0.8,-38.2 0.2,-48.2 0.7,-8.2 1,-9.8 2.3,-13.9 0.6,-1.7 1.5,-7.2 2,-12.1 0.6,-5 1.5,-12.4 2.1,-16.5 0.6,-4.1 1.3,-9.1 1.5,-11 0.3,-1.9 0.9,-5.3 1.5,-7.5 0.5,-2.2 1,-6.4 1,-9.3 0,-2.8 0.5,-5.2 1,-5.2 0.6,0 1,-1.5 1,-3.3 0,-1.9 0.8,-6.7 1.9,-10.8 1,-4.1 2.8,-13 4,-19.9 1.2,-6.9 3.3,-16.6 4.6,-21.5 3.3,-12.9 5.3,-22.2 6,-28.5 1,-8.9 2.6,-16.8 5.8,-28 1.6,-5.8 3.3,-12.2 3.6,-14.4 l 0.6,-3.9 10.7,-3.8 c 5.9,-2.1 12.4,-4.8 14.5,-6.1 2.1,-1.3 5.9,-3.4 8.5,-4.7 2.7,-1.3 7.9,-5.5 11.7,-9.3 9.4,-9.2 13.8,-17.2 19.6,-35.8 0.9,-3 3,-8.3 4.6,-11.7 1.6,-3.4 2.9,-6.9 2.9,-7.7 0,-0.8 1.6,-5.1 3.5,-9.5 1.9,-4.5 3.2,-8.1 2.8,-8.1 -0.3,0 0,-0.7 0.7,-1.5 0.8,-0.9 1.7,-1.1 2.8,-0.5 1,0.5 4.6,1.8 8.2,2.9 z m -112.1,372.5 c 0.9,1.1 1,2.5 0.2,5.3 -1.3,4.7 -1.4,16.6 -0.2,23 0.5,2.6 1.2,6.9 1.5,9.4 0.5,4.2 0.3,4.7 -2.1,5.8 -5.6,2.6 -10.5,2.4 -17.9,-0.5 -6.1,-2.3 -7.6,-3.4 -10.4,-7.5 -3,-4.5 -3.2,-5.2 -2.6,-10.6 1.9,-16 6,-20.5 21.1,-23.7 3.7,-0.8 6.9,-1.7 7.2,-2 1,-1 2,-0.7 3.2,0.8 z m 16.2,4.9 c 0.4,0.5 1.1,0.7 1.7,0.3 0.6,-0.3 1.3,-0.2 1.7,0.3 0.3,0.6 1.2,0.8 2,0.4 0.8,-0.3 1.5,0 1.5,0.6 0,0.6 1.2,1.1 2.6,1.1 3.5,0 10.4,2.1 10.4,3.2 0,0.4 1.3,0.8 3,0.8 1.6,0 5.1,0.7 7.7,1.6 9.4,3.2 32.5,8.2 41.8,9 2.2,0.2 5.1,0.6 6.5,1 2.6,0.7 7.1,1.3 29,3.9 14,1.7 22.8,2.3 44,2.8 6.9,0.1 13,0.6 13.7,1 0.6,0.4 11.4,0.7 24,0.6 12.5,-0.1 25.3,-0.1 28.3,0 3,0.1 10.2,-0.6 16,-1.4 15.7,-2.4 25.8,-3.6 33,-3.9 3.6,-0.2 8.5,-0.9 11,-1.6 2.5,-0.7 6.3,-1.4 8.4,-1.6 2.2,-0.3 4.4,-0.8 5,-1.3 0.6,-0.4 2.7,-1.1 4.6,-1.4 4.8,-0.9 24.3,-6.2 31,-8.6 11.1,-3.8 10,-4.3 10,4.6 -0.1,8.5 -3.9,28.6 -5.8,30.5 -0.7,0.7 -1.2,1.6 -1.2,2.2 0,0.5 -1.1,3.7 -2.4,7 -1.4,3.4 -3.9,11.5 -5.7,18.1 -2.8,10.5 -3.2,13.5 -3.2,23.7 0.1,9.9 0.4,12.4 2.2,16.2 2.3,4.7 9.6,13.6 11.2,13.6 1,0 27.1,12.8 34.3,16.8 l 4.1,2.3 -4.5,-0.8 c -10.7,-1.7 -17.5,-0.2 -18.6,4.3 -0.9,3.7 2.5,8.2 8.3,11.1 2.9,1.4 5.3,2.9 5.3,3.2 0,0.4 1.2,1.4 2.7,2.2 6,3.1 17.3,15.9 14.1,15.9 -0.8,0 -6,-2.3 -11.6,-5 -5.6,-2.8 -10.4,-5 -10.7,-5 -0.3,0 -2.9,-1.1 -5.8,-2.5 -2.8,-1.4 -6.9,-2.7 -8.9,-2.8 -3.2,-0.1 -4.3,0.4 -6.8,3.3 -2,2.4 -2.9,4.6 -3,7 0,4.1 3.7,8.2 18.9,20.7 5.2,4.3 9.6,8.4 9.9,9 1.2,4 -12.4,-2.2 -28.6,-12.9 -5.7,-3.7 -10.8,-6.8 -11.4,-6.8 -0.6,0 -2.6,-1.1 -4.4,-2.5 -3.1,-2.3 -8,-4.9 -33.4,-17.5 -16.6,-8.2 -22.8,-11.7 -25,-13.8 -0.8,-0.9 -2.7,-3.1 -4.1,-5 -2.5,-3.4 -2.6,-3.8 -1.5,-8.6 0.7,-2.8 1.7,-6 2.3,-7.1 0.6,-1.1 2.9,-9 5.1,-17.5 3.6,-13.8 4.9,-23.4 5.2,-37.7 0,-0.7 2.1,-1.5 4.8,-1.9 6.7,-0.9 13.6,-4.4 14,-7.1 0.5,-3.5 -2.6,-4.5 -8.4,-2.7 -6.9,2.1 -23.2,4.2 -42.4,5.5 -9.1,0.6 -18.3,1.3 -20.5,1.5 -2.2,0.2 -12.3,0.3 -22.5,0.3 -10.2,-0.1 -22.7,-0.1 -27.8,-0.1 -5.1,0 -9.4,-0.3 -9.7,-0.7 -0.2,-0.4 -4.3,-0.6 -9.2,-0.5 -7.6,0.2 -45.1,-3.7 -47.1,-5 -0.4,-0.2 -6.7,-0.9 -14,-1.6 -7.5,-0.7 -15.8,-2 -19,-3.1 -3,-1 -6.8,-1.9 -8.3,-1.9 -1.5,0 -3.1,-0.5 -3.4,-1 -0.8,-1.3 -9.5,-1.3 -9.5,-0.1 0,0.5 -0.2,1.6 -0.5,2.4 -0.6,1.4 6.3,5 14.5,7.6 l 3.5,1.1 -0.3,10.7 c -0.2,8.2 0.4,14.3 2.3,25.3 1.5,8 2.8,16.5 3.1,19 0.2,2.5 0.9,7.5 1.5,11.1 1.1,6.3 1.1,6.8 -1.3,10.2 -4.6,6.9 -16.9,14.5 -40.3,25.2 -10.1,4.6 -20.5,11.9 -38.4,26.9 -3,2.5 -6,4.6 -6.7,4.6 -0.7,0 -1.4,0.3 -1.6,0.7 -0.7,1.8 -6.9,4.3 -10.2,4.3 -3.1,0 -3.6,-0.3 -3.6,-2.3 0,-1.2 0.8,-3.4 1.8,-4.8 5.7,-8.6 7.3,-10.7 10.2,-13.4 6.2,-5.7 11,-12.6 11,-15.6 0,-2.5 -0.4,-2.9 -2.9,-2.9 -3.8,0 -32.4,9 -38.3,12.1 -4.1,2.1 -3.8,0 0.8,-5.1 3.7,-4.1 12.3,-10.4 18.4,-13.5 7.6,-3.8 12.8,-11.7 10,-15 -1.7,-2.1 -8.2,-1.9 -16.8,0.5 -6.9,1.9 -16.2,2.7 -16.2,1.4 0,-1.6 5.5,-5.1 17.5,-11 7.2,-3.6 13.7,-6.9 14.5,-7.4 0.8,-0.5 3.8,-1.9 6.5,-3.1 2.8,-1.3 5.6,-2.9 6.3,-3.6 0.7,-0.7 1.7,-1.3 2.1,-1.3 0.4,0 3.1,-1.8 6,-3.9 6.6,-4.9 12.1,-12.5 12.1,-16.7 0,-3.6 -3.2,-18.7 -5.5,-25.9 -0.8,-2.7 -2,-7.8 -2.6,-11.4 -0.5,-3.6 -1.3,-6.8 -1.7,-7.1 -0.4,-0.3 -0.8,-2.3 -1,-4.5 -0.1,-2.2 -0.9,-6 -1.7,-8.5 -2.6,-8.4 -3.7,-18.2 -3.3,-29.4 0.2,-6.1 0.7,-11.7 1.1,-12.3 0.8,-1.3 7.8,-0.6 8.8,1 z"
         id="path40"
         style="fill:#000000;stroke:none" />
      <path
         inkscape:connector-curvature="0"
         d="m 2045,454.3 c -0.3,0.4 -4.9,0.9 -10.2,1.1 -11.2,0.6 -14.8,1.7 -14.8,4.5 0,3.8 1.9,6.9 4.9,7.9 3.6,1.3 21.4,13 25.4,16.7 1.7,1.7 2.8,3.7 2.9,5.8 0.1,3.7 0.2,4.3 1.2,7.9 0.9,3 2.7,4.1 5.4,3.1 2.7,-1 3.2,-2.5 2.6,-7.1 -0.6,-4.2 -0.5,-4.5 4.7,-9.6 7.4,-7.2 16.6,-14 24,-17.9 7.4,-3.8 9.4,-6.2 6.4,-8 -1.1,-0.6 -2.2,-1.2 -2.5,-1.2 -0.3,-0.1 -2.3,-0.7 -4.5,-1.3 -4.1,-1.3 -44.6,-2.9 -45.5,-1.9 z m 32.6,9 c 0.8,0.8 -2.4,2.8 -4.3,2.7 -1,-0.1 -6.7,-0.2 -12.8,-0.3 -11.3,-0.3 -15.7,-1.3 -11.9,-2.8 1.9,-0.8 28.1,-0.5 29,0.4 z"
         id="path42"
         style="fill:#000000;stroke:none" />
      <path
         inkscape:connector-curvature="0"
         d="m 2043.7,510.9 c -6.2,2.5 -10.9,6.1 -15.7,12.2 -10,12.6 -8.5,27.4 3.8,39.2 7.4,7 12.7,9 23.7,9.1 8.4,0 9.4,-0.2 14.8,-3.3 7.1,-4 10,-7.1 13.1,-13.6 4.4,-9.2 5.3,-15 4,-24.9 -0.6,-3.9 -1.6,-5.7 -5.3,-9.5 -6.7,-6.9 -13.7,-9.9 -24.7,-10.5 -7.2,-0.4 -9.8,-0.2 -13.7,1.3 z m 11.1,43.1 4.7,2 4,-2 c 4.4,-2.2 8,-2.6 9.1,-0.8 0.4,0.6 -0.1,1.7 -1.2,2.5 -1,0.8 -1.8,1.7 -1.6,2.1 0.5,0.9 -3,2 -4.6,1.4 -0.7,-0.2 -1.2,0.2 -1,0.9 0.2,0.8 -0.3,1.3 -1.1,1.1 -0.7,-0.1 -1.9,0.3 -2.7,0.9 -1.1,0.9 -1.4,0.8 -1.4,-0.5 0,-0.9 -0.4,-1.6 -1,-1.6 -0.5,0 -1,0.7 -1,1.5 0,0.8 -0.1,1.5 -0.2,1.5 -4.7,-0.1 -12.7,-2.5 -15.5,-4.6 -3.3,-2.5 -3.4,-2.7 -1.7,-4.5 2.3,-2.6 9.1,-2.5 15.2,0.1 z"
         id="path44"
         style="fill:#000000;stroke:none" />
      <path
         inkscape:connector-curvature="0"
         d="m 2039.1,585.4 c -3.2,3.8 2,6.3 14.4,7.2 5.4,0.3 7.8,0 10.4,-1.3 7.9,-4.1 4,-6.3 -11.8,-6.9 -9.8,-0.4 -12,-0.2 -13,1 z"
         id="path46"
         style="fill:#000000;stroke:none" />
      <path
         inkscape:connector-curvature="0"
         d="m 2226,747 c 0,0.5 0.5,1 1,1 0.6,0 1,-0.5 1,-1 0,-0.6 -0.4,-1 -1,-1 -0.5,0 -1,0.4 -1,1 z"
         id="path56"
         style="fill:#000000;stroke:none" />
    </g>
    <path
       style="fill:#ffdd55"
       d="m 195.41937,459.36237 c -5.55584,-2.71265 -17.16818,-11.30831 -25.8052,-19.10146 -17.31191,-15.62048 -23.58641,-19.04522 -52.2492,-28.51861 -10.70605,-3.53848 -21.100363,-8.24004 -23.098468,-10.44792 -3.298671,-3.64499 -3.341576,-4.30567 -0.46633,-7.18092 2.779099,-2.7791 6.142588,-2.89501 27.486748,-0.94726 13.37609,1.22062 25.73198,2.21932 27.45752,2.21932 2.40787,0 2.85574,1.40808 1.92617,6.0559 -1.21851,6.09256 2.21365,13.0568 5.44922,11.05711 0.91239,-0.56389 3.1624,-6.19716 5.00003,-12.51838 7.08749,-24.38011 18.96174,-41.00223 38.71568,-54.19597 13.06923,-8.72899 17.18854,-12.78049 15.60293,-15.34606 -1.74308,-2.82036 -10.70749,-1.96012 -16.04957,1.54014 -4.95508,3.2467 -4.97969,3.22898 -4.97969,-3.58621 0,-3.76697 -2.76386,-18.1675 -6.14192,-32.00117 -3.37806,-13.83367 -5.87819,-26.99335 -5.55584,-29.24374 0.55521,-3.87606 0.87226,-3.81027 6.01839,1.24887 2.98777,2.93726 10.98041,16.40823 17.76142,29.93549 13.106,26.14483 23.14364,38.89111 39.09539,49.6452 l 9.76117,6.58063 -7.74087,2.50475 c -20.53833,6.64568 -38.18948,21.18303 -45.33562,37.33807 -7.21408,16.30863 -0.10649,21.46681 8.14559,5.91149 7.31555,-13.78995 21.33448,-25.20212 39.26548,-31.96423 9.53726,-3.59668 20.26031,-9.68879 28.03157,-15.92563 6.92216,-5.5554 15.10251,-10.97808 18.17858,-12.0504 3.07606,-1.07232 5.59283,-2.73466 5.59283,-3.69408 0,-0.95942 4.72366,-3.14717 10.49702,-4.86168 13.55528,-4.02548 16.79957,-1.29637 7.47091,6.28457 -19.52251,15.86498 -22.50129,20.53932 -33.959,53.28882 -17.2895,49.41851 -19.73531,53.01761 -44.57871,65.59921 -15.8803,8.04237 -32.14836,8.89128 -45.49623,2.37415 z"
       id="path3341"
       inkscape:connector-curvature="0" />
    <path
       style="fill:#ffeeaa"
       d="m 157.23957,371.47517 c -0.66482,-1.07569 -6.01289,-5.14461 -11.88461,-9.04203 -16.53941,-10.97824 -39.83917,-33.94765 -39.83917,-39.27433 0,-7.0831 8.50906,-5.79602 26.09161,3.94664 8.42856,4.67033 21.91568,11.77952 29.97139,15.79819 l 14.64674,7.30666 -7.998,10.71974 c -9.89467,13.26186 -9.527,12.90901 -10.98796,10.54513 z"
       id="path3343"
       inkscape:connector-curvature="0" />
    <path
       style="fill:#ffeeaa"
       d="m 195.21524,457.95115 c -4.55694,-2.25568 -14.55745,-9.34016 -22.22336,-15.74327 -21.32354,-17.81097 -25.48821,-20.27324 -48.28957,-28.55014 -23.25978,-8.44331 -31.974973,-13.2259 -30.770465,-16.88576 1.153323,-3.50432 7.894365,-3.99135 33.302225,-2.40601 l 22.72843,1.41815 0.0309,6.36669 c 0.0363,7.47563 2.68884,12.47224 5.64963,10.64237 1.15044,-0.71101 3.65064,-6.05502 5.55601,-11.87558 8.26911,-25.26075 20.13217,-41.36107 41.54081,-56.37838 6.37354,-4.47078 12.09143,-9.43993 12.70641,-11.04256 2.00219,-5.21759 -7.13003,-6.1539 -17.50154,-1.7944 -2.9357,1.23397 -3.53554,0.40073 -3.53554,-4.91125 0,-3.51854 -2.27284,-16.46591 -5.05076,-28.77192 -2.77792,-12.30602 -5.05076,-24.63657 -5.05076,-27.40122 0,-4.29205 0.45362,-4.65015 3.1041,-2.45045 1.70726,1.41689 6.37264,8.57403 10.36752,15.90474 22.04188,40.44748 33.50045,55.79385 48.65025,65.15694 l 6.99371,4.32235 -13.90241,6.43948 c -7.64633,3.54171 -17.35895,9.47434 -21.58359,13.18363 -13.609,11.94886 -24.72007,36.3531 -16.55131,36.3531 1.61488,0 4.56958,-2.38455 6.566,-5.299 10.7926,-15.75544 22.10985,-25.52033 38.88661,-33.55262 9.49914,-4.54794 24.22813,-13.12219 32.73108,-19.05388 8.50294,-5.93168 16.34658,-10.78488 17.43029,-10.78488 1.08371,0 3.00812,-1.25039 4.27646,-2.77864 2.71065,-3.26612 19.94033,-8.46802 21.82043,-6.58792 0.7109,0.71089 -4.14486,6.21308 -10.79055,12.22709 -13.43422,12.15727 -18.22374,21.20457 -33.11228,62.54821 -10.90273,30.27556 -16.9849,38.41929 -36.02326,48.23342 -12.32467,6.35328 -16.71239,7.57589 -27.18353,7.57455 -8.47771,-0.001 -15.14669,-1.31832 -20.77197,-4.10284 z"
       id="path3347"
       inkscape:connector-curvature="0" />
    <path
       style="fill:#ffeeaa"
       d="m 530.17278,459.93084 c -2.56181,-1.02775 -10.96759,-5.55373 -18.67951,-10.05773 -17.6366,-10.30033 -21.43459,-17.21852 -28.24924,-51.45713 -3.36316,-16.89744 -5.90802,-21.01607 -23.3483,-37.78723 -8.43085,-8.10739 -16.26086,-16.46612 -17.40002,-18.57497 -1.89459,-3.50734 -1.49943,-3.71991 4.63469,-2.49309 8.55839,1.71168 33.45671,13.14457 36.43118,16.72859 1.58614,1.91119 7.54115,2.73075 19.84179,2.73075 23.40985,0 33.73424,3.7339 48.74109,17.62759 12.08825,11.19158 16.70738,12.44352 19.45861,5.27391 0.95581,-2.49079 -1.45161,-5.94337 -8.63212,-12.37966 -9.36007,-8.38997 -31.13818,-20.61825 -36.72662,-20.62177 -3.70651,-0.002 -3.08337,-2.911 1.51522,-7.07267 2.22234,-2.01118 4.04061,-4.52139 4.04061,-5.57823 0,-1.05684 2.62022,-5.23433 5.82271,-9.28332 3.20249,-4.04899 12.166,-16.90774 19.91891,-28.575 12.34135,-18.57236 24.86243,-33.59568 22.53579,-27.03941 -0.44013,1.24026 -4.89135,14.61674 -9.89161,29.72551 l -9.09137,27.47049 -7.72428,0.074 c -10.86413,0.10407 -9.25467,5.446 3.63913,12.07853 15.76356,8.10873 38.76026,32.69481 46.87981,50.11985 6.84659,14.69319 10.92918,17.80946 14.52635,11.08808 1.68819,-3.15441 3.93621,-3.40415 19.76906,-2.19623 9.82535,0.7496 20.81896,1.44207 24.43026,1.53883 15.8146,0.42371 1.69508,8.96423 -32.65866,19.75433 -24.40384,7.66496 -34.71044,12.86956 -51.68908,26.1018 -6.11142,4.76292 -14.49174,10.0704 -18.62293,11.7944 -8.25723,3.44585 -22.20777,3.92385 -29.47147,1.0098 z"
       id="path3349"
       inkscape:connector-curvature="0" />
    <path
       style="fill:#ffeeaa"
       d="m 598.35999,361.20543 c -3.49886,-4.35386 -6.09518,-8.67226 -5.76959,-9.59644 0.32558,-0.92419 6.10014,-5.8103 12.83235,-10.85804 6.73221,-5.04773 17.92566,-13.6056 24.87434,-19.01748 6.94868,-5.41188 13.07934,-9.3944 13.6237,-8.85005 1.18969,1.18969 -35.74578,56.12726 -37.77921,56.19254 -0.78101,0.0251 -4.28273,-3.51666 -7.78159,-7.87053 z"
       id="path3351"
       inkscape:connector-curvature="0" />
    <path
       style="fill:#ffeeaa"
       d="m 377.24682,374.99741 c -17.9955,-2.13571 -45.97724,-8.6518 -57.08732,-13.29389 l -7.25913,-3.03305 13.48541,-12.52631 c 11.02317,-10.23919 13.4854,-13.66644 13.4854,-18.77074 0,-9.09981 -4.12743,-11.54465 -17.21039,-10.19435 -10.5887,1.09284 -11.07388,0.9358 -11.07388,-3.58415 0,-7.46151 5.60484,-34.80056 8.08438,-39.43362 1.81345,-3.38844 1.08929,-7.20657 -3.75043,-19.77434 -12.94838,-33.62427 -16.82593,-64.93776 -9.73078,-78.58164 1.84136,-3.54091 2.79897,-7.86859 2.12801,-9.61707 -1.17547,-3.06323 1.56596,-7.28602 15.08061,-23.22958 l 5.89951,-6.95978 7.04026,7.46486 c 7.63874,8.09941 12.32253,9.16896 19.16497,4.37633 5.17602,-3.62543 7.26854,-12.66434 7.46187,-32.23259 l 0.13938,-14.10791 16.16244,-7.03772 c 14.43789,-6.286784 18.10256,-7.044926 34.34519,-7.105291 17.32151,-0.06437 18.81878,0.290424 31.61107,7.490714 l 13.42832,7.558287 -1.76337,7.594 c -0.96986,4.1767 -1.78506,13.58977 -1.81157,20.91794 -0.0376,10.38397 0.76703,14.0617 3.64642,16.66751 6.23368,5.64141 14.23514,4.17702 21.96603,-4.0201 5.92291,-6.28012 7.35266,-6.94902 9.71628,-4.54569 5.23832,5.32633 15.28497,28.16422 17.3834,39.51572 3.71271,20.08391 -3.31589,47.23747 -16.48696,63.69399 -3.28284,4.10172 -5.96879,8.81677 -5.96879,10.47788 0,1.66112 2.72635,14.49581 6.05856,28.52155 6.42156,27.02927 10.1338,64.16426 6.63067,66.32932 -1.1119,0.68718 -9.19635,-2.2202 -17.96546,-6.46084 -22.40551,-10.83506 -34.69492,-13.77509 -42.33665,-10.12835 -10.2896,4.91031 -9.11506,11.92416 4.36309,26.0546 6.36265,6.67058 11.00514,12.69166 10.31662,13.38018 -4.4575,4.4575 -51.87857,7.35635 -75.15316,4.59413 z m 36.48443,-83.5216 c 5.65049,-4.17041 1.99587,-6.57746 -12.24076,-8.06214 -12.90082,-1.34536 -18.50528,0.52902 -16.58038,5.54523 2.06289,5.37581 22.52638,7.16285 28.82114,2.51691 z m 3.54942,-23.61636 c 14.10088,-7.24448 22.92905,-24.81989 21.01168,-41.83073 -0.82416,-7.31193 -2.55198,-10.67934 -8.0781,-15.74365 -8.90833,-8.16387 -25.57778,-12.14402 -37.46037,-8.94437 -9.86642,2.65675 -21.38685,14.84353 -24.79949,26.2339 -4.15638,13.87278 3.05051,30.10682 17.19446,38.73172 7.09154,4.32438 25.04834,5.19234 32.13182,1.55313 z m -5.6944,-78.52697 c 0.70219,-2.21239 0.74344,-4.88537 0.0917,-5.93996 -1.94335,-3.14442 10.41899,-15.5878 25.3434,-25.50953 7.68165,-5.10674 13.96663,-10.14681 13.96663,-11.20015 0,-4.74915 -12.45644,-6.61807 -44.44671,-6.66864 -32.61116,-0.0515 -42.42641,1.57184 -42.42641,7.01707 0,2.62274 6.02055,7.95921 22.1972,19.67506 7.25757,5.25625 13.37799,11.29138 13.71572,13.52457 1.64813,10.89781 2.73647,13.12411 6.41584,13.12411 2.12628,0 4.44049,-1.81014 5.14267,-4.02253 z"
       id="path3353"
       inkscape:connector-curvature="0" />
    <path
       style="fill:#d4aa00"
       d="m 176.22647,1010.8715 c 0,-1.5 2.72651,-6.273 6.05892,-10.6066 3.33241,-4.33355 8.78723,-11.42365 12.12183,-15.75574 11.62399,-15.10109 6.55314,-16.83196 -21.42899,-7.31451 -9.73815,3.31219 -18.06416,5.66374 -18.50224,5.22565 -0.73346,-0.73345 12.10071,-11.10092 24.79271,-20.02761 6.92157,-4.86817 10.62023,-12.71107 7.47685,-15.85445 -1.72148,-1.72148 -5.9142,-1.6556 -16.6417,0.26152 -7.88725,1.40953 -14.80082,2.1024 -15.3635,1.53973 -0.56267,-0.56268 10.42117,-7.17035 24.40854,-14.68371 26.77906,-14.38444 38.59553,-23.82021 40.79258,-32.57398 0.81891,-3.26276 -1.87761,-19.75263 -7.05244,-43.12746 -8.26878,-37.35021 -11.01252,-66.74282 -6.49116,-69.53718 1.03792,-0.64147 5.35633,0.10945 9.59645,1.6687 38.35874,14.10596 92.35427,23.86318 152.19604,27.50246 74.49944,4.53068 121.96218,0.58124 173.71133,-14.45478 11.66726,-3.38999 22.9481,-6.65918 25.06853,-7.26487 3.60738,-1.03043 3.77908,-0.19207 2.67006,13.03645 -0.68511,8.17201 -4.35334,23.43876 -8.69307,36.17967 -7.59615,22.30132 -11.2247,50.05551 -8.14727,62.31696 2.24909,8.96109 12.42191,18.08533 29.35881,26.33256 l 16.46757,8.01871 -7.65419,2.13638 c -6.05184,1.68914 -7.78286,3.23474 -8.2688,7.38315 -0.51894,4.43008 1.44239,6.71462 12.6003,14.67674 11.32278,8.07977 20.04007,17.34501 16.31923,17.34501 -0.62241,0 -7.24564,-3.0505 -14.71828,-6.77889 -19.96209,-9.95985 -23.5507,-10.46966 -28.59118,-4.06174 -2.30359,2.92854 -4.18835,6.79265 -4.18835,8.5869 0,1.79425 6.47451,9.39931 14.3878,16.90013 7.91329,7.5008 13.19031,13.6379 11.7267,13.6379 -1.46361,0 -12.05613,-5.9327 -23.53894,-13.18383 -11.48279,-7.25108 -32.36296,-19.22743 -46.40037,-26.6141 -25.97417,-13.66795 -39.0077,-23.04393 -39.0077,-28.06108 0,-1.53485 2.26728,-10.61459 5.03842,-20.17719 2.77113,-9.5626 6.12964,-25.58251 7.46335,-35.59981 1.76392,-13.24858 3.28174,-18.4705 5.56818,-19.15695 9.4124,-2.82589 16.27523,-7.03654 16.27523,-9.98558 0,-3.58205 -0.71797,-3.55534 -35.35534,1.31536 -24.50698,3.44617 -85.3314,4.62104 -117.17858,2.26339 -31.08472,-2.30121 -77.32518,-8.66188 -89.88935,-12.36486 -10.00623,-2.94909 -15.55078,-2.58224 -16.97261,1.12298 -0.91932,2.39572 1.31771,4.27908 8.87522,7.47203 l 10.10436,4.26897 0,13.46005 c 0,7.40302 1.79407,25.14729 3.98681,39.4317 3.60101,23.45836 3.68826,26.4273 0.90167,30.68019 -3.63727,5.55118 -18.35172,15.23788 -38.67505,25.46026 -8.02652,4.03724 -21.66358,13.04155 -30.30458,20.00958 -24.30525,19.59959 -34.9038,25.35429 -34.9038,18.95179 z"
       id="path3355"
       inkscape:connector-curvature="0" />
    <path
       style="fill:#d4aa00"
       d="m 508.73549,327.20022 c -1.35454,-13.89959 -6.25799,-41.20951 -10.48732,-58.40941 l -3.06074,-12.44747 7.13862,-9.35211 c 6.69319,-8.76855 15.33198,-31.14137 15.33198,-39.70689 0,-2.10529 0.74311,-3.8278 1.65135,-3.8278 4.83505,0 18.52349,65.38539 18.54069,88.56314 0.01,13.39959 -0.61255,15.72619 -6.48664,24.24367 -7.50102,10.87655 -17.8649,22.55363 -20.01726,22.55363 -0.81324,0 -1.98805,-5.22754 -2.61068,-11.61676 z"
       id="path3357"
       inkscape:connector-curvature="0" />
    <path
       style="fill:#d4aa00"
       d="m 260.16155,341.25809 c -1.79528,-8.17387 2.33504,-64.34193 6.05611,-82.35679 3.5256,-17.06852 13.27478,-46.03806 19.67879,-58.47522 l 4.16109,-8.08122 3.42749,19.1929 c 1.88512,10.55609 6.22003,27.37513 9.63312,37.37564 l 6.20563,18.18275 -3.71242,18.18274 c -2.04183,10.00051 -4.33762,22.89948 -5.10174,28.66437 -1.34921,10.17896 -1.76036,10.72335 -14.23911,18.85358 -7.06738,4.60458 -13.91965,9.66107 -15.22727,11.23666 -4.01149,4.83354 -9.51901,3.42883 -10.88169,-2.77541 z"
       id="path3359"
       inkscape:connector-curvature="0" />
    <path
       style="fill:#d4aa00"
       d="m 245.6457,269.11193 c -1.80447,-4.70238 0.81941,-12.3737 6.3576,-18.58741 l 5.0373,-5.65173 -1.30428,9.09137 c -2.32957,16.23811 -6.98845,23.23189 -10.09062,15.14777 z"
       id="path3361"
       inkscape:connector-curvature="0" />
    <path
       style="fill:#d4aa00"
       d="m 172.87132,827.91467 c -3.51208,-2.17013 -7.01111,-5.91647 -7.77562,-8.32522 -1.79773,-5.66417 0.46714,-20.15414 3.85563,-24.66717 2.69254,-3.5861 12.11307,-8.07363 21.72175,-10.34729 l 5.35525,-1.26718 -0.30448,14.63535 c -0.16747,8.04945 0.13641,18.72648 0.67528,23.72673 l 0.97976,9.09138 -9.06098,0.54954 c -6.22419,0.37749 -11.06018,-0.68577 -15.44659,-3.39614 z"
       id="path3363"
       inkscape:connector-curvature="0" />
    <path
       style="fill:#ff0000"
       d="m 395.65095,258.10608 c -7.23577,-2.2944 -10.4794,-5.15578 -8.52036,-7.51628 1.78066,-2.14555 8.99975,-1.95056 15.21477,0.41096 5.03787,1.91424 5.18645,1.9146 9.35474,0.0222 4.4826,-2.03511 8.32473,-2.51307 9.17266,-1.14109 0.79598,1.28793 -4.29124,6.24483 -6.40902,6.24483 -1.04239,0 -2.04677,0.39448 -2.23197,0.87663 -0.52733,1.3729 -4.8824,2.45377 -4.8824,1.21175 0,-0.59302 -0.68185,-1.07823 -1.51523,-1.07823 -0.83337,0 -1.51523,0.68186 -1.51523,1.51523 0,1.92062 -1.10943,1.85074 -8.66796,-0.54599 z"
       id="path3365"
       inkscape:connector-curvature="0" />
  </g>
</svg>
